<svg id="Capa_1" data-name="Capa 1" xmlns="http://www.w3.org/2000/svg" viewBox="0 0 238 206.49"><defs><style>.cls-1{fill:#c0392b;}.cls-2{fill:#e74c3c;}.cls-3{fill:#fff;}</style></defs><title>heart</title><path class="cls-1" d="M103.56,9.42c43.05.13,84,31.25,95.2,73.4.06.21.11.41.16.61l.15.6c.06.2.11.41.15.61l.15.61.15.62c0,.21.09.42.14.63s.1.41.15.63.1.42.16.63.12.43.19.65.14.43.22.65.17.44.26.66.19.45.3.67.22.45.34.68.25.46.38.69.28.46.44.7.31.47.49.71l.57.73c.2.24.41.49.64.74s.46.5.71.75.52.52.8.77.58.51.9.77c.16.13.32.26.49.38l.52.39.55.38c.19.13.38.26.58.38s.41.26.63.38l.65.38.68.38.72.38.74.37.77.37.8.37.82.37.85.36.88.36.92.36.93.36,1,.35,1,.35,1,.35,1,.34,1,.34,1,.34,1,.33,1,.33,1,.33,1,.33,1,.32,1,.32.93.32.9.32.87.31.83.32.79.31.76.31.7.31.66.31.61.32c.19.1.38.2.55.31a9,9,0,0,1,.94.62,6.25,6.25,0,0,1,.7.61,3.32,3.32,0,0,1,.45.62,1.64,1.64,0,0,1,.19.62,1.32,1.32,0,0,1-.06.62,2,2,0,0,1-.32.61,4.21,4.21,0,0,1-.59.62,7.63,7.63,0,0,1-.84.61c-.31.2-.67.41-1.06.61l-.62.3-.67.31-.72.3-.76.3-.81.3-.83.3-.86.29-.9.3-.91.29-.94.29-.95.29-1,.29-1,.29-1,.28-1,.28-.95.28-.94.28-.93.28-.91.27-.9.27-.89.28-.87.27-.86.26-.83.27-.82.27-.78.26-.76.27-.74.26-.72.27-.7.26-.68.27-.65.26-.63.26-.6.27-.59.26-.56.27c-.36.18-.71.35-1,.53l-.95.54-.87.54c-.28.18-.55.36-.81.55s-.5.36-.74.55-.46.37-.68.55l-.62.56-.56.57c-.18.19-.34.38-.5.57l-.46.57c-.14.19-.27.39-.4.58s-.25.39-.36.59-.21.39-.31.59-.2.4-.29.6l-.25.6c-.08.2-.16.4-.23.6s-.14.39-.2.59-.13.4-.19.6l-.18.59A98.79,98.79,0,1,1,103.56,9.42Z" transform="translate(-1.6 -0.5)"/><path class="cls-2" d="M100.68.5a98.81,98.81,0,0,1,95.2,73.4c.06.2.11.4.16.61l.15.6.15.61.15.61c0,.21.1.41.14.62l.15.62c.05.21.09.42.14.63s.11.43.16.64.13.43.19.65.15.43.23.65.17.44.26.66.19.44.3.67.22.45.34.68.24.46.38.69l.43.7c.16.23.32.47.5.71s.37.48.57.72.41.5.63.75.46.5.72.75.51.51.8.77.58.51.9.77c.15.13.32.26.49.38l.52.39.55.38c.19.13.38.26.58.38l.62.38c.22.13.43.26.66.38l.68.38.72.38.74.37.77.37.8.37.82.37.85.36.88.36.91.36.94.36,1,.35,1,.35,1,.35,1,.34,1,.34,1,.34,1,.33,1,.33,1,.33,1,.33,1,.32,1,.32.93.32c.31.1.61.21.9.32l.87.31.83.32.79.31.75.31.71.31.66.31.61.31.55.31c.35.21.66.42.93.62a5.58,5.58,0,0,1,.7.62,3,3,0,0,1,.46.62,1.64,1.64,0,0,1,.19.62,1.46,1.46,0,0,1-.06.62,2.24,2.24,0,0,1-.32.61,4.21,4.21,0,0,1-.59.62,7.63,7.63,0,0,1-.84.61c-.32.2-.67.41-1.07.61l-.61.3-.67.31-.72.3-.76.3-.81.3-.83.3-.86.29-.9.3-.91.29-.94.29-.95.29-1,.29-1,.29-1,.28-1,.28-.95.28-.94.28-.93.28-.91.27-.91.27-.88.27-.88.27-.85.27-.83.27-.82.27-.78.26-.77.27-.74.26-.71.27-.7.26-.68.27-.65.26-.63.26-.61.27-.58.26-.56.27c-.36.17-.71.35-1,.53l-1,.54-.87.54-.81.54-.74.56c-.24.18-.46.37-.68.55l-.62.56-.56.57c-.18.19-.34.38-.5.57l-.46.57c-.14.19-.27.38-.4.58s-.25.39-.36.58-.22.4-.32.6l-.28.6c-.09.2-.17.4-.25.6s-.16.4-.23.6l-.21.59-.18.6-.18.59A98.8,98.8,0,1,1,100.68.5Z" transform="translate(-1.6 -0.5)"/><path class="cls-1" d="M142.5,99.16c-3.71,13.7-40.16,45-40.16,45h0s-36.46-31.33-40.16-45c0,0-8.15-21.85,13.71-29.63,0,0,11.86-5.93,26.45,7.25h0c14.58-13.17,26.46-7.24,26.46-7.24C150.65,77.3,142.5,99.16,142.5,99.16Z" transform="translate(-1.6 -0.5)"/><path class="cls-3" d="M138.55,97.07c-3.71,13.7-40.16,45-40.16,45h0s-36.46-31.32-40.17-45c0,0-8.15-21.86,13.72-29.64,0,0,11.86-5.93,26.45,7.25h0c14.58-13.17,26.46-7.24,26.46-7.24C146.7,75.2,138.55,97.07,138.55,97.07Z" transform="translate(-1.6 -0.5)"/></svg>