<svg id="Capa_1" data-name="Capa 1" xmlns="http://www.w3.org/2000/svg" viewBox="0 0 657.14 553.29"><defs><style>.cls-1{fill:#1d2128;}.cls-2{fill:#4d4d4d;}.cls-3{fill:#333;}.cls-4,.cls-8{fill:#e74c3c;}.cls-5{fill:#7f7f7f;}.cls-6,.cls-7{fill:#c0392b;}.cls-7,.cls-8{font-size:36.59px;font-family:SegoeUI-Italic, Segoe UI;font-style:italic;}</style></defs><title>logoandslide</title><path class="cls-1" d="M365.8,38.35l66.9,66.9H52.13L15.24,68.36l0,0a16.63,16.63,0,0,1-3.74-3.75h0A16.65,16.65,0,0,1,9.8,61.75c-.19-.24-.37-.49-.56-.75-.32-.45-.65-.93-1-1.44s-.65-1-1-1.58-.63-1.13-.93-1.74S5.79,55,5.51,54.36s-.52-1.3-.76-2S4.31,51,4.11,50.3c-.1-.36-.19-.73-.28-1.11s-.17-.77-.25-1.17-.15-.82-.22-1.25-.13-.88-.19-1.34S3.07,44.49,3,44,3,43,2.94,42.47s0-1.06,0-1.63,0-1.16,0-1.78.07-1.28.13-2S3.2,35.7,3.29,35c0-.37.1-.75.16-1.13s.12-.78.18-1.18.13-.81.21-1.22.14-.83.22-1.26.15-.86.23-1.31.15-.9.22-1.37.14-.95.2-1.44.13-1,.19-1.51S5,23.5,5.05,23s.08-1.05.11-1.57,0-1,0-1.55,0-1,0-1.47,0-.93,0-1.36,0-.82,0-1.19a9.74,9.74,0,0,1,.09-1.7c.14-.8.44-1,.91-.59a2.56,2.56,0,0,1,.39.44c.17-.4.44-.45.79-.14a4.34,4.34,0,0,1,.8,1.06,16.5,16.5,0,0,1,.92,1.91c.15.39.31.81.46,1.25s.3.92.44,1.4.28,1,.41,1.49l.36,1.51c.1.51.2,1,.29,1.51s.18,1,.26,1.45.16.91.24,1.35.14.86.21,1.27.13.79.2,1.16.14.72.21,1.06c.14.67.28,1.28.43,1.84l.06.21c.08-.23.17-.47.26-.71.27-.75.57-1.54.9-2.38L14.33,28c.18-.44.35-.89.53-1.35l.53-1.41.51-1.46c.17-.5.33-1,.49-1.51s.31-1,.46-1.51.29-1,.42-1.52.25-1,.36-1.5c.05-.25.11-.5.15-.74s.1-.48.14-.72.08-.48.11-.72.06-.48.07-.72,0-.5,0-.74,0-.5-.06-.75-.07-.51-.12-.76a7,7,0,0,0-.19-.76q-.11-.37-.24-.75c-.09-.25-.19-.49-.29-.74s-.21-.48-.33-.72-.23-.46-.35-.69l-.35-.66c-.12-.21-.23-.41-.35-.6l-.59-1c-.16-.3-.3-.57-.41-.81a3.87,3.87,0,0,1-.24-.62c-.09-.35-.06-.59.1-.71a.86.86,0,0,1,.72-.1l.23,0a.44.44,0,0,1,.14-.28A.92.92,0,0,1,16.5,4a4.65,4.65,0,0,1,1.17.42,6.28,6.28,0,0,1,.74.41c.26.17.54.36.83.58s.59.47.91.75.64.58,1,.91c.16.16.32.32.48.5s.33.35.49.53.31.37.46.56l.45.59c.15.2.28.4.42.6l.38.61c.24.41.46.81.67,1.23.09.22.18.45.26.67s.16.45.23.68c.15.45.27.89.38,1.34s.2.88.28,1.32.16.89.23,1.34c.11.93.21,1.86.28,2.8s.12,1.86.16,2.78.07,1.74.11,2.56.06,1.57.1,2.29.09,1.37.16,2,.13,1.17.22,1.69a15.92,15.92,0,0,0,.7,2.57,11.72,11.72,0,0,0,.93,1.74,8.76,8.76,0,0,0,1.07,1.17c.15.13.3.26.45.37a3.77,3.77,0,0,0,.71-.59,4.74,4.74,0,0,0,.66-1.13,7.59,7.59,0,0,0,.49-1.72c.07-.35.11-.74.15-1.15s0-.88,0-1.39,0-1.06-.06-1.68-.09-1.31-.17-2.07c0-.38-.08-.78-.11-1.19s-.08-.85-.11-1.3-.07-.92-.09-1.4,0-1,0-1.48,0-1,0-1.53.06-1,.11-1.55.12-1,.2-1.53.17-1,.28-1.46.23-.91.35-1.32.24-.79.37-1.15a14.25,14.25,0,0,1,.77-1.77c.5-.92.92-1.39,1.23-1.4.16,0,.29.13.38.4.36-.55.66-.84.9-.84s.51.51.57,1.63c0,.56,0,1.3,0,2.21,0,.45,0,.94,0,1.45s0,1,.09,1.58.1,1.12.19,1.7.19,1.16.31,1.74.27,1.15.43,1.71.34,1.1.53,1.63.38,1,.58,1.51l.59,1.39L40,27.57c.19.41.37.8.54,1.19s.34.76.5,1.13.32.72.47,1.07c.3.71.58,1.39.84,2.07s.48,1.32.69,1.94c.14.42.27.84.39,1.24L54,46.74l5.35-25.16,0-.23a2.5,2.5,0,0,1,2.41-1.84H87.12l-.39,1.87h1.89l-1.84,8.8L90.7,34.1,90.94,33h10.55l-.32,1.5h1.94l-4,19c-.18.77-.36,1.63-.56,2.59a12.29,12.29,0,0,0-.3,2.48,2.93,2.93,0,0,0,.06.61,9.19,9.19,0,0,0,.92.13c1.62.17,2.43.25,2.83.26,1.24,0,2.43,0,3.48-.11h.07c.36,0,.88-.08,1.11-.36a1.79,1.79,0,0,0,.26-.5,2.52,2.52,0,0,0,.13-.6c0-.19.07-.38.09-.58.17-1,2.08-9.52,2.63-12.09a.15.15,0,0,1,0-.07c.15-.7.37-1.8.64-3.2.21-1.09.4-2.18.59-3.24s.36-2.1.5-3.08.25-1.89.34-2.7H122.2c0,.48-.1,1-.16,1.5h1.79c-.07.62-.14,1.27-.22,1.94a15.5,15.5,0,0,1,2.16-2.34A7.84,7.84,0,0,1,131,32.19a8.44,8.44,0,0,1,1.67.16c.55.11,1.05.2,1.49.26l1.47,1.48h0l.14,0,0,.11,3.37,3.37a19.35,19.35,0,0,1,13.77-5.41,17.62,17.62,0,0,1,5.66.8,10.65,10.65,0,0,1,3.83,2.12l.2.19.27.27.64.64.4.33A9.35,9.35,0,0,1,165,37.66l9.45,9.45,6-28.31h10.5l-.31,1.48h1.31l-3.15,14.85c-.09.46-.21,1-.35,1.58s-.24,1-.35,1.47c.14-.16.3-.31.45-.47a13.11,13.11,0,0,1,2.39-1.88,11.85,11.85,0,0,1,2.82-1.22,12.29,12.29,0,0,1,3.29-.43,10.3,10.3,0,0,1,4.1.8,8.55,8.55,0,0,1,2.67,1.78l.2.21,10.29,10.29c.3-1.43.63-3,1-4.66q.63-3,1.3-6.1t1.3-6.08q.63-3,1.15-5.43c.35-1.62.65-3,.88-4.09s.38-1.81.44-2.1h10.54L246.1,34a22.8,22.8,0,0,1,5.26-.57,17.87,17.87,0,0,1,6.24,1,12.75,12.75,0,0,1,4.13,2.45h0l.13.13c.11.1.22.18.33.29s.28.29.41.44l0,0,9.1,9.1c.22-.63.46-1.24.72-1.85a20.72,20.72,0,0,1,2.66-4.4A16.86,16.86,0,0,1,279,37.07a18.78,18.78,0,0,1,5.12-2.43,22,22,0,0,1,6.47-.89,17.91,17.91,0,0,1,6.24,1A12.39,12.39,0,0,1,300.7,37l0,0c.22.18.43.38.64.59s.42.44.62.67l9.92,9.92.58-2.73.6-3.05c.19-1,.37-2,.52-2.93s.29-1.8.42-2.6.21-1.48.28-2h10.27L324.46,36h1.37c-.06.62-.14,1.27-.21,1.94s-.13,1.11-.2,1.64c.36-.39.74-.76,1.12-1.12a19.21,19.21,0,0,1,3-2.31,15.47,15.47,0,0,1,3.25-1.53,10.77,10.77,0,0,1,3.37-.56q3.94,0,6,2c.12.12.23.25.34.37a6,6,0,0,1,.91.75,8,8,0,0,1,1.94,3.46,21.53,21.53,0,0,1,1.88-2,18.56,18.56,0,0,1,3.16-2.44,15.57,15.57,0,0,1,3.49-1.58,12.56,12.56,0,0,1,3.69-.56,8.79,8.79,0,0,1,5.61,1.64,6.19,6.19,0,0,1,.7.65l.18.21a5.47,5.47,0,0,1,.94.79.74.74,0,0,1,.13.12,7.14,7.14,0,0,1,.68.86S365.8,38.34,365.8,38.35Z" transform="translate(-2.91 -3.99)"/><path class="cls-1" d="M92,21.56a1.09,1.09,0,0,1,0-.18.91.91,0,0,1,0-.17V21a1,1,0,0,1,0-.18,1.21,1.21,0,0,1,0-.19,2313647235684.73,2313647235684.73,0,0,0,0-.36c0-.07,0-.13,0-.19s0-.13,0-.19,0-.13,0-.19l0-.19a1.36,1.36,0,0,1,0-.2c0-.06,0-.13,0-.19l0-.2a1.42,1.42,0,0,1,0-.2,1.52,1.52,0,0,1,0-.21,1.42,1.42,0,0,1,0-.2c0-.07,0-.14,0-.21s0-.15,0-.22,0-.15,0-.22l.06-.23a2.17,2.17,0,0,1,.07-.24c0-.08,0-.16.07-.25l.09-.26c0-.09.06-.18.1-.28l0-.14.06-.16.06-.16a1.11,1.11,0,0,0,.07-.16l.07-.18.08-.18a1.67,1.67,0,0,1,.08-.2c0-.06.05-.12.08-.19l.09-.2.09-.21a1.36,1.36,0,0,1,.1-.21,2.56,2.56,0,0,1,.11-.24l.12-.23c0-.08.09-.16.13-.25l.15-.27s0-.09.08-.14l.07-.14.09-.14.09-.15.1-.16a1.3,1.3,0,0,1,.1-.15c0-.06.07-.11.1-.16l.11-.17.12-.16a1,1,0,0,1,.11-.17l.12-.18a1.09,1.09,0,0,0,.13-.17,1.88,1.88,0,0,0,.12-.18l.14-.18.14-.18.14-.18.15-.18a1.15,1.15,0,0,1,.14-.17l.14-.18.15-.17.16-.18.16-.17a1.14,1.14,0,0,1,.15-.17s.1-.11.16-.16.09-.1.15-.15l.15-.16A1.06,1.06,0,0,0,97.53,9l.15-.13.14-.14A.58.58,0,0,0,98,8.6l.14-.12.14-.11.14-.11a.63.63,0,0,1,.12-.11.45.45,0,0,0,.13-.1l.13-.1L99,7.79l.22-.15.22-.13.19-.1.17-.08a1.68,1.68,0,0,1,.29-.1.9.9,0,0,1,.21,0,.16.16,0,0,1,.08,0l.12-.08.22-.15.22-.12.19-.11.17-.08a1.68,1.68,0,0,1,.29-.1.9.9,0,0,1,.21,0,.15.15,0,0,1,.11.09.27.27,0,0,1,0,.18,1.47,1.47,0,0,1-.06.14,1,1,0,0,1-.09.17c0,.06-.08.14-.13.21l-.18.26-.1.14-.11.15-.12.16-.12.17-.13.18c-.05.07-.09.14-.14.2s-.09.13-.14.2a1.91,1.91,0,0,0-.15.21l-.14.21-.15.22-.16.23c0,.07-.09.15-.14.23l-.14.22c0,.08-.1.15-.14.23s-.09.14-.13.22l-.12.22a2.12,2.12,0,0,0-.11.21,2.12,2.12,0,0,0-.11.21,2.12,2.12,0,0,1-.11.21l-.09.2c0,.06-.05.13-.08.19s-.06.13-.08.19l-.08.18a1.15,1.15,0,0,1-.06.17l-.06.17a1,1,0,0,0-.05.16.76.76,0,0,1-.06.16c0,.06,0,.11,0,.16s0,.19-.07.28a2.38,2.38,0,0,0,0,.26l0,.24a1.8,1.8,0,0,1,0,.22v.39a1,1,0,0,0,0,.17.81.81,0,0,0,0,.16c0,.11,0,.2,0,.3s0,.17.08.25a2,2,0,0,0,.09.22.85.85,0,0,0,.1.19.46.46,0,0,0,.11.16.83.83,0,0,0,.11.15l.12.12.13.1.14.09a1.11,1.11,0,0,0,.27.12,1.43,1.43,0,0,0,.28.07,1.51,1.51,0,0,0,.28.05h.26l.24,0h.24a1.52,1.52,0,0,0,.21,0l.2,0,.2,0a6.73,6.73,0,0,1,1,.26A5.48,5.48,0,0,1,104.15,18a4.87,4.87,0,0,1,1.22,1.6,4.55,4.55,0,0,1,.45,2,5.15,5.15,0,0,1-.49,2.3A5.57,5.57,0,0,1,104,25.71a5.85,5.85,0,0,1-2,1.13,3.88,3.88,0,0,1-.45.14,5.51,5.51,0,0,1-1,.47,7.09,7.09,0,0,1-2.19.39h-.75l-.25,0-.24,0-.23,0-.24,0-.22-.05-.23-.05-.22-.07-.22-.07-.27-.1-.26-.11-.25-.13-.19-.1,0,0-.24-.14-.22-.15L94,26.55l-.21-.18-.19-.18c-.07-.06-.13-.13-.19-.19s-.12-.13-.17-.2l-.17-.21-.15-.22s0,0,0,0l-.13-.21-.14-.24-.12-.25-.11-.26c0-.09-.07-.18-.1-.27a2.29,2.29,0,0,1-.08-.28,2.06,2.06,0,0,1-.07-.29,2.64,2.64,0,0,1-.07-.3l0-.16c0-.05,0-.1,0-.15a1,1,0,0,1,0-.17.88.88,0,0,1,0-.17,1,1,0,0,1,0-.17l0-.18a1,1,0,0,0,0-.17,1.15,1.15,0,0,0,0-.18Z" transform="translate(-2.91 -3.99)"/><path class="cls-2" d="M112.5,105.25H52.13L15.24,68.36l0,0-3.74-3.75h0l.25-.23.15-.13h0l.41-.36.09-.08.32-.29h0l4.42-3.92.21-.19,9.6-8.51h0l2-1.76,7.15-6.34h0l.57-.51.65-.58.09-.08.34-.3L40.26,39l2.08-1.84,1.12-1L54,46.74l2.18,2.18,6.66,6.66,1.56,1.56Z" transform="translate(-2.91 -3.99)"/><path class="cls-3" d="M232.55,105.25H88.25L51.61,68.61H62l2.42-11.47,1.44-6.81H81.11L83,41.57h-1.9l.4-1.87H68.11l2-9.52H86.78L90.7,34.1c-.06.28-.13.6-.2,1s-.13.61-.19.93c-.16.76-.34,1.6-.54,2.51-.27,1.3-.56,2.66-.87,4.1s-.6,2.81-.87,4.1-.52,2.44-.72,3.44-.36,1.69-.45,2.06c-.13.62-.26,1.26-.38,1.93s-.22,1.33-.31,2S86,57.38,86,58s-.08,1.13-.08,1.61a9.8,9.8,0,0,0,.48,3.14,6.34,6.34,0,0,0,1.5,2.48,5.48,5.48,0,0,0,1.09.87,6.31,6.31,0,0,0,.53.63,6.92,6.92,0,0,0,2.59,1.61,11.71,11.71,0,0,0,3.77.58l1.2,0h19.74l2-8,.32-1.3.19-.78.19-.78c.35-1.45.68-2.88.89-4a25.25,25.25,0,0,1,1.31-4.24,13.64,13.64,0,0,1,2-3.48A9.4,9.4,0,0,1,126.37,44a6.94,6.94,0,0,1,3.48-.87,7.34,7.34,0,0,1,2,.3,8.63,8.63,0,0,1,1.77.65h.06l2.09-9.87,3.37,3.37-.34.32q-.33.33-.63.66a20.88,20.88,0,0,0-4.09,6.82,23.65,23.65,0,0,0-1.43,8.2,17.71,17.71,0,0,0,.82,5.41,11.81,11.81,0,0,0,2.59,4.43,9.53,9.53,0,0,0,1.29,1.17l.22.26a12.66,12.66,0,0,0,4.5,3A17.19,17.19,0,0,0,148.61,69a27.34,27.34,0,0,0,3.54-.23,26,26,0,0,0,3.27-.63,27.37,27.37,0,0,0,2.85-.89,20.77,20.77,0,0,0,2.33-1l1.62-7.77a21.1,21.1,0,0,1-2,1l.51-2.43a22.44,22.44,0,0,1-2.65,1.27c-1,.38-1.92.71-2.89,1a23.12,23.12,0,0,1-2.85.62,16.24,16.24,0,0,1-2.58.22,9.23,9.23,0,0,1-3.3-.51,6.61,6.61,0,0,1-1.16-.58,4.56,4.56,0,0,1-.58-1.17,6.66,6.66,0,0,1-.33-2V55.5a1.22,1.22,0,0,1,.06-.34,57.58,57.58,0,0,0,10.67-1A22.09,22.09,0,0,0,162,51.67a9.66,9.66,0,0,0,3.69-3.76,10.34,10.34,0,0,0,1.1-4.78V43a9.41,9.41,0,0,0-.69-3.47A8.14,8.14,0,0,0,165,37.66l9.45,9.45-.62,3L170.43,65.9c.37.23.76.46,1.17.67l-.09.41-.08.4c.35.21.71.42,1.08.61h0a22.06,22.06,0,0,0,2,.91,30.4,30.4,0,0,0,3.57,1.15,31.45,31.45,0,0,0,3.82.73,31.81,31.81,0,0,0,3.87.25,25.53,25.53,0,0,0,7.86-1.11l.11,0a24,24,0,0,0,2.47-1Z" transform="translate(-2.91 -3.99)"/><polygon class="cls-3" points="67.23 26.19 65.2 35.71 78.61 35.71 78.21 37.58 80.11 37.58 78.2 46.34 62.92 46.34 61.48 53.15 59.06 64.62 48.7 64.62 46.83 62.75 51.45 49.94 51.46 49.93 53.26 44.93 61.62 21.73 79.19 18.13 83.77 17.61 85.71 17.39 83.87 26.19 67.23 26.19"/><path class="cls-3" d="M135.76,34.22l-2.09,9.87h-.06a8.63,8.63,0,0,0-1.77-.65,7.34,7.34,0,0,0-2-.3,6.94,6.94,0,0,0-3.48.87,9.4,9.4,0,0,0-2.74,2.35,13.64,13.64,0,0,0-2,3.48,25.25,25.25,0,0,0-1.31,4.24c-.21,1.09-.54,2.52-.89,4l-.19.78-.19.78-.32,1.3-2,8H97l-1.2,0a11.71,11.71,0,0,1-3.77-.58,6.92,6.92,0,0,1-2.59-1.61,6.31,6.31,0,0,1-.53-.63,5.48,5.48,0,0,1-1.09-.87,6.34,6.34,0,0,1-1.5-2.48,9.8,9.8,0,0,1-.48-3.14c0-.48,0-1,.08-1.61s.13-1.22.22-1.87.19-1.3.31-2,.25-1.31.38-1.93c.09-.37.23-1.06.45-2.06s.44-2.14.72-3.44.56-2.66.87-4.1.6-2.8.87-4.1c.2-.91.38-1.75.54-2.51.06-.32.13-.63.19-.93s.14-.69.2-1L90.94,33h9.31l.74.74-.2.76-6.27,24,.79,6.93h11.8l7.62-12.38,1.59-9.6,7.81-.61,3-.23.7-1,5.56-7.93.78-1.11,1.47,1.48h0Z" transform="translate(-2.91 -3.99)"/><path class="cls-3" d="M166.76,43v.09a10.34,10.34,0,0,1-1.1,4.78A9.66,9.66,0,0,1,162,51.67a22.09,22.09,0,0,1-6.87,2.48,57.58,57.58,0,0,1-10.67,1,1.22,1.22,0,0,0-.06.34v.31a6.66,6.66,0,0,0,.33,2,4.56,4.56,0,0,0,.58,1.17,6.61,6.61,0,0,0,1.16.58,9.23,9.23,0,0,0,3.3.51,16.24,16.24,0,0,0,2.58-.22,23.12,23.12,0,0,0,2.85-.62c1-.28,1.93-.61,2.89-1A22.44,22.44,0,0,0,160.71,57l-.51,2.43a21.1,21.1,0,0,0,2-1l-1.62,7.77a20.77,20.77,0,0,1-2.33,1,27.37,27.37,0,0,1-2.85.89,26,26,0,0,1-3.27.63,27.34,27.34,0,0,1-3.54.23,17.19,17.19,0,0,1-6.55-1.12,12.66,12.66,0,0,1-4.5-3l-.22-.26a9.53,9.53,0,0,1-1.29-1.17A11.81,11.81,0,0,1,133.46,59a17.71,17.71,0,0,1-.82-5.41,23.65,23.65,0,0,1,1.43-8.2,20.88,20.88,0,0,1,4.09-6.82q.3-.33.63-.66l.34-.32,1.47,1.47L143,41.5l6.62-2.1a5.22,5.22,0,0,1,.56-.18l12.07-3.83.3-.1.27.27.64.64L165,37.66a8.14,8.14,0,0,1,1.11,1.91A9.41,9.41,0,0,1,166.76,43Z" transform="translate(-2.91 -3.99)"/><path class="cls-3" d="M196.23,68.93a24,24,0,0,1-2.47,1l-.11,0A25.53,25.53,0,0,1,185.79,71a31.81,31.81,0,0,1-3.87-.25,31.45,31.45,0,0,1-3.82-.73,30.4,30.4,0,0,1-3.57-1.15,22.06,22.06,0,0,1-2-.91h0c-.37-.19-.73-.4-1.08-.61l.08-.4.09-.41c-.41-.21-.8-.44-1.17-.67l3.36-15.84.62-3,1.09,1.09,7.58,7.58,1.09,1.09-.63,3-.43,2c.21.06.43.11.68.16a11.63,11.63,0,0,0,2.18.25h.31a7.7,7.7,0,0,0,2.78-.49l1.34,1.34Z" transform="translate(-2.91 -3.99)"/><path class="cls-2" d="M432.7,105.25H232.55L196.23,68.93a19.07,19.07,0,0,0,3.44-2.05,18.53,18.53,0,0,0,4.14-4.26,23.46,23.46,0,0,0,2.62-4.93,25.28,25.28,0,0,0,1.36-5,27.32,27.32,0,0,0,.4-4.43,18.27,18.27,0,0,0-.76-5.5,11.34,11.34,0,0,0-2-3.82,9.86,9.86,0,0,0-1.11-1.6L204,37l10.29,10.29c-.06.25-.11.51-.17.76-.34,1.62-.64,3-.87,4.1,0,0,0,.06,0,.1-.22,1.05-.36,1.72-.42,2-.13.62-.26,1.26-.38,1.93s-.23,1.33-.31,2-.16,1.27-.22,1.87-.08,1.12-.08,1.61a9.8,9.8,0,0,0,.48,3.14,6,6,0,0,0,.73,1.51.24.24,0,0,0,0,.08,6.23,6.23,0,0,0,1.49,2.47,7,7,0,0,0,2.59,1.61,10.79,10.79,0,0,0,3.77.58c.62,0,1.23,0,1.86-.08s1.23-.14,1.81-.24,1.13-.2,1.65-.31,1-.22,1.37-.33c.28-1.31.56-2.62.82-3.9s.54-2.59.82-3.91a6.68,6.68,0,0,1-1.17.38c.15-.64.29-1.3.43-2a9.09,9.09,0,0,1-1.6.48,8.54,8.54,0,0,1-1.73.18,3.32,3.32,0,0,1-1.81-.49l0,0v-.14a12.2,12.2,0,0,1,.29-2.48c.2-1,.38-1.82.56-2.59l7.48-35.17h-1.09l.34-1.59L246.1,34l-.67.17-.54.15a19.21,19.21,0,0,0-5.12,2.42,17.36,17.36,0,0,0-3.85,3.59,21.14,21.14,0,0,0-2.66,4.4,22.3,22.3,0,0,0-1.52,4.86,25.68,25.68,0,0,0-.5,5,17.29,17.29,0,0,0,.89,5.65,12.09,12.09,0,0,0,2.7,4.52.3.3,0,0,0,.08.08c0,.08.09.14.14.22a12.09,12.09,0,0,0,1.16,1.43,12.61,12.61,0,0,0,4.59,3,17.85,17.85,0,0,0,6.54,1.09,21.71,21.71,0,0,0,6.63-.93,18.65,18.65,0,0,0,5.15-2.48,17,17,0,0,0,3.79-3.67A22,22,0,0,0,265.46,59a24.79,24.79,0,0,0,1.45-4.83,26.88,26.88,0,0,0,.46-4.81,20.07,20.07,0,0,0-.16-2.5,15.49,15.49,0,0,0-.82-3.35c-.12-.32-.25-.64-.4-1a11.69,11.69,0,0,0-2.3-3.38,11.26,11.26,0,0,0-1.07-1.4l9.1,9.1c-.12.35-.23.71-.34,1.07-.19.64-.34,1.28-.47,1.94s-.19,1.1-.27,1.64a26.66,26.66,0,0,0-.22,3.31,17.58,17.58,0,0,0,.89,5.66,12.24,12.24,0,0,0,2.1,3.84,11.35,11.35,0,0,0,1.6,2.12,12.49,12.49,0,0,0,4.6,3,17.76,17.76,0,0,0,6.53,1.09,21.87,21.87,0,0,0,6.64-.93,18.72,18.72,0,0,0,5.14-2.48,16.49,16.49,0,0,0,3.78-3.67A21.17,21.17,0,0,0,304.26,59a24.79,24.79,0,0,0,1.45-4.83,26.88,26.88,0,0,0,.46-4.81,18.56,18.56,0,0,0-.26-3.14,15.38,15.38,0,0,0-.71-2.71,12.92,12.92,0,0,0-1.31-2.6,11.86,11.86,0,0,0-.73-1A10.69,10.69,0,0,0,302,38.3l9.92,9.92-.12.54-3.54,16.33-.76,3.52H309l-.14.65-.1.48h10.54l3.55-16.67a13.42,13.42,0,0,1,1.36-3.62,15.6,15.6,0,0,1,2.2-3.18A11.59,11.59,0,0,1,329.06,44a5.24,5.24,0,0,1,2.7-.85,3.93,3.93,0,0,1,.86.08l.78.44a4.3,4.3,0,0,1,.34,1.81,10.78,10.78,0,0,1-.2,1.71c-.13.75-.26,1.47-.4,2.18L329,68.61h1.49l-.24,1.13h10.51l3.45-16.67a13.57,13.57,0,0,1,1.37-3.66,16.3,16.3,0,0,1,2.24-3.16A12.27,12.27,0,0,1,350.53,44a5.23,5.23,0,0,1,2.67-.85,3.92,3.92,0,0,1,1.53.26,4.29,4.29,0,0,1,.45,2.07A10.53,10.53,0,0,1,355,47.2c-.14.75-.27,1.47-.4,2.18l-1.27,5.92-2.84,13.31H352l-.24,1.13h10.44l1.24-5.85,2.88-13.65c.09-.4.18-.88.29-1.44s.22-1.13.32-1.73.18-1.16.25-1.71a10.82,10.82,0,0,0,.1-1.31,10.24,10.24,0,0,0-1.44-5.7Z" transform="translate(-2.91 -3.99)"/><path class="cls-2" d="M232.55,105.25H209.77L172.52,68h0l-1-1-1.08-1.08,1.32,0,11.14-.38,9.26-.63,4.6-.32,3.71-13.38L199.19,39l4-2,.55-.27.2.21.34.38a9.86,9.86,0,0,1,1.11,1.6,11.34,11.34,0,0,1,2,3.82,18.27,18.27,0,0,1,.76,5.5,27.32,27.32,0,0,1-.4,4.43,25.28,25.28,0,0,1-1.36,5,23.46,23.46,0,0,1-2.62,4.93,18.53,18.53,0,0,1-4.14,4.26,19.07,19.07,0,0,1-3.44,2.05Z" transform="translate(-2.91 -3.99)"/><path class="cls-2" d="M212.28,64.73a9.8,9.8,0,0,1-.48-3.14c0-.49,0-1,.08-1.61s.13-1.22.22-1.87.19-1.3.31-2,.25-1.31.38-1.93c.06-.27.2-.94.42-2,0,0,0-.07,0-.1.23-1.11.53-2.48.87-4.1.06-.25.11-.51.17-.76l4,4,12-30.85.62-1.59-.34,1.59h1.09l-7.48,35.17c-.18.77-.36,1.63-.56,2.59a12.2,12.2,0,0,0-.29,2.48v.14l0,0a3.32,3.32,0,0,0,1.81.49,8.54,8.54,0,0,0,1.73-.18,9.09,9.09,0,0,0,1.6-.48c-.14.66-.28,1.32-.43,2a6.68,6.68,0,0,0,1.17-.38c-.28,1.32-.56,2.62-.82,3.91s-.54,2.59-.82,3.9c-.4.11-.86.22-1.37.33s-1.07.22-1.65.31-1.19.18-1.81.24-1.24.08-1.86.08a10.79,10.79,0,0,1-3.77-.58,7,7,0,0,1-2.59-1.61A6.23,6.23,0,0,1,213,66.32a.24.24,0,0,1,0-.08A6,6,0,0,1,212.28,64.73Z" transform="translate(-2.91 -3.99)"/><path class="cls-2" d="M267.37,49.38a26.88,26.88,0,0,1-.46,4.81A24.79,24.79,0,0,1,265.46,59a22,22,0,0,1-2.55,4.46,17,17,0,0,1-3.79,3.67A18.65,18.65,0,0,1,254,69.63a21.71,21.71,0,0,1-6.63.93,17.85,17.85,0,0,1-6.54-1.09,12.61,12.61,0,0,1-4.59-3,12.09,12.09,0,0,1-1.16-1.43c-.05-.08-.1-.14-.14-.22a.3.3,0,0,1-.08-.08,12.09,12.09,0,0,1-2.7-4.52,17.29,17.29,0,0,1-.89-5.65,25.68,25.68,0,0,1,.5-5,22.3,22.3,0,0,1,1.52-4.86,21.14,21.14,0,0,1,2.66-4.4,17.36,17.36,0,0,1,3.85-3.59,19.21,19.21,0,0,1,5.12-2.42l.54-.15.67-.17,1.65,1.65,1.56,1.57-11.92,8.43s1.27,14.49,1.27,15.19,8.89,6.55,8.89,6.55l14-5.66.63-17.17-.39-7,0-.68h0l.13.13.74.73,0,0a11.26,11.26,0,0,1,1.07,1.4,11.69,11.69,0,0,1,2.3,3.38c.15.31.28.63.4,1a15.49,15.49,0,0,1,.82,3.35A20.07,20.07,0,0,1,267.37,49.38Z" transform="translate(-2.91 -3.99)"/><path class="cls-2" d="M306.17,49.38a26.88,26.88,0,0,1-.46,4.81A24.79,24.79,0,0,1,304.26,59a21.17,21.17,0,0,1-2.56,4.46,16.49,16.49,0,0,1-3.78,3.67,18.72,18.72,0,0,1-5.14,2.48,21.87,21.87,0,0,1-6.64.93,17.76,17.76,0,0,1-6.53-1.09,12.49,12.49,0,0,1-4.6-3,11.35,11.35,0,0,1-1.6-2.12,12.24,12.24,0,0,1-2.1-3.84,17.58,17.58,0,0,1-.89-5.66,26.66,26.66,0,0,1,.22-3.31c.08-.54.17-1.09.27-1.64s.28-1.3.47-1.94c.11-.36.22-.72.34-1.07L272.83,48l.57.56,6.54,16.81,8.85.63,11.47-5.14-.64-17.72,1-5.54.11-.59,0,0L302,38.3A10.69,10.69,0,0,1,303.16,40a11.86,11.86,0,0,1,.73,1,12.92,12.92,0,0,1,1.31,2.6,15.38,15.38,0,0,1,.71,2.71A18.56,18.56,0,0,1,306.17,49.38Z" transform="translate(-2.91 -3.99)"/><path class="cls-2" d="M329.06,44a11.59,11.59,0,0,0-2.67,2.26,15.6,15.6,0,0,0-2.2,3.18,13.42,13.42,0,0,0-1.36,3.62l-3.55,16.67H308.74l.1-.48.14-.65h-1.49l.76-3.52,3.54-16.33.12-.54,3.67,3.67,8.78-5.8L330.51,42l2.11,1.21a3.93,3.93,0,0,0-.86-.08A5.24,5.24,0,0,0,329.06,44Z" transform="translate(-2.91 -3.99)"/><path class="cls-2" d="M367.24,44.05a10.82,10.82,0,0,1-.1,1.31c-.07.55-.15,1.12-.25,1.71s-.21,1.17-.32,1.73-.2,1-.29,1.44L363.4,63.89l-1.24,5.85H351.72l.24-1.13h-1.48l2.84-13.31,1.27-5.92c.13-.71.26-1.43.4-2.18a10.53,10.53,0,0,0,.19-1.71,4.29,4.29,0,0,0-.45-2.07,3.92,3.92,0,0,0-1.53-.26,5.23,5.23,0,0,0-2.67.85,12.27,12.27,0,0,0-2.68,2.24,16.3,16.3,0,0,0-2.24,3.16,13.57,13.57,0,0,0-1.37,3.66l-3.45,16.67H330.28l.24-1.13H329l4.11-19.23c.14-.71.27-1.43.4-2.18a10.78,10.78,0,0,0,.2-1.71,4.3,4.3,0,0,0-.34-1.81l.87.5,6,3.42,8-4,3-1.51,5.52-2.76,6.05-3.45.34-.19.79.8,1.85,1.85A10.24,10.24,0,0,1,367.24,44.05Z" transform="translate(-2.91 -3.99)"/><path class="cls-3" d="M103.87,20.24a5.13,5.13,0,0,0-1.21-1.6,5.69,5.69,0,0,0-1.83-1.05,7.25,7.25,0,0,0-1-.26l-.2,0-.2,0a1.77,1.77,0,0,1-.21,0H99l-.24,0h-.25a1.26,1.26,0,0,1-.28-.05,1.53,1.53,0,0,1-.29-.07,1.17,1.17,0,0,1-.28-.13l-.13-.08-.13-.1-.12-.12-.08-.09h0a0,0,0,0,1,0,0l0,0a1.11,1.11,0,0,1-.11-.16,1.72,1.72,0,0,1-.09-.19l-.09-.22a.14.14,0,0,0,0-.06.6.6,0,0,0-.06-.19c0-.1,0-.19,0-.3s0-.1,0-.16a1,1,0,0,1,0-.17v-.39l0-.22a1.13,1.13,0,0,1,0-.25,1.18,1.18,0,0,1,0-.25,2.86,2.86,0,0,1,.07-.28c0-.05,0-.1,0-.16s0-.11,0-.16a1.42,1.42,0,0,1,.05-.16L97.1,13a1.15,1.15,0,0,0,.06-.17l.08-.18a1.46,1.46,0,0,1,.07-.19,1.63,1.63,0,0,0,.09-.19,1.13,1.13,0,0,0,.09-.2,2.12,2.12,0,0,0,.11-.21,2.12,2.12,0,0,1,.11-.21,2.12,2.12,0,0,1,.11-.21l.12-.22.13-.22c0-.08.09-.15.14-.23l.14-.22a1.76,1.76,0,0,1,.14-.23l.16-.23.15-.22.14-.21a1.91,1.91,0,0,1,.15-.21c0-.07.09-.14.14-.2s.09-.13.14-.2l.13-.18.12-.17.12-.16.11-.15.1-.14.18-.25.13-.22a1,1,0,0,0,.09-.17,1.47,1.47,0,0,0,.06-.14.3.3,0,0,0,0-.19,0,0,0,0,0,0,0,.16.16,0,0,0-.08,0,.9.9,0,0,0-.21,0,1.68,1.68,0,0,0-.29.1l-.17.08-.19.1-.22.13L99,7.79,98.76,8l-.13.1a.45.45,0,0,1-.13.1.63.63,0,0,0-.12.11l-.14.11-.14.11L98,8.6a.58.58,0,0,1-.14.13l-.14.14L97.53,9a1.06,1.06,0,0,1-.15.15l-.15.16c-.06,0-.1.1-.15.15s-.11.11-.16.16a1.14,1.14,0,0,0-.15.17l-.16.17-.16.18-.15.17-.14.18a1.15,1.15,0,0,0-.14.17l-.15.18-.14.18-.14.18-.14.18a1.88,1.88,0,0,1-.12.18,1.09,1.09,0,0,1-.13.17l-.12.18a1,1,0,0,0-.11.17l-.12.16-.11.17c0,.05-.07.1-.1.16a1.3,1.3,0,0,0-.1.15l-.1.16-.09.15-.09.14-.07.14s0,.1-.08.14l-.15.27c0,.09-.09.17-.13.25l-.12.23a2.56,2.56,0,0,0-.11.24,1.36,1.36,0,0,0-.1.21l-.09.21-.09.2c0,.07,0,.13-.08.19a1.67,1.67,0,0,0-.08.2l-.08.18-.07.18a1.11,1.11,0,0,1-.07.16l-.06.16-.06.16,0,.14c0,.1-.07.19-.1.28l-.09.26c0,.09,0,.17-.07.25a2.17,2.17,0,0,0-.07.24l-.06.23c0,.07,0,.15,0,.22s0,.14,0,.22,0,.14,0,.21a1.42,1.42,0,0,0,0,.2,1.52,1.52,0,0,0,0,.21,1.42,1.42,0,0,0,0,.2l0,.2c0,.06,0,.13,0,.19a1.36,1.36,0,0,0,0,.2l0,.19c0,.06,0,.12,0,.19s0,.13,0,.19,0,.12,0,.19a2313647235684.73,2313647235684.73,0,0,1,0,.36,1.21,1.21,0,0,0,0,.19A1,1,0,0,0,92,21v.18a.91.91,0,0,0,0,.17,1.09,1.09,0,0,0,0,.18v.34a1.15,1.15,0,0,1,0,.18,1,1,0,0,1,0,.17l0,.18a1,1,0,0,0,0,.17.88.88,0,0,0,0,.17,1,1,0,0,0,0,.17s0,.1,0,.15l0,.16a2.64,2.64,0,0,0,.07.3,2.06,2.06,0,0,0,.07.29,2.29,2.29,0,0,0,.08.28c0,.09.06.18.1.27l.11.26.12.25.14.24.13.21s0,0,0,0l.15.22.17.21c0,.07.11.13.17.2s.12.13.19.19l.19.18.21.18.22.16.22.15.24.14,0,0,.19.1.25.13.26.11.27.1.22.07.22.07.23.05.22.05.24,0,.23,0,.24,0,.25,0h.75a7.09,7.09,0,0,0,2.19-.39,5.51,5.51,0,0,0,1-.47,5.2,5.2,0,0,0,.93-.66,5.57,5.57,0,0,0,1.34-1.77,5.29,5.29,0,0,0,.49-2.3A4.55,4.55,0,0,0,103.87,20.24Z" transform="translate(-2.91 -3.99)"/><path class="cls-3" d="M87.12,19.51l-.39,1.87,0,.22-1.4,6.7H68.64L66.21,39.7H81.52l-.4,1.87-1.51,6.89H64.33l-1.5,7.12L60.47,66.74H49.74l4.25-20,5.35-25.16,0-.23a2.5,2.5,0,0,1,2.41-1.84Z" transform="translate(-2.91 -3.99)"/><path class="cls-4" d="M105.37,19.63a4.87,4.87,0,0,0-1.22-1.6A5.48,5.48,0,0,0,102.32,17a6.73,6.73,0,0,0-1-.26l-.2,0-.2,0a1.52,1.52,0,0,1-.21,0h-.24l-.24,0H100a1.51,1.51,0,0,1-.28-.05,1.43,1.43,0,0,1-.28-.07,1.11,1.11,0,0,1-.27-.12L99,16.26l-.13-.1L98.79,16a.83.83,0,0,1-.11-.15.46.46,0,0,1-.11-.16.85.85,0,0,1-.1-.19,2,2,0,0,1-.09-.22c0-.08,0-.16-.08-.25s0-.19,0-.3a.81.81,0,0,1,0-.16,1,1,0,0,1,0-.17v-.39a1.8,1.8,0,0,0,0-.22l0-.24a2.38,2.38,0,0,1,0-.26c0-.09,0-.18.07-.28s0-.1,0-.16a.76.76,0,0,0,.06-.16,1,1,0,0,1,.05-.16l.06-.17a1.15,1.15,0,0,0,.06-.17l.08-.18c0-.06.05-.12.08-.19s.05-.13.08-.19l.09-.2a2.12,2.12,0,0,0,.11-.21,2.12,2.12,0,0,1,.11-.21,2.12,2.12,0,0,1,.11-.21l.12-.22c0-.08.09-.15.13-.22s.09-.15.14-.23l.14-.22c.05-.08.09-.16.14-.23l.16-.23.15-.22.14-.21a1.91,1.91,0,0,1,.15-.21c0-.07.09-.14.14-.2s.09-.13.14-.2l.13-.18.12-.17.12-.16.11-.15.1-.14.18-.26c.05-.07.09-.15.13-.21a1,1,0,0,0,.09-.17,1.47,1.47,0,0,0,.06-.14.27.27,0,0,0,0-.18.15.15,0,0,0-.11-.09.9.9,0,0,0-.21,0,1.68,1.68,0,0,0-.29.1l-.17.08-.19.11-.22.12-.22.15-.12.08-.12.09-.13.09-.12.1-.14.11-.13.11-.14.11L99.46,8a.86.86,0,0,1-.14.13l-.14.14A.93.93,0,0,0,99,8.4l-.16.14-.15.16-.16.15L98.42,9l-.15.17-.17.17L98,9.53l-.15.17-.14.18a1.15,1.15,0,0,0-.14.17l-.15.18-.14.18-.14.18-.13.18-.13.18c0,.06-.08.12-.13.17l-.12.18a1,1,0,0,0-.11.17,1.67,1.67,0,0,0-.12.16l-.11.17a.86.86,0,0,0-.1.16l-.11.15-.09.16-.09.15-.08.14a.7.7,0,0,0-.08.14c0,.05,0,.1-.08.14l-.15.27c0,.09-.09.17-.13.25l-.12.23-.12.24L95,14l-.09.21a.88.88,0,0,0-.09.2,1.11,1.11,0,0,1-.09.19c0,.07,0,.13-.07.2l-.08.18-.07.18c0,.05,0,.11-.07.16l-.06.16-.06.16a.84.84,0,0,1-.06.14l-.09.28-.09.26c0,.09,0,.17-.07.25a2.17,2.17,0,0,0-.07.24l-.06.23c0,.07,0,.15,0,.22s0,.14,0,.22,0,.14,0,.21a1.77,1.77,0,0,0,0,.2c0,.07,0,.14,0,.21l0,.2,0,.2c0,.06,0,.13,0,.19l0,.2a1.23,1.23,0,0,1,0,.19c0,.06,0,.13,0,.19s0,.13,0,.18,0,.13,0,.2a2313647235684.71,2313647235684.71,0,0,1,0,.36,1.21,1.21,0,0,0,0,.19,1.09,1.09,0,0,0,0,.18v.18a.91.91,0,0,0,0,.17,1.09,1.09,0,0,0,0,.18v.34a1.15,1.15,0,0,1,0,.18,1,1,0,0,1,0,.17l0,.18a1,1,0,0,0,0,.17.88.88,0,0,0,0,.17,1,1,0,0,0,0,.17c0,.05,0,.1,0,.15l0,.16.06.31c0,.1,0,.19.08.28a2.29,2.29,0,0,0,.08.28c0,.09.06.18.1.27L94,24l.12.25.14.24.15.23c0,.07.1.15.15.22l.17.21c0,.07.11.13.17.2s.12.13.19.19l.19.18.21.18.21.16.23.15a1.38,1.38,0,0,0,.24.14l.24.13.25.13.26.11.27.1.22.07.22.07.22.05.23.05.24,0,.23,0,.24,0,.25,0h.75a7,7,0,0,0,1.74-.25,3.88,3.88,0,0,0,.45-.14,5.85,5.85,0,0,0,2-1.13,5.57,5.57,0,0,0,1.34-1.77,5.15,5.15,0,0,0,.49-2.3A4.55,4.55,0,0,0,105.37,19.63Z" transform="translate(-2.91 -3.99)"/><path class="cls-3" d="M134.16,32.61l-.25,1.17-1.86,8.81H132a8.63,8.63,0,0,0-1.77-.65,7.4,7.4,0,0,0-2-.3h-.41a6.79,6.79,0,0,0-3.08.86c-.21.12-.41.24-.61.38a9.59,9.59,0,0,0-2.12,2,14,14,0,0,0-2,3.48,24.81,24.81,0,0,0-1.3,4.24c-.21,1.09-.54,2.52-.9,4l-.19.78-.19.78-.31,1.3-2,8H95.41c-.37,0-.78,0-1.2,0a11.82,11.82,0,0,1-3.78-.58,7.14,7.14,0,0,1-1.49-.74,5.48,5.48,0,0,1-1.09-.87,6.34,6.34,0,0,1-1.5-2.48,9.8,9.8,0,0,1-.48-3.14c0-.48,0-1,.08-1.61s.13-1.22.22-1.87.19-1.3.31-2,.25-1.31.38-1.93c.09-.37.23-1.06.45-2.06s.44-2.14.72-3.44.56-2.66.87-4.1.6-2.8.87-4.1c.2-.91.38-1.75.54-2.51.06-.32.13-.63.19-.93s.14-.69.2-1L90.94,33h10.55l-.32,1.5L97.47,52c-.18.77-.37,1.63-.56,2.58a12.46,12.46,0,0,0-.3,2.49,1.89,1.89,0,0,0,.79,1.75,2.48,2.48,0,0,0,.89.36,9.19,9.19,0,0,0,.92.13c1.62.17,2.43.25,2.83.26,1.24,0,2.43,0,3.48-.11h.07c.36,0,.88-.08,1.11-.36a1.79,1.79,0,0,0,.26-.5,2.52,2.52,0,0,0,.13-.6c0-.19.07-.38.09-.58.17-1,2.08-9.52,2.63-12.09a.15.15,0,0,1,0-.07c.15-.7.37-1.8.64-3.2.21-1.09.4-2.18.59-3.24s.36-2.1.5-3.08.25-1.89.34-2.7H122.2c0,.48-.1,1-.16,1.5,0,.15,0,.32-.05.48-.08.68-.16,1.33-.23,1.95s-.16,1.19-.23,1.7-.14.9-.18,1.19h.13a25.34,25.34,0,0,1,2.13-3.38,15.5,15.5,0,0,1,2.16-2.34A7.84,7.84,0,0,1,131,32.19a8.44,8.44,0,0,1,1.67.16C133.22,32.46,133.72,32.55,134.16,32.61Z" transform="translate(-2.91 -3.99)"/><path class="cls-3" d="M164.56,38.15A7.69,7.69,0,0,0,163.28,36c-.13-.16-.28-.32-.42-.47l-.27-.27-.2-.19A10.65,10.65,0,0,0,158.56,33a17.62,17.62,0,0,0-5.66-.8,19.35,19.35,0,0,0-13.77,5.41l-.34.32q-.33.33-.63.66a20.88,20.88,0,0,0-4.09,6.82,23.65,23.65,0,0,0-1.43,8.2,17.71,17.71,0,0,0,.82,5.41,11.81,11.81,0,0,0,2.59,4.43,9.53,9.53,0,0,0,1.29,1.17,13.52,13.52,0,0,0,3.21,1.84,17.19,17.19,0,0,0,6.55,1.12,25.93,25.93,0,0,0,3.55-.23,27.57,27.57,0,0,0,3.25-.62,28.3,28.3,0,0,0,2.85-.89,22.07,22.07,0,0,0,2.34-1l1.11-5.35.51-2.43a22.44,22.44,0,0,1-2.65,1.27c-1,.38-1.92.71-2.89,1a23.12,23.12,0,0,1-2.85.62,16.24,16.24,0,0,1-2.58.22,9.23,9.23,0,0,1-3.3-.51,6.61,6.61,0,0,1-1.16-.58,4.87,4.87,0,0,1-1-.76,4.65,4.65,0,0,1-1.14-1.84,6.59,6.59,0,0,1-.33-2v-.31a1.21,1.21,0,0,1,.07-.35,56.72,56.72,0,0,0,10.67-1,21.9,21.9,0,0,0,6.87-2.48,9.66,9.66,0,0,0,3.69-3.76,10.18,10.18,0,0,0,.89-2.59,11.14,11.14,0,0,0,.21-2.19A9.43,9.43,0,0,0,164.56,38.15Zm-21,9.15a13.34,13.34,0,0,1,1.18-3.3,10.43,10.43,0,0,1,1.9-2.64,8.5,8.5,0,0,1,2.44-1.73,3.88,3.88,0,0,1,.56-.23,5.22,5.22,0,0,1,.56-.18,6.57,6.57,0,0,1,1.66-.21,3.68,3.68,0,0,1,2.55.8,2.72,2.72,0,0,1,.69.92,2.89,2.89,0,0,1,.22,1.11c0,1.8-1,3.17-2.91,4.12a18,18,0,0,1-6.93,1.33C144.89,47.3,144.25,47.32,143.58,47.3Z" transform="translate(-2.91 -3.99)"/><path class="cls-5" d="M207,43.64a14.36,14.36,0,0,0-.53-2.34,13.29,13.29,0,0,0-1-2.35,9.86,9.86,0,0,0-1.11-1.6L204,37l-.2-.21A8.55,8.55,0,0,0,201.11,35a10.3,10.3,0,0,0-4.1-.8,12.29,12.29,0,0,0-3.29.43,11.85,11.85,0,0,0-2.82,1.22,13.11,13.11,0,0,0-2.39,1.88c-.15.16-.31.31-.45.47a21,21,0,0,0-1.59,1.9h-.26c.11-.37.23-.83.36-1.37s.27-1.1.41-1.69.29-1.19.43-1.78.26-1.12.35-1.58l2.84-13.38.31-1.48h-10.5l-6,28.31-.62,3L170.43,65.9c.37.23.76.46,1.17.67q.9.47,1.92.87l.25.09a27.48,27.48,0,0,0,3.33,1,28,28,0,0,0,3.82.73,29.92,29.92,0,0,0,3.87.25,25.86,25.86,0,0,0,7.5-1l.47-.14c.75-.25,1.46-.53,2.14-.83a18.9,18.9,0,0,0,7.91-6.45,24.19,24.19,0,0,0,2.62-4.93,25.28,25.28,0,0,0,1.36-5,27.42,27.42,0,0,0,.4-4.43A19.64,19.64,0,0,0,207,43.64Zm-20.11,1.89a9.72,9.72,0,0,1,2.47-2.45,5.14,5.14,0,0,1,3-.92,3.82,3.82,0,0,1,3.42,1.56,5,5,0,0,1,.46.85,8.53,8.53,0,0,1,.6,3.39,17.62,17.62,0,0,1-.32,3.25,18,18,0,0,1-.92,3.28,16.17,16.17,0,0,1-1.5,3A12,12,0,0,1,192,60a9.44,9.44,0,0,1-2.59,1.68,2.85,2.85,0,0,1-.31.12,7.7,7.7,0,0,1-2.78.49H186a11.63,11.63,0,0,1-2.18-.25c-.25,0-.47-.1-.68-.16a6.29,6.29,0,0,1-1.22-.45l.57-2.66.62-2.95.56-2.63A23.91,23.91,0,0,1,184.92,49,17.24,17.24,0,0,1,186.85,45.53Z" transform="translate(-2.91 -3.99)"/><path class="cls-5" d="M220.33,18.8c-.06.29-.21,1-.44,2.1s-.53,2.47-.88,4.09-.73,3.44-1.15,5.43-.85,4-1.3,6.08-.88,4.11-1.3,6.1c-.36,1.68-.69,3.23-1,4.66-.06.25-.11.51-.17.76-.34,1.62-.64,3-.87,4.1,0,0,0,.06,0,.1-.22,1.05-.36,1.72-.42,2-.13.62-.26,1.26-.38,1.93s-.23,1.33-.31,2-.16,1.27-.22,1.87-.08,1.12-.08,1.61a9.8,9.8,0,0,0,.48,3.14,6,6,0,0,0,.73,1.51,5.91,5.91,0,0,0,.76,1,7,7,0,0,0,2.59,1.61,10.79,10.79,0,0,0,3.77.58c.62,0,1.23,0,1.87-.09s1.22-.13,1.8-.23,1.13-.2,1.65-.31,1-.22,1.37-.33c.28-1.32.56-2.62.82-3.9l.24-1.12c.05-.28.11-.55.16-.83.15-.64.29-1.3.43-2a9.09,9.09,0,0,1-1.6.48,8.54,8.54,0,0,1-1.73.18,3.32,3.32,0,0,1-1.81-.49l0,0a1.91,1.91,0,0,1-.75-1.72,12.2,12.2,0,0,1,.29-2.48c.2-1,.39-1.82.57-2.59l6.83-32.14.3-1.45.34-1.59Z" transform="translate(-2.91 -3.99)"/><path class="cls-5" d="M265.41,43.07a13.15,13.15,0,0,0-.39-1.26,12.8,12.8,0,0,0-1.33-2.61,11.26,11.26,0,0,0-1.07-1.4l0,0c-.13-.15-.27-.29-.41-.44s-.22-.19-.33-.29h0l-.12-.11a12.75,12.75,0,0,0-4.13-2.45,17.87,17.87,0,0,0-6.24-1,22.8,22.8,0,0,0-5.26.57l-.67.17-.54.15a19.21,19.21,0,0,0-5.12,2.42,17.36,17.36,0,0,0-3.85,3.59,21.14,21.14,0,0,0-2.66,4.4,22.3,22.3,0,0,0-1.52,4.86,25.68,25.68,0,0,0-.5,5,17.29,17.29,0,0,0,.89,5.65,12.09,12.09,0,0,0,2.7,4.52.3.3,0,0,0,.08.08,3.83,3.83,0,0,0,.28.29,12.7,12.7,0,0,0,4.23,2.63,14.71,14.71,0,0,0,2.8.77l.07,0a21.14,21.14,0,0,0,3.67.3,22.11,22.11,0,0,0,6.64-.92,18.89,18.89,0,0,0,5.14-2.49,16.53,16.53,0,0,0,3.79-3.67,21.64,21.64,0,0,0,2.55-4.47,23.83,23.83,0,0,0,1.45-4.82,25.85,25.85,0,0,0,.45-4.39c0-.14,0-.28,0-.42A17.17,17.17,0,0,0,265.41,43.07Zm-23.1,6.83A15.36,15.36,0,0,1,244,45.69a10.09,10.09,0,0,1,2.75-3.07,6.12,6.12,0,0,1,3.7-1.19,4.53,4.53,0,0,1,2.14.48,4.64,4.64,0,0,1,1.57,1.32,5.51,5.51,0,0,1,.54.87,6.41,6.41,0,0,1,.43,1.14,9.37,9.37,0,0,1,.33,2.55,20.35,20.35,0,0,1-.56,4.71,15,15,0,0,1-1.67,4.21,9.67,9.67,0,0,1-2.73,3,6.32,6.32,0,0,1-3.76,1.15,4.55,4.55,0,0,1-2.94-1,4.13,4.13,0,0,1-.71-.68,7,7,0,0,1-1.4-4.64A18.72,18.72,0,0,1,242.31,49.9Z" transform="translate(-2.91 -3.99)"/><path class="cls-3" d="M267.21,46.88a15.49,15.49,0,0,0-.82-3.35c-.12-.32-.25-.64-.4-1a11.69,11.69,0,0,0-2.3-3.38,1.58,1.58,0,0,0-.12-.15,11.43,11.43,0,0,0-1.8-1.45A12.59,12.59,0,0,0,259,36.19a17.91,17.91,0,0,0-6.24-1,23.63,23.63,0,0,0-5,.5l-.68.16-.8.23a19.06,19.06,0,0,0-5.12,2.42,17.18,17.18,0,0,0-3.86,3.59,21.1,21.1,0,0,0-2.65,4.4,22.88,22.88,0,0,0-1.53,4.86,25.65,25.65,0,0,0-.49,5,17.29,17.29,0,0,0,.89,5.65,12,12,0,0,0,1.4,2.88c0,.08.09.14.14.22a12.09,12.09,0,0,0,1.16,1.43,12.61,12.61,0,0,0,4.59,3,17.85,17.85,0,0,0,6.54,1.09,21.71,21.71,0,0,0,6.63-.93,18.65,18.65,0,0,0,5.15-2.48,17,17,0,0,0,3.79-3.67A22,22,0,0,0,265.46,59a24.79,24.79,0,0,0,1.45-4.83,26.88,26.88,0,0,0,.46-4.81A20.07,20.07,0,0,0,267.21,46.88ZM255.56,45a6.06,6.06,0,0,1,1,2,9.37,9.37,0,0,1,.33,2.55,20.35,20.35,0,0,1-.56,4.71,14.81,14.81,0,0,1-1.67,4.2,9.45,9.45,0,0,1-2.73,3,6.34,6.34,0,0,1-3.77,1.16,4.55,4.55,0,0,1-3.64-1.65,4.63,4.63,0,0,1-.67-1,7.94,7.94,0,0,1-.73-3.6,19.24,19.24,0,0,1,.59-4.68,15.77,15.77,0,0,1,1.72-4.22,10.17,10.17,0,0,1,2.75-3.06,6.12,6.12,0,0,1,3.7-1.18,4.66,4.66,0,0,1,2.14.47,4.55,4.55,0,0,1,.73.47A4.83,4.83,0,0,1,255.56,45Z" transform="translate(-2.91 -3.99)"/><path class="cls-5" d="M305.14,47a16.27,16.27,0,0,0-.94-4.87c-.14-.35-.28-.71-.44-1a9.8,9.8,0,0,0-.6-1.11A10.69,10.69,0,0,0,302,38.3c-.2-.23-.41-.46-.62-.67s-.42-.41-.64-.59l0,0a12.39,12.39,0,0,0-3.92-2.26,17.91,17.91,0,0,0-6.24-1,22,22,0,0,0-6.47.89A18.78,18.78,0,0,0,279,37.07a16.86,16.86,0,0,0-3.85,3.58,20.72,20.72,0,0,0-2.66,4.4c-.26.61-.5,1.22-.72,1.85-.12.35-.23.71-.34,1.07-.19.64-.34,1.28-.47,1.94s-.19,1.1-.27,1.64a26.66,26.66,0,0,0-.22,3.31,17.58,17.58,0,0,0,.89,5.66,12.24,12.24,0,0,0,2.1,3.84c.19.23.39.46.6.68a12.3,12.3,0,0,0,4.59,3,17.85,17.85,0,0,0,6.54,1.09,22.2,22.2,0,0,0,6.64-.92,19,19,0,0,0,5.14-2.49A16.32,16.32,0,0,0,300.7,62a20.68,20.68,0,0,0,2.56-4.46,24.09,24.09,0,0,0,1.45-4.82,26.88,26.88,0,0,0,.46-4.81C305.17,47.62,305.16,47.29,305.14,47Zm-23.66,3.22A15.77,15.77,0,0,1,283.2,46,10.17,10.17,0,0,1,286,42.91a6.15,6.15,0,0,1,3.7-1.19,4.6,4.6,0,0,1,2.15.48,4.7,4.7,0,0,1,1.56,1.32,5.36,5.36,0,0,1,.58.95,7.77,7.77,0,0,1,.39,1.06,9.37,9.37,0,0,1,.33,2.55,20.35,20.35,0,0,1-.56,4.71,15.41,15.41,0,0,1-1.66,4.2,9.74,9.74,0,0,1-2.74,3,6.33,6.33,0,0,1-3.77,1.15,4.52,4.52,0,0,1-3.37-1.36l-.27-.29a7,7,0,0,1-1.4-4.65A19.22,19.22,0,0,1,281.48,50.19Z" transform="translate(-2.91 -3.99)"/><path class="cls-3" d="M305.91,46.24a15.38,15.38,0,0,0-.71-2.71,12.92,12.92,0,0,0-1.31-2.6,11.86,11.86,0,0,0-.73-1,9.71,9.71,0,0,0-.8-.9,11.35,11.35,0,0,0-1.77-1.44,13,13,0,0,0-2.81-1.42,17.91,17.91,0,0,0-6.24-1,22,22,0,0,0-6.47.89A19.06,19.06,0,0,0,280,38.49a16.92,16.92,0,0,0-3.85,3.59,20.72,20.72,0,0,0-2.66,4.4c-.22.5-.42,1-.61,1.53-.12.35-.24.7-.35,1.06a21.52,21.52,0,0,0-.57,2.27c-.1.53-.19,1.06-.26,1.58a25.94,25.94,0,0,0-.23,3.38,17.56,17.56,0,0,0,.89,5.65,12.88,12.88,0,0,0,1.1,2.41,11.35,11.35,0,0,0,1.6,2.12,12.49,12.49,0,0,0,4.6,3,17.76,17.76,0,0,0,6.53,1.09,21.87,21.87,0,0,0,6.64-.93,18.72,18.72,0,0,0,5.14-2.48,16.49,16.49,0,0,0,3.78-3.67A21.17,21.17,0,0,0,304.26,59a24.79,24.79,0,0,0,1.45-4.83,26.88,26.88,0,0,0,.46-4.81A18.56,18.56,0,0,0,305.91,46.24ZM294.36,45a5.88,5.88,0,0,1,1,2,9.37,9.37,0,0,1,.33,2.55,20.35,20.35,0,0,1-.56,4.71,15.31,15.31,0,0,1-1.52,3.94c-.05.09-.09.18-.14.26a9.59,9.59,0,0,1-2.74,3,5.72,5.72,0,0,1-1.18.66,6.64,6.64,0,0,1-2.59.5,4.55,4.55,0,0,1-3.64-1.65,5.16,5.16,0,0,1-.73-1.14,8.31,8.31,0,0,1-.67-3.5,19.24,19.24,0,0,1,.59-4.68,15.77,15.77,0,0,1,1.72-4.22A10,10,0,0,1,287,44.34a6.12,6.12,0,0,1,3.7-1.18,4.73,4.73,0,0,1,2.15.47,4.67,4.67,0,0,1,1.14.84C294.08,44.62,294.23,44.78,294.36,45Z" transform="translate(-2.91 -3.99)"/><path class="cls-5" d="M364.8,37.63a5.88,5.88,0,0,0-.63-.91,1,1,0,0,0-.13-.16l-.18-.21a6.19,6.19,0,0,0-.7-.65,8.79,8.79,0,0,0-5.61-1.64,12.56,12.56,0,0,0-3.69.56,15.57,15.57,0,0,0-3.49,1.58,18.56,18.56,0,0,0-3.16,2.44,21.53,21.53,0,0,0-1.88,2c-.3.35-.58.71-.85,1.09a9.24,9.24,0,0,0-2-5.3c-.11-.12-.22-.25-.34-.37q-2-2-6-2a10.77,10.77,0,0,0-3.37.56,15.47,15.47,0,0,0-3.25,1.53,19.21,19.21,0,0,0-3,2.31c-.38.36-.76.73-1.12,1.12-.54.57-1.05,1.17-1.53,1.79h-.13c0-.2.1-.53.16-1s.14-1,.22-1.63.15-1.26.23-1.93l.09-.81.12-1.12H314.31c-.07.55-.16,1.23-.28,2s-.26,1.67-.42,2.6-.33,1.91-.52,2.93l-.6,3.05-.58,2.73-.12.54-3.54,16.33-.76,3.52H318L321.58,52q.15-.66.36-1.32a13.67,13.67,0,0,1,1-2.31,17.28,17.28,0,0,1,1.42-2.23c.25-.33.51-.65.78-1A13,13,0,0,1,327,43.42c.26-.19.53-.37.8-.53a5.26,5.26,0,0,1,2.7-.86,3,3,0,0,1,2.42.91,2.9,2.9,0,0,1,.35.49,1.15,1.15,0,0,1,.12.25,4.3,4.3,0,0,1,.34,1.81,10.78,10.78,0,0,1-.2,1.71c-.13.75-.26,1.47-.4,2.18L329,68.61h10.51L343,52a13.1,13.1,0,0,1,1.36-3.66,16.12,16.12,0,0,1,2.24-3.16,12.17,12.17,0,0,1,1.64-1.52c.14-.12.3-.23.45-.34l.6-.38a5.57,5.57,0,0,1,2-.79A3.39,3.39,0,0,1,352,42a3.88,3.88,0,0,1,1.65.32,2.34,2.34,0,0,1,.79.59,2.77,2.77,0,0,1,.34.48,4.29,4.29,0,0,1,.45,2.07A10.53,10.53,0,0,1,355,47.2c-.14.75-.27,1.47-.4,2.18l-1.27,5.92-2.84,13.31h10.43l2.31-10.91L365,49.12q.14-.6.3-1.44c.11-.56.21-1.13.31-1.73s.18-1.17.25-1.71.1-1,.1-1.32A10.59,10.59,0,0,0,364.8,37.63Z" transform="translate(-2.91 -3.99)"/><path class="cls-3" d="M365.8,38.35s0,0,0,0a7.14,7.14,0,0,0-.68-.86.74.74,0,0,0-.13-.12,5.47,5.47,0,0,0-.94-.79L364,36.5a6.4,6.4,0,0,0-1.13-.61,10.36,10.36,0,0,0-4-.71,12.56,12.56,0,0,0-3.69.56,15.61,15.61,0,0,0-3.49,1.59,19,19,0,0,0-3.16,2.43,23.47,23.47,0,0,0-2.73,3.13,12.23,12.23,0,0,0-.4-2.21,8,8,0,0,0-1.94-3.46,6,6,0,0,0-.91-.75,9,9,0,0,0-5.05-1.29,10.72,10.72,0,0,0-3.37.56,16,16,0,0,0-3.25,1.53,19.84,19.84,0,0,0-3,2.31,23,23,0,0,0-2.65,2.92H325c0-.2.1-.54.16-1s.14-1,.21-1.63c0-.1,0-.19,0-.28.07-.53.13-1.07.2-1.64s.15-1.32.21-1.94H315.56c-.07.56-.17,1.23-.28,2s-.26,1.66-.42,2.59-.33,1.92-.52,2.94-.4,2-.6,3l-.61,2.83L313,50l-4,18.63-.14.65-.1.48h10.54l3.55-16.67a13.42,13.42,0,0,1,1.36-3.62,15.6,15.6,0,0,1,2.2-3.18A11.59,11.59,0,0,1,329.06,44a5.24,5.24,0,0,1,2.7-.85,3.93,3.93,0,0,1,.86.08,2.67,2.67,0,0,1,.66.19,2.44,2.44,0,0,1,.9.63.94.94,0,0,1,.09.12,3.76,3.76,0,0,1,.72,2.43,10.78,10.78,0,0,1-.2,1.71c-.13.75-.26,1.48-.4,2.18l-3.87,18.11-.24,1.13h10.51l3.45-16.67a13.57,13.57,0,0,1,1.37-3.66,16.3,16.3,0,0,1,2.24-3.16A12.27,12.27,0,0,1,350.53,44a5.23,5.23,0,0,1,2.67-.85,3.92,3.92,0,0,1,1.53.26,2.46,2.46,0,0,1,.91.64,3.76,3.76,0,0,1,.79,2.55,11.81,11.81,0,0,1-.19,1.71c-.14.75-.27,1.48-.41,2.18l-.29,1.38L352,68.61l-.24,1.13h10.44l1.24-5.85,2.88-13.65c.09-.4.18-.88.29-1.44s.22-1.13.32-1.73.18-1.16.25-1.71a10.82,10.82,0,0,0,.1-1.31A10.24,10.24,0,0,0,365.8,38.35Z" transform="translate(-2.91 -3.99)"/><path class="cls-6" d="M102.22,21.54l.06.14s0,.09,0,.14,0,.09,0,.14l0,.15,0,.15a1812005463796.88,1812005463796.88,0,0,0,0,.32c0,.05,0,.11,0,.16s0,.11,0,.16a1972936801908.76,1972936801908.76,0,0,0-.08.32l-.06.16a1.09,1.09,0,0,1-.08.15.6.6,0,0,1-.09.15l-.1.15a.75.75,0,0,1-.12.14l-.13.14-.14.13-.15.12-.17.12-.17.11-.18.1-.19.1-.19.08-.2.08-.21.07-.22.06-.22.05-.23,0-.23,0h-.45l-.23,0-.23,0-.22-.05A1,1,0,0,1,97.9,25L97.68,25l-.22-.09-.21-.12L97,24.6l-.21-.17-.2-.19a.52.52,0,0,0-.1-.11L96.44,24l-.1-.12-.09-.14-.09-.14-.09-.16L96,23.29a1.42,1.42,0,0,1-.08-.18,1.08,1.08,0,0,1-.08-.19,1.18,1.18,0,0,1-.07-.2,1.87,1.87,0,0,1-.07-.22,2,2,0,0,1-.07-.23L95.56,22c0-.09,0-.17,0-.26s0-.19-.05-.28,0-.2,0-.3l0-.3c0-.05,0-.11,0-.16a1812005463795.29,1812005463795.29,0,0,0,0-.32.81.81,0,0,1,0-.16.91.91,0,0,1,0-.17.86.86,0,0,1,0-.16.91.91,0,0,0,0-.17v-.86a.86.86,0,0,1,0-.16v-.17c0-.05,0-.11,0-.16s0-.11,0-.16,0-.11,0-.16a.88.88,0,0,1,0-.16l0-.15a.58.58,0,0,1,0-.14l0-.14.05-.14a.61.61,0,0,1,0-.12.5.5,0,0,1,0-.13L95.7,17l.06-.11.06-.11a.61.61,0,0,1,.07-.1l.07-.09.06-.1.14-.16.14-.14.13-.12.13-.09.12-.06a.23.23,0,0,1,.11,0,.26.26,0,0,1,.19,0,.35.35,0,0,1,.14.19.66.66,0,0,1,0,.15l0,.19a1.69,1.69,0,0,1,0,.23v.25s0,.09,0,.14,0,.09,0,.14,0,.1,0,.15,0,.1,0,.15l0,.15,0,.16c0,.06,0,.11,0,.17a.81.81,0,0,0,0,.16c0,.05,0,.11,0,.17v.16a1.45,1.45,0,0,0,0,.34,48099321035102.66,48099321035102.66,0,0,0,0,.34c0,.06,0,.11,0,.17s0,.11,0,.16l0,.16,0,.16c0,.1,0,.2.07.3s0,.19.07.27.06.18.08.26l.09.23.09.2.08.17a1,1,0,0,0,.09.15,2,2,0,0,0,.16.24l.16.16.16.11.14.05h.27l.12,0,.12,0,.12-.06.12-.08.12-.09.12-.1.13-.09.12-.1.12-.09.24-.17.24-.14.25-.12.24-.08.23,0h.23l.21,0,.2.08a1,1,0,0,1,.19.12l.16.16a.39.39,0,0,1,.08.1l.08.1a.75.75,0,0,0,.07.12Z" transform="translate(-2.91 -3.99)"/><path class="cls-4" d="M68.11,39.7l-.4,1.87H83l-1.91,8.76H65.83l-1.44,6.81L62,68.61H51.24l.06-.31.34-1.56,2.72-12.81h0l1.19-5.61,5.29-24.86,0-.23a2.5,2.5,0,0,1,2.41-1.84H88.62l-1.84,8.8H70.14Z" transform="translate(-2.91 -3.99)"/><path class="cls-4" d="M135.78,34.11l0,.11-2.09,9.87h-.06a8.63,8.63,0,0,0-1.77-.65,7.34,7.34,0,0,0-2-.3,6.94,6.94,0,0,0-3.48.87,9.4,9.4,0,0,0-2.74,2.35,13.64,13.64,0,0,0-2,3.48,25.25,25.25,0,0,0-1.31,4.24c-.21,1.09-.54,2.52-.89,4l-.19.78-.19.78-.32,1.3-2,8H97l-1.2,0a11.71,11.71,0,0,1-3.77-.58,6.92,6.92,0,0,1-2.59-1.61,6.31,6.31,0,0,1-.53-.63,6.4,6.4,0,0,1-1-1.85,9.8,9.8,0,0,1-.47-3.14c0-.49,0-1,.08-1.61s.12-1.22.21-1.87.19-1.3.32-2,.25-1.31.37-1.93c.09-.37.24-1.06.45-2.06l.72-3.44.88-4.1.86-4.1c.28-1.3.53-2.44.73-3.44.06-.27.11-.52.16-.75l0-.12c.12-.54.21-.94.27-1.19h10.54l-4,19c-.18.77-.36,1.63-.56,2.59a12.29,12.29,0,0,0-.3,2.48,2.93,2.93,0,0,0,.06.61A1.65,1.65,0,0,0,99,60.3a3.76,3.76,0,0,0,1.81.49c1.63.17,2.44.25,2.83.25,1.24,0,2.44,0,3.49-.11h.06c.36,0,.88-.08,1.11-.36a2,2,0,0,0,.27-.5,3.48,3.48,0,0,0,.12-.6c0-.19.07-.38.1-.58.17-1,2.08-9.52,2.62-12.09a.56.56,0,0,1,0-.07c.15-.71.38-1.81.64-3.2.21-1.09.41-2.18.6-3.24s.35-2.09.49-3.08.26-1.89.35-2.7h10.31c-.07.62-.14,1.27-.22,1.94v0c-.07.67-.15,1.33-.23,2s-.16,1.18-.23,1.69-.14.9-.18,1.19h.13a19.9,19.9,0,0,1,4.3-5.72,7.83,7.83,0,0,1,5.22-1.93c.26,0,.51,0,.76,0l.53.06.39.07c.49.1.92.18,1.33.24h0Z" transform="translate(-2.91 -3.99)"/><path class="cls-4" d="M166.07,39.57A8.14,8.14,0,0,0,165,37.66a9.35,9.35,0,0,0-1.06-1.13l-.4-.33-.22-.17a8.86,8.86,0,0,0-1-.64,12.83,12.83,0,0,0-2.21-1,18,18,0,0,0-5.67-.79,19.35,19.35,0,0,0-13.81,5.45l-.51.5c-.15.15-.28.29-.42.45a20.71,20.71,0,0,0-4.08,6.81,23.43,23.43,0,0,0-1.44,8.2,17.41,17.41,0,0,0,.83,5.41,11.7,11.7,0,0,0,2.36,4.17l.22.26a12.66,12.66,0,0,0,4.5,3A17.19,17.19,0,0,0,148.61,69a27.34,27.34,0,0,0,3.54-.23,26,26,0,0,0,3.27-.63,27.37,27.37,0,0,0,2.85-.89,20.77,20.77,0,0,0,2.33-1l1.62-7.77a21.1,21.1,0,0,1-2,1l-.63.27c-1,.38-1.92.71-2.89,1a23.37,23.37,0,0,1-2.84.62,16.37,16.37,0,0,1-2.59.21A9.47,9.47,0,0,1,148,61a6,6,0,0,1-2.12-1.34,4.35,4.35,0,0,1-.55-.67,4.56,4.56,0,0,1-.58-1.17,6.66,6.66,0,0,1-.33-2V55.5a1.22,1.22,0,0,1,.06-.34,57.58,57.58,0,0,0,10.67-1A22.09,22.09,0,0,0,162,51.67a9.66,9.66,0,0,0,3.69-3.76,10.34,10.34,0,0,0,1.1-4.78V43A9.41,9.41,0,0,0,166.07,39.57Zm-12.14,7.81q-2.91,1.42-8.84,1.35a14,14,0,0,1,.41-1.44,13.35,13.35,0,0,1,.77-1.87,10.38,10.38,0,0,1,1.9-2.63,8.64,8.64,0,0,1,2.44-1.73,6.42,6.42,0,0,1,2.78-.63,4.54,4.54,0,0,1,1.73.3,2.84,2.84,0,0,1,.82.51,2.58,2.58,0,0,1,.91,2C156.85,45.06,155.88,46.44,153.93,47.38Z" transform="translate(-2.91 -3.99)"/><path class="cls-3" d="M207.43,42.77a11.34,11.34,0,0,0-2-3.82c0-.05-.08-.08-.11-.13A8.46,8.46,0,0,0,203.23,37a7.46,7.46,0,0,0-1.12-.59,10.51,10.51,0,0,0-4.1-.78,11.9,11.9,0,0,0-3.29.43,11.27,11.27,0,0,0-2.82,1.21,13.11,13.11,0,0,0-2.39,1.88,22.44,22.44,0,0,0-2,2.37h-.26c.11-.37.23-.83.36-1.37s.27-1.09.41-1.69c0-.1.05-.2.08-.31.11-.49.23-1,.35-1.47s.26-1.12.35-1.58l3.15-14.85h-10.5L175.5,48.2l-.63,2.95-3.12,14.71-.15.71-.09.41-.08.4c.35.21.71.42,1.08.61h0a22.06,22.06,0,0,0,2,.91,30.4,30.4,0,0,0,3.57,1.15,31.45,31.45,0,0,0,3.82.73,31.81,31.81,0,0,0,3.87.25,25.53,25.53,0,0,0,7.86-1.11l.11,0a24,24,0,0,0,2.47-1,19.07,19.07,0,0,0,3.44-2.05,18.53,18.53,0,0,0,4.14-4.26,23.46,23.46,0,0,0,2.62-4.93,25.28,25.28,0,0,0,1.36-5,27.32,27.32,0,0,0,.4-4.43A18.27,18.27,0,0,0,207.43,42.77Zm-10.74,2.42a7.44,7.44,0,0,1,1.06,4.23A18.93,18.93,0,0,1,196.51,56a15.57,15.57,0,0,1-1.5,3,12.36,12.36,0,0,1-2,2.47,9.41,9.41,0,0,1-2.56,1.67h0a7.63,7.63,0,0,1-2.93.61h-.17a11.68,11.68,0,0,1-2.49-.25,7.63,7.63,0,0,1-1.89-.61l.22-1,.43-2,.63-3,.47-2.24a23.74,23.74,0,0,1,1.28-4.12A17.24,17.24,0,0,1,187.85,47a10.06,10.06,0,0,1,2.47-2.45,5.19,5.19,0,0,1,3-.92,4.13,4.13,0,0,1,2.88.94A3.59,3.59,0,0,1,196.69,45.19Z" transform="translate(-2.91 -3.99)"/><path class="cls-3" d="M227.62,62.7a9.39,9.39,0,0,1-1.73.17,3.35,3.35,0,0,1-1.82-.49,1.84,1.84,0,0,1-.78-1.61v-.14a12.2,12.2,0,0,1,.29-2.48c.2-1,.38-1.82.56-2.59l7.48-35.17H221.08c-.07.28-.22,1-.45,2.09s-.52,2.47-.87,4.1S219,30,218.61,32s-.86,4-1.3,6.09-.89,4.1-1.3,6.09c-.3,1.42-.58,2.74-.85,4-.1.5-.21,1-.31,1.45-.33,1.55-.61,2.85-.83,3.93,0,.06,0,.11,0,.17-.23,1.11-.38,1.81-.44,2.1-.14.61-.27,1.25-.38,1.92s-.23,1.33-.32,2-.16,1.26-.21,1.86a15.87,15.87,0,0,0-.08,1.61,9.69,9.69,0,0,0,.46,3.07.24.24,0,0,0,0,.08,6.23,6.23,0,0,0,1.49,2.47,7,7,0,0,0,2.59,1.61,10.79,10.79,0,0,0,3.77.58c.62,0,1.23,0,1.86-.08s1.23-.14,1.81-.24,1.13-.2,1.65-.31,1-.22,1.37-.33c.28-1.31.56-2.62.82-3.9s.54-2.59.82-3.91a6.68,6.68,0,0,1-1.17.38Z" transform="translate(-2.91 -3.99)"/><path class="cls-3" d="M44,47.63c0,.63,0,1.23,0,1.79s-.09,1.08-.14,1.58-.12,1-.19,1.44l0,.18c-.07.4-.14.79-.22,1.15s-.11.5-.16.75l-.12.5c-.1.39-.21.78-.32,1.15-.21.74-.44,1.44-.67,2.1s-.47,1.28-.71,1.87-.47,1.16-.74,1.72a17,17,0,0,1-4.2,5.43c-.35.3-.7.6-1.07.88l-.06,0a16.87,16.87,0,0,1-3.62,2l-.1,0-.58.22-.54.17a16,16,0,0,1-1.61.43h-.07a16.89,16.89,0,0,1-17.06-6.71c-.28-.38-.54-.79-.79-1.2h0a18.06,18.06,0,0,1-1.41-3c0-.1-.07-.19-.09-.29a16.59,16.59,0,0,1-.57-8.35,16.71,16.71,0,0,1,4.81-9,16.44,16.44,0,0,1,6.22-3.85c.2-.07.39-.14.59-.19l.05,0c.51-.16,1-.29,1.54-.4a16.92,16.92,0,0,1,2.09-.29c.48,0,.95-.05,1.42-.05.63,0,1.25,0,1.85,0a14.42,14.42,0,0,0,1.64-.19l.11,0,.1,0,.13,0a3.31,3.31,0,0,0,.53-.27L30,37a3.77,3.77,0,0,0,.71-.59,4.74,4.74,0,0,0,.66-1.13,7.59,7.59,0,0,0,.49-1.72c.07-.35.11-.74.15-1.15s0-.88,0-1.39,0-1.06-.06-1.68-.09-1.31-.17-2.07c0-.38-.08-.78-.11-1.19s-.08-.85-.11-1.3-.07-.92-.09-1.4,0-1,0-1.48,0-1,0-1.53.06-1,.11-1.55.12-1,.2-1.53.17-1,.28-1.46.23-.91.35-1.32.24-.79.37-1.15a14.25,14.25,0,0,1,.77-1.77c.5-.92.92-1.39,1.23-1.4.16,0,.29.13.38.4a4.52,4.52,0,0,1,.19,1.23c0,.56,0,1.3,0,2.21,0,.46,0,.94,0,1.45s0,1,.09,1.59.1,1.11.19,1.69.19,1.17.32,1.75.27,1.15.43,1.7.33,1.1.52,1.64.39,1,.58,1.5l.59,1.39L38.76,28l.53,1.19c.18.38.35.76.51,1.12l.46,1.08c.3.71.58,1.39.84,2.07s.48,1.31.69,1.94.39,1.2.55,1.78h0q.25.85.45,1.65c.13.52.24,1,.35,1.53s.19,1,.27,1.43.16.92.22,1.35.12.85.16,1.25.08.78.1,1.15C43.94,46.31,44,47,44,47.63Z" transform="translate(-2.91 -3.99)"/><path class="cls-4" d="M45.25,47.18c0,.64,0,1.23-.06,1.79s-.08,1.08-.13,1.59-.12,1-.2,1.44-.15.9-.24,1.33-.18.84-.28,1.24-.21.78-.32,1.16c-.22.74-.44,1.44-.68,2.09-.14.4-.28.79-.43,1.17l-.27.7c-.23.6-.48,1.17-.75,1.72a16.82,16.82,0,0,1-6,6.83A16.51,16.51,0,0,1,32.38,70l-.12.05-.59.19-.1,0a16.61,16.61,0,0,1-8.61.3,16.86,16.86,0,0,1-8.77-27.76A16.27,16.27,0,0,1,16.1,41a16.59,16.59,0,0,1,4.36-2.55l.05,0,.64-.24c.29-.1.59-.2.88-.28a16.69,16.69,0,0,1,3.39-.62c.47,0,.95,0,1.42,0h1.91a11,11,0,0,0,1.17-.12l.16,0,.36-.06A4,4,0,0,0,32,36a4.66,4.66,0,0,0,.66-1.12,7.54,7.54,0,0,0,.49-1.73c.06-.35.11-.73.15-1.15s0-.88,0-1.38,0-1.07-.06-1.69-.09-1.3-.17-2.06q-.06-.58-.12-1.2c0-.42-.07-.85-.11-1.3s-.06-.92-.08-1.4,0-1,0-1.47,0-1,0-1.53.06-1,.11-1.55.12-1,.2-1.54.17-1,.28-1.45.22-.91.34-1.32.25-.8.38-1.16a13.42,13.42,0,0,1,.77-1.76,5.54,5.54,0,0,1,.33-.56c.36-.55.66-.84.9-.84s.51.51.57,1.63c0,.56,0,1.3,0,2.21,0,.45,0,.94,0,1.45s0,1,.09,1.58.1,1.12.19,1.7.19,1.16.31,1.74.27,1.15.43,1.71.34,1.1.53,1.63.38,1,.58,1.51l.59,1.39L40,27.57c.19.41.37.8.54,1.19s.34.76.5,1.13.32.72.47,1.07c.3.71.58,1.39.84,2.07s.48,1.32.69,1.94c.14.42.27.84.39,1.24.06.19.11.37.16.55q.26.85.45,1.65c.13.53.24,1,.34,1.53s.2,1,.28,1.44.16.91.22,1.34.11.85.16,1.25.07.79.1,1.15C45.22,45.86,45.25,46.54,45.25,47.18Z" transform="translate(-2.91 -3.99)"/><path class="cls-3" d="M41,60.72s0,0,0,.05a17,17,0,0,1-16.51,9.94A12.2,12.2,0,0,1,23,70.53l-.68-.11L22,70.36a14.42,14.42,0,0,1-1.82-.5A16.56,16.56,0,0,1,18.11,69a17.4,17.4,0,0,1-1.81-1l-.19-.11a20.26,20.26,0,0,1-2-1.48,23.71,23.71,0,0,1-2-1.84c-.11-.11-.21-.22-.31-.34s-.45-.47-.66-.72l-.29-.34h0l-.68-.84c-.14-.18-.29-.36-.43-.55s-.37-.49-.56-.75c-.32-.45-.65-.93-1-1.44s-.65-1-1-1.58-.63-1.13-.93-1.74S5.79,55,5.51,54.36s-.52-1.3-.76-2S4.31,51,4.11,50.3c-.1-.36-.19-.73-.28-1.11s-.17-.77-.25-1.17-.15-.82-.22-1.25-.13-.88-.19-1.34S3.07,44.49,3,44,3,43,2.94,42.47s0-1.06,0-1.63,0-1.16,0-1.78.07-1.28.13-2S3.2,35.7,3.29,35c0-.37.1-.75.16-1.13s.12-.78.18-1.18.13-.81.21-1.22.14-.83.22-1.26.15-.86.23-1.31.15-.9.22-1.37.14-.95.2-1.44.13-1,.19-1.51S5,23.5,5.05,23s.08-1.05.11-1.57,0-1,0-1.55,0-1,0-1.47,0-.93,0-1.36,0-.82,0-1.19a9.74,9.74,0,0,1,.09-1.7c.14-.8.44-1,.91-.59a2.56,2.56,0,0,1,.39.44,6.06,6.06,0,0,1,.41.62,15.11,15.11,0,0,1,.91,1.91c.16.39.32.8.47,1.25s.3.91.44,1.4.28,1,.4,1.48.25,1,.36,1.52.21,1,.3,1.5.18,1,.26,1.45.16.91.23,1.35.15.87.22,1.27.13.8.2,1.17.14.72.21,1.05c.13.67.28,1.28.43,1.84s.31,1.07.48,1.54a4.84,4.84,0,0,0,.23.57c.1.26.2.51.31.75l.29.52c.1.18.21.35.32.52a7.21,7.21,0,0,0,.63.85A5.89,5.89,0,0,0,15,37.68a4.6,4.6,0,0,0,1.33.57,3.07,3.07,0,0,0,.42.07.17.17,0,0,0,.1,0h0a4.51,4.51,0,0,0,.73,0,7.7,7.7,0,0,0,1.2-.19c.39-.1.77-.22,1.14-.34s.74-.24,1.11-.34l.93-.23.18,0a16.85,16.85,0,0,1,6.56,0h0l.63.14c.33.08.67.17,1,.27s.87.28,1.3.45a16.75,16.75,0,0,1,3.78,2.07,12.45,12.45,0,0,1,1.09.86c.25.21.5.44.74.67a16.47,16.47,0,0,1,3.32,4.51,17.39,17.39,0,0,1,.88,2.07A16.87,16.87,0,0,1,41,60.72Z" transform="translate(-2.91 -3.99)"/><path class="cls-4" d="M42.91,59a16.91,16.91,0,0,1-9.64,10.73c-.32.14-.65.26-1,.38l-.69.22h0c-.37.11-.73.21-1.1.29a16.78,16.78,0,0,1-4.82.39,17.16,17.16,0,0,1-2.17-.28A14.36,14.36,0,0,1,22,70.36c-.21,0-.43-.12-.64-.19a18.24,18.24,0,0,1-2.06-.85,19.37,19.37,0,0,1-2-1.15,19.73,19.73,0,0,1-2-1.47,25.54,25.54,0,0,1-2-1.84c-.32-.34-.65-.69-1-1.07l0,0c-.21-.24-.42-.49-.62-.75l-.34-.41c-.33-.42-.66-.85-1-1.31s-.66-.93-1-1.43l0-.07q-.35-.52-.66-1.08c-.09-.14-.18-.29-.26-.44q-.48-.83-.93-1.74c-.3-.6-.59-1.23-.86-1.87s-.53-1.3-.76-2-.45-1.36-.65-2.09c-.1-.36-.19-.73-.28-1.11s-.17-.77-.25-1.17-.15-.82-.22-1.25-.13-.87-.18-1.34-.11-.94-.15-1.43-.06-1-.08-1.52,0-1.07,0-1.63,0-1.17,0-1.79.06-1.28.12-2,.13-1.4.22-2.14q.06-.55.15-1.14c.06-.38.12-.78.18-1.18L5,31.72c.07-.41.14-.83.22-1.25s.15-.87.23-1.31.15-.9.22-1.37l.21-1.44c.06-.49.12-1,.18-1.51s.11-1,.15-1.56.08-1,.11-1.57,0-1,0-1.54,0-1,0-1.48,0-.93,0-1.35,0-.83,0-1.19a9.87,9.87,0,0,1,.09-1.71A2.07,2.07,0,0,1,6.58,14c.17-.4.44-.45.79-.14a4.34,4.34,0,0,1,.8,1.06,16.5,16.5,0,0,1,.92,1.91c.15.39.31.81.46,1.25s.3.92.44,1.4.28,1,.41,1.49l.36,1.51c.1.51.2,1,.29,1.51s.18,1,.26,1.45.16.91.24,1.35.14.86.21,1.27.13.79.2,1.16.14.72.21,1.06c.14.67.28,1.28.43,1.84l.06.21c.13.47.27.91.42,1.33l.06.16c.16.41.32.79.49,1.16a11.16,11.16,0,0,0,.6,1,7.35,7.35,0,0,0,.63.86A6.16,6.16,0,0,0,16.19,38a4,4,0,0,0,.58.3l.09,0h0a4,4,0,0,0,.64.21,4.67,4.67,0,0,0,1.28.12A7.58,7.58,0,0,0,20,38.48c.39-.09.77-.21,1.14-.33s.6-.2.9-.29l.21-.06c.37-.1.74-.19,1.11-.26a17.07,17.07,0,0,1,4-.33c.53,0,1.05.07,1.57.14l.33,0c.38.06.76.13,1.13.22s.61.14.91.23a16.71,16.71,0,0,1,5.38,2.62c.36.26.71.53,1,.82A16.92,16.92,0,0,1,42.91,59Z" transform="translate(-2.91 -3.99)"/><path class="cls-6" d="M26.48,48.43a8.46,8.46,0,0,1-5.2,10.77,8.34,8.34,0,0,1-4.41.32,7.37,7.37,0,0,1-1.05-.28,7.92,7.92,0,0,1-1-.41,8.57,8.57,0,0,1-1-.55,9.86,9.86,0,0,1-.92-.71,9.17,9.17,0,0,1-.9-.87,13.57,13.57,0,0,1-.85-1.06c-.14-.2-.28-.4-.42-.62l-.43-.67-.42-.74-.43-.82c-.14-.28-.28-.58-.42-.88s-.28-.6-.42-.92-.27-.66-.4-1a10.63,10.63,0,0,1-.35-1.16c-.11-.41-.21-.87-.29-1.36,0-.25-.09-.51-.13-.78s-.08-.56-.11-.86-.07-.61-.11-.94-.06-.67-.09-1-.06-.73-.08-1.11S7,42,7,41.57s0-.84,0-1.29,0-.92,0-1.41q0-.36,0-.75c0-.25,0-.51,0-.77s0-.53,0-.79,0-.53.05-.8,0-.53.08-.79,0-.52.08-.78l.09-.76.06-.37c0-.12,0-.24,0-.36s0-.25.07-.37,0-.25.07-.37,0-.25.07-.38l.08-.38c0-.14,0-.27.08-.41s0-.26.07-.39S8,30.13,8,30l.09-.38a3.18,3.18,0,0,1,.08-.33A3,3,0,0,1,8.28,29q.08-.3.15-.54c0-.15.09-.29.13-.4a1.29,1.29,0,0,1,.12-.26c.07-.12.15-.14.22-.06a.51.51,0,0,1,.11.21,2,2,0,0,1,.1.38,1.93,1.93,0,0,1,0,.27,3.11,3.11,0,0,1,0,.32c0,.12,0,.23,0,.36s0,.25,0,.38l0,.41c0,.13,0,.27,0,.41l0,.41,0,.4c0,.13,0,.26,0,.39l0,.37c0,.12,0,.24.05.36s0,.23,0,.35,0,.22.05.34l.06.33.07.33.06.34c.09.46.19.92.29,1.36s.21.87.32,1.29.23.79.35,1.15.24.7.37,1,.26.6.39.86.27.5.41.72a8.89,8.89,0,0,0,.81,1.11,5.63,5.63,0,0,0,.78.77,4.08,4.08,0,0,0,.76.45A3.45,3.45,0,0,0,15,43a5.69,5.69,0,0,0,.68.08c.42,0,.81-.12,1.18-.19a11.11,11.11,0,0,1,1.12-.15A8.46,8.46,0,0,1,26.48,48.43Z" transform="translate(-2.91 -3.99)"/><path class="cls-3" d="M42.09,54.66A16.73,16.73,0,0,1,41,60.72s0,0,0,.05a16.86,16.86,0,0,1-5.6,7.4l-.06,0A16.12,16.12,0,0,1,32.38,70c-.26.13-.52.25-.79.36h0l-.56.23a.44.44,0,0,1-.15,0,17,17,0,0,1-15.6-2.25l0,0a16.63,16.63,0,0,1-3.74-3.75h0A16.65,16.65,0,0,1,9.8,61.75c-.07-.16-.15-.33-.22-.5a16.66,16.66,0,0,1-.73-2.09,3.48,3.48,0,0,1-.1-.44,14.92,14.92,0,0,1-.36-1.79,20.89,20.89,0,0,1-.17-2.42,23,23,0,0,1,.12-2.6c0-.42.08-.84.15-1.27s.13-1,.22-1.52.17-1,.27-1.48.2-1,.31-1.58.24-1.13.36-1.74.26-1.27.39-2,.3-1.46.47-2.28l.31-1.34c0-.11,0-.22.08-.33h0c.08-.37.17-.75.27-1.15s.28-1.07.45-1.66.31-1.08.51-1.67c0-.06,0-.13.06-.2.14-.45.3-.91.47-1.39.08-.23.17-.47.26-.71.27-.75.57-1.54.9-2.38L14.33,28c.18-.44.35-.89.53-1.35l.53-1.41.51-1.46c.17-.5.33-1,.49-1.51s.31-1,.46-1.51.29-1,.42-1.52.25-1,.36-1.5c.05-.25.11-.5.15-.74s.1-.48.14-.72.08-.48.11-.72.06-.48.07-.72,0-.5,0-.74,0-.5-.06-.75-.07-.51-.12-.76a7,7,0,0,0-.19-.76q-.11-.37-.24-.75c-.09-.25-.19-.49-.29-.74s-.21-.48-.33-.72-.23-.46-.35-.69l-.35-.66c-.12-.21-.23-.41-.35-.6l-.59-1c-.16-.3-.3-.57-.41-.81a3.87,3.87,0,0,1-.24-.62c-.09-.35-.06-.59.1-.71a.86.86,0,0,1,.72-.1l.23,0a6.29,6.29,0,0,1,.95.37,7.36,7.36,0,0,1,.73.42c.27.17.54.36.83.58s.6.47.91.75.64.58,1,.9c.17.16.33.33.49.5s.32.35.48.54.31.37.47.56.3.39.44.59.29.4.42.6l.38.61c.25.41.47.81.67,1.22.1.23.18.46.27.68s.16.45.23.68c.14.44.27.89.38,1.34s.19.88.28,1.32.15.88.23,1.34c.1.93.2,1.86.27,2.8s.12,1.86.16,2.78.08,1.74.11,2.55.07,1.58.11,2.3.09,1.36.15,2,.14,1.17.22,1.69a15.92,15.92,0,0,0,.7,2.57,12,12,0,0,0,.94,1.73A8.24,8.24,0,0,0,28.48,37a2.61,2.61,0,0,0,.27.22h0a1.14,1.14,0,0,0,.17.15l.12.1.54.36c.75.47,1.47.85,2.15,1.2s1.34.67,2,1a19.62,19.62,0,0,1,1.8,1.22c.28.21.55.44.81.67l.33.3a17,17,0,0,1,5.44,12.42Z" transform="translate(-2.91 -3.99)"/><path class="cls-4" d="M43.18,54.32v.2a16.91,16.91,0,0,1-7.3,13.72,16,16,0,0,1-2.61,1.48,14.78,14.78,0,0,1-2.28.84.44.44,0,0,1-.15,0,16.54,16.54,0,0,1-2,.44h-.07a17.35,17.35,0,0,1-2.51.18A16.69,16.69,0,0,1,16.3,68a16.28,16.28,0,0,1-4-4.13c-.19-.27-.36-.55-.53-.83a16.12,16.12,0,0,1-1.08-2.11A16.62,16.62,0,0,1,10,58.82a16,16,0,0,1-.46-2.23,17.13,17.13,0,0,1-.17-2.42c0-.53,0-1.06,0-1.6,0-.33,0-.66.07-1,.09-.9.21-1.82.37-2.78.07-.36.13-.73.2-1.1,0-.13.05-.26.07-.39l.32-1.58q.16-.82.36-1.74l.39-2c.13-.65.28-1.35.43-2.09,0-.06,0-.12,0-.18.1-.44.2-.88.3-1.35s.23-1,.36-1.49.28-1.07.44-1.66l0-.06c.12-.43.26-.89.41-1.37,0-.14.09-.28.14-.43.22-.67.46-1.37.73-2.11s.58-1.54.91-2.38c.17-.41.34-.84.51-1.28s.35-.89.52-1.35.36-.93.53-1.41.35-1,.52-1.46.33-1,.49-1.5.31-1,.46-1.52.28-1,.41-1.51.25-1,.36-1.51c.06-.25.11-.49.16-.74s.1-.48.14-.72.08-.48.11-.72.05-.48.07-.72,0-.5,0-.74,0-.5-.06-.75-.08-.51-.13-.76-.11-.5-.18-.76l-.24-.75c-.09-.24-.19-.49-.3-.73s-.21-.49-.32-.72-.23-.47-.35-.7l-.36-.66c-.11-.21-.23-.41-.34-.6-.22-.38-.43-.73-.59-1s-.31-.57-.42-.8a3.3,3.3,0,0,1-.23-.63,1.16,1.16,0,0,1,0-.43.44.44,0,0,1,.14-.28A.92.92,0,0,1,16.5,4a4.65,4.65,0,0,1,1.17.42,6.28,6.28,0,0,1,.74.41c.26.17.54.36.83.58s.59.47.91.75.64.58,1,.91c.16.16.32.32.48.5s.33.35.49.53.31.37.46.56l.45.59c.15.2.28.4.42.6l.38.61c.24.41.46.81.67,1.23.09.22.18.45.26.67s.16.45.23.68c.15.45.27.89.38,1.34s.2.88.28,1.32.16.89.23,1.34c.11.93.21,1.86.28,2.8s.12,1.86.16,2.78.07,1.74.11,2.56.06,1.57.1,2.29.09,1.37.16,2,.13,1.17.22,1.69a15.92,15.92,0,0,0,.7,2.57,11.72,11.72,0,0,0,.93,1.74,8.76,8.76,0,0,0,1.07,1.17c.15.13.3.26.45.37l.06,0c.2.15.4.29.61.42l.61.37.39.22c.39.22.77.42,1.15.61.68.34,1.34.68,2,1,.23.13.45.27.67.42q.57.38,1.11.78l0,0c.27.21.54.43.79.65a17,17,0,0,1,3.23,3.79A16.85,16.85,0,0,1,43.18,54.32Z" transform="translate(-2.91 -3.99)"/><path class="cls-6" d="M40.46,49.07q0,.47-.09.9c0,.29-.06.57-.09.83s-.07.52-.11.77-.07.48-.11.71c-.08.46-.17.89-.27,1.3s-.21.8-.32,1.18c-.23.75-.47,1.46-.73,2.1s-.53,1.23-.81,1.78-.56,1-.85,1.49a14.55,14.55,0,0,1-.87,1.26c-.3.39-.6.74-.9,1.06s-.61.61-.92.89-.62.52-.93.75-.62.43-.94.62a11.88,11.88,0,0,1-1.9.93,10.52,10.52,0,0,1-1.91.54,10.09,10.09,0,0,1-1.9.16A8.76,8.76,0,0,1,25,66.12a8.67,8.67,0,0,1-1.76-.59,9.49,9.49,0,0,1-1.65-1,10.89,10.89,0,0,1-1.3-1.09A13.51,13.51,0,0,1,19,62.13a16.3,16.3,0,0,1-1.1-1.65,17,17,0,0,1-1-2c-.15-.35-.29-.71-.43-1.09s-.26-.79-.38-1.21-.23-.87-.33-1.34-.19-1-.27-1.49-.15-1.08-.21-1.66-.09-1.2-.11-1.85,0-1.36,0-2.11c0-.37,0-.77.06-1.17s.07-.82.11-1.25.1-.91.17-1.37.14-.94.23-1.42.19-1,.29-1.48c.06-.25.11-.51.17-.76s.12-.51.19-.76l.2-.77c.07-.26.15-.52.22-.79l.24-.83c.08-.29.16-.58.25-.88s.17-.61.26-.92.2-.64.3-1,.22-.69.35-1,.26-.76.4-1.15.31-.84.48-1.28c.08-.23.16-.46.25-.69s.18-.48.28-.73.2-.52.3-.8l.32-.86.32-.95c.11-.33.23-.67.33-1s.22-.74.32-1.12.2-.78.28-1.18.16-.81.22-1.21.1-.8.15-1.17.08-.71.12-1,.07-.61.1-.86a11.15,11.15,0,0,1,.21-1.18c.14-.48.27-.65.39-.5a1.32,1.32,0,0,1,.18.48,8.18,8.18,0,0,1,.17,1c0,.22.06.48.08.78s.05.65.08,1,0,.79,0,1.21,0,.86,0,1.3-.05.88-.09,1.32L23,26c-.06.41-.11.81-.17,1.19s-.12.75-.18,1.11-.14.86-.21,1.25-.12.76-.17,1.11-.1.68-.14,1-.07.62-.1.91-.06.57-.07.83,0,.52,0,.76c0,.49,0,.94,0,1.37s0,.84.05,1.22.05.74.08,1.09.06.68.1,1,.08.62.13.91.09.57.15.84.11.53.16.78c.12.51.26,1,.4,1.43s.29.85.45,1.23a11.62,11.62,0,0,0,.49,1.06A10.15,10.15,0,0,0,25,46.7a7.8,7.8,0,0,0,1.17,1.14,6.57,6.57,0,0,0,1.2.75,8.32,8.32,0,0,0,1.19.46,5.46,5.46,0,0,0,1.21.06A5.62,5.62,0,0,0,31,48.88a7.23,7.23,0,0,0,1.19-.58,5.24,5.24,0,0,0,.59-.41,5.56,5.56,0,0,0,.6-.52,7.81,7.81,0,0,0,.61-.66,9.48,9.48,0,0,0,.6-.81c.2-.3.4-.62.6-1a12.87,12.87,0,0,0,.56-1.22c.09-.22.17-.46.26-.71s.17-.52.25-.8.16-.58.24-.89.15-.64.22-1,.15-.7.21-1.07.12-.75.16-1.14.08-.78.1-1.18,0-.79,0-1.18,0-.75,0-1.1,0-.69-.06-1,0-.59,0-.84,0-.46,0-.63c0-.72.2-1,.46-.95s.29.2.49.49.2.32.31.53.23.45.36.72.28.66.43,1.05.29.83.43,1.31c.07.24.14.49.2.74s.12.52.18.79l.15.82c0,.28.09.55.12.84s.07.58.1.87.05.58.07.86,0,.56.05.83l.06.8c0,.26,0,.51,0,.76s0,.49,0,.72c0,.48,0,.93,0,1.35s0,.84,0,1.22,0,.76,0,1.12,0,.7-.05,1S40.49,48.75,40.46,49.07Z" transform="translate(-2.91 -3.99)"/><text class="cls-7" transform="translate(379.21 63.72)">tk</text><text class="cls-8" transform="translate(380.1 64.83)">tk</text><circle class="cls-6" cx="370.98" cy="61.64" r="2.33"/><circle class="cls-4" cx="371.33" cy="62.23" r="2.33"/><path class="cls-3" d="M92.28,35.82l-2,.18c.06-.32.13-.63.19-.93s.14-.69.2-1l1.6,1.6Z" transform="translate(-2.91 -3.99)"/><polygon class="cls-3" points="83.35 99.27 537.38 553.29 657.14 551.53 204.87 99.27 83.35 99.27"/></svg>