<svg id="Capa_1" data-name="Capa 1" xmlns="http://www.w3.org/2000/svg" viewBox="0 0 510 120.16"><defs><style>.cls-1{fill:#1d2128;}.cls-2{fill:#4d4d4d;}.cls-3{fill:#333;}.cls-4,.cls-8{fill:#e74c3c;}.cls-5{fill:#7f7f7f;}.cls-6,.cls-7{fill:#c0392b;}.cls-7,.cls-8{font-size:43.42px;font-family:SegoeUI-Italic, Segoe UI;font-style:italic;}</style></defs><title>logo</title><path class="cls-1" d="M431.92,42.06s0,0,0,0a8.06,8.06,0,0,0-.81-1,.66.66,0,0,0-.15-.14,6.65,6.65,0,0,0-1.12-.94l-.21-.25a8.69,8.69,0,0,0-.83-.77,10.47,10.47,0,0,0-6.66-2,14.92,14.92,0,0,0-4.38.67,18.91,18.91,0,0,0-4.14,1.87,22.17,22.17,0,0,0-3.75,2.9,25.78,25.78,0,0,0-2.23,2.42,9.52,9.52,0,0,0-2.3-4.11,7.1,7.1,0,0,0-1.08-.89c-.13-.14-.26-.29-.41-.44Q401.46,37,396.77,37a12.76,12.76,0,0,0-4,.67,18.43,18.43,0,0,0-3.85,1.81,23.07,23.07,0,0,0-3.59,2.74c-.45.43-.9.87-1.33,1.33.09-.63.16-1.27.24-1.94s.18-1.57.25-2.31h-1.63q.08-.68.15-1.32H370.82c-.08.65-.19,1.46-.33,2.4s-.31,2-.5,3.09-.39,2.27-.62,3.48-.47,2.42-.71,3.62L368,53.78,356.2,42c-.24-.27-.49-.54-.73-.79a9.84,9.84,0,0,0-.76-.7l0,0A14.89,14.89,0,0,0,350,37.8a21.4,21.4,0,0,0-7.41-1.2,26.09,26.09,0,0,0-7.67,1.06,22.32,22.32,0,0,0-6.08,2.88,20.15,20.15,0,0,0-4.57,4.25A24.76,24.76,0,0,0,321.14,50c-.31.73-.6,1.45-.86,2.2l-10.8-10.8,0,0c-.15-.18-.32-.35-.49-.53s-.26-.22-.39-.34h0l-.14-.15v0a15,15,0,0,0-4.9-2.91,21.13,21.13,0,0,0-7.41-1.2,27.12,27.12,0,0,0-6.24.68L271.81,18.86H259.3c-.07.35-.25,1.18-.52,2.5s-.63,2.93-1,4.85-.86,4.08-1.36,6.44-1,4.76-1.54,7.22-1.05,4.88-1.54,7.24q-.64,3-1.18,5.53L239.9,40.43c-.08-.1-.17-.17-.24-.25a10,10,0,0,0-3.17-2.12,12.35,12.35,0,0,0-4.86-.94,13.78,13.78,0,0,0-7.25,2,16,16,0,0,0-2.84,2.23c-.18.19-.37.37-.53.56.13-.58.27-1.15.41-1.74s.31-1.33.42-1.88l3.74-17.62H224l.37-1.76H211.93l-7.12,33.6L193.6,41.24a12.15,12.15,0,0,0-1.26-1.34l-.47-.39-.76-.76c-.11-.1-.22-.21-.32-.32l-.24-.22A12.63,12.63,0,0,0,186,35.69a20.86,20.86,0,0,0-6.71-.95A22.92,22.92,0,0,0,163,41.16l-4-4,0-.13-.16,0h0l-1.74-1.76c-.52-.07-1.12-.18-1.77-.31a10.07,10.07,0,0,0-2-.19A9.33,9.33,0,0,0,147.09,37a18.91,18.91,0,0,0-2.56,2.78c.1-.8.18-1.57.26-2.3h-2.12c.07-.62.13-1.21.19-1.78H130.62c-.1,1-.23,2-.4,3.2s-.37,2.4-.59,3.66-.45,2.55-.7,3.84c-.32,1.66-.58,3-.76,3.8a.17.17,0,0,0,0,.08c-.66,3-2.92,13.12-3.13,14.35,0,.23-.07.46-.1.68a3,3,0,0,1-.16.72,2,2,0,0,1-.31.59c-.27.33-.89.38-1.31.43h-.09c-1.24.07-2.65.13-4.12.13-.48,0-1.44-.11-3.36-.31-.47,0-.81-.09-1.09-.15a3.4,3.4,0,0,1-.08-.73,14.43,14.43,0,0,1,.36-2.94c.24-1.14.45-2.16.66-3.07l4.77-22.51h-2.3l.38-1.78H105.76c-.06.27-.15.7-.28,1.28h0l-4.65-4.65L103,21.93h-2.24l.46-2.22h-30a3,3,0,0,0-2.86,2.18l-.06.27L61.92,52l-12.5-12.5c-.14-.47-.29-1-.46-1.47-.25-.73-.52-1.5-.82-2.3s-.64-1.61-1-2.46c-.17-.41-.35-.84-.55-1.27s-.38-.87-.6-1.34-.41-.92-.64-1.41-.44-1-.67-1.51-.47-1.08-.7-1.64-.47-1.18-.69-1.8-.43-1.28-.63-1.93-.36-1.34-.51-2-.27-1.38-.37-2.06-.18-1.37-.22-2-.09-1.27-.11-1.88,0-1.18,0-1.72c0-1.08,0-2,0-2.62-.07-1.33-.3-1.93-.68-1.93s-.64.34-1.06,1c-.11-.32-.26-.47-.45-.47-.37,0-.87.57-1.46,1.66a16.87,16.87,0,0,0-.92,2.1c-.15.43-.29.88-.44,1.36s-.28,1-.41,1.57-.24,1.14-.33,1.73-.18,1.2-.24,1.82-.1,1.23-.13,1.84,0,1.22,0,1.81,0,1.19,0,1.76.06,1.13.1,1.66.09,1.05.14,1.54.08,1,.13,1.42c.09.9.16,1.72.2,2.45s.07,1.4.07,2,0,1.15-.06,1.64-.1,1-.18,1.37a8.79,8.79,0,0,1-.58,2,5.71,5.71,0,0,1-.78,1.34,4.44,4.44,0,0,1-.85.7c-.17-.13-.35-.28-.53-.44a10.2,10.2,0,0,1-1.27-1.39,13.6,13.6,0,0,1-1.1-2.06,18.4,18.4,0,0,1-.83-3c-.11-.62-.19-1.28-.26-2s-.15-1.49-.19-2.33-.09-1.76-.12-2.72-.09-2-.13-3-.11-2.19-.19-3.3-.21-2.22-.34-3.32c-.08-.53-.17-1.07-.27-1.59s-.2-1-.33-1.57-.27-1.05-.45-1.59c-.08-.27-.18-.53-.27-.8l-.31-.8c-.25-.5-.51-1-.8-1.46-.15-.24-.29-.48-.45-.72s-.32-.48-.5-.71l-.53-.7c-.18-.23-.36-.45-.55-.67s-.38-.43-.58-.63-.38-.4-.57-.59c-.38-.39-.77-.75-1.14-1.08S21,3.26,20.68,3s-.67-.49-1-.69-.61-.35-.88-.49a5.43,5.43,0,0,0-1.39-.49,1,1,0,0,0-.86.12.46.46,0,0,0-.17.33l-.27-.05a1,1,0,0,0-.86.12c-.19.14-.22.43-.12.84a5.28,5.28,0,0,0,.29.74q.2.42.48,1c.21.34.44.76.7,1.21.15.22.28.46.42.71l.42.78.41.82c.14.29.26.57.39.86s.24.58.35.87.2.6.28.89a7.58,7.58,0,0,1,.23.91c.06.29.1.59.14.9s.06.59.07.89,0,.58,0,.88,0,.57-.08.85-.07.57-.13.86-.11.56-.17.85-.12.58-.18.88c-.13.59-.27,1.18-.43,1.78s-.32,1.2-.49,1.8-.36,1.2-.55,1.79-.38,1.2-.58,1.79-.4,1.17-.61,1.74-.42,1.12-.62,1.67-.42,1.08-.63,1.6-.41,1-.61,1.52c-.39,1-.75,1.94-1.07,2.83l-.31.84a1.82,1.82,0,0,0-.07-.25c-.17-.67-.34-1.39-.51-2.18-.08-.41-.16-.82-.25-1.26s-.15-.9-.23-1.38-.17-1-.25-1.51-.19-1-.29-1.6S11.07,25.59,11,25s-.22-1.19-.34-1.79-.28-1.2-.43-1.79-.32-1.19-.48-1.77S9.36,18.53,9.18,18s-.36-1-.54-1.48a19.64,19.64,0,0,0-1.09-2.27A5.54,5.54,0,0,0,6.6,13c-.42-.37-.74-.31-.94.17a2.79,2.79,0,0,0-.46-.52c-.56-.48-.92-.25-1.08.7a10.94,10.94,0,0,0-.11,2c0,.44,0,.92,0,1.41s0,1,0,1.62,0,1.15,0,1.74S4,21.34,4,22s-.07,1.24-.13,1.86-.1,1.24-.17,1.84-.15,1.21-.23,1.8-.15,1.15-.24,1.7S3,30.27,2.94,30.79s-.18,1-.27,1.55-.18,1-.26,1.5-.17,1-.25,1.45S2,36.23,2,36.69s-.13.9-.19,1.34c-.11.89-.19,1.73-.25,2.54s-.12,1.59-.16,2.34S1.3,44.35,1.3,45s0,1.3,0,1.93.06,1.22.11,1.81.1,1.16.16,1.7.15,1.08.23,1.59.17,1,.26,1.49.19.94.3,1.39.21.89.33,1.31c.24.86.49,1.69.76,2.48s.58,1.58.9,2.34.68,1.51,1,2.23.73,1.41,1.11,2.07.74,1.28,1.14,1.87.77,1.18,1.15,1.71c.22.31.44.61.66.89a20.12,20.12,0,0,0,2,3.36h0a19.73,19.73,0,0,0,4.44,4.45l0,0,43.77,43.78H511.3Zm-99.57,21.3a22.94,22.94,0,0,1,.7-5.55,18.68,18.68,0,0,1,2-5,12,12,0,0,1,3.26-3.63,7.27,7.27,0,0,1,4.39-1.4,5.61,5.61,0,0,1,2.56.56,5.44,5.44,0,0,1,1.35,1,8.75,8.75,0,0,1,.46,1.25,11.22,11.22,0,0,1,.39,3,24.12,24.12,0,0,1-.66,5.59,18.11,18.11,0,0,1-2,5,11.74,11.74,0,0,1-3.25,3.59,7.54,7.54,0,0,1-4.48,1.36,5.37,5.37,0,0,1-4-1.61A9.93,9.93,0,0,1,332.35,63.36ZM300.11,48.89a7.42,7.42,0,0,1,.51,1.35,11.12,11.12,0,0,1,.39,3,24,24,0,0,1-.66,5.58,17.66,17.66,0,0,1-2,5,11.36,11.36,0,0,1-3.23,3.57,7.49,7.49,0,0,1-4.47,1.37,5.38,5.38,0,0,1-3.48-1.15,9.36,9.36,0,0,1-.87-4.28,22.94,22.94,0,0,1,.7-5.55,18.68,18.68,0,0,1,2-5,12.17,12.17,0,0,1,3.26-3.63,7.25,7.25,0,0,1,4.39-1.4,5.47,5.47,0,0,1,2.54.56A4.62,4.62,0,0,1,300.11,48.89Zm-69.5.55a10.27,10.27,0,0,1,.71,4,20.83,20.83,0,0,1-.38,3.85,21.32,21.32,0,0,1-1.09,3.9,20.06,20.06,0,0,1-1.78,3.56,14.74,14.74,0,0,1-2.43,2.93,11.36,11.36,0,0,1-3.08,2,2.24,2.24,0,0,1-.36.14,9.24,9.24,0,0,1-3.3.58h-.37c-.23,0-.45,0-.67,0a13.06,13.06,0,0,1-1.92-.26c-.29-.06-.56-.13-.81-.2l.52-2.39.74-3.5.56-2.66a28.62,28.62,0,0,1,1.52-4.89,20.35,20.35,0,0,1,2.29-4.16,12.06,12.06,0,0,1,2.93-2.91,6.18,6.18,0,0,1,3.5-1.09A4.94,4.94,0,0,1,230.61,49.44Z" transform="translate(-1.3 -1.29)"/><path class="cls-1" d="M107,22.14a1.48,1.48,0,0,1,0-.21,1.41,1.41,0,0,1,0-.21v-.21a1.41,1.41,0,0,1,0-.21.9.9,0,0,1,0-.23,1.48,1.48,0,0,1,0-.21,1.7,1.7,0,0,1,0-.22c0-.08,0-.15,0-.22a2.08,2.08,0,0,1,0-.23c0-.08,0-.15,0-.22l0-.23a.91.91,0,0,1,0-.23c0-.08,0-.16,0-.23a2.4,2.4,0,0,1,0-.24,1.85,1.85,0,0,1,0-.23,1.87,1.87,0,0,1,0-.25.93.93,0,0,1,0-.24c0-.08,0-.17,0-.25s0-.18.06-.26a2.44,2.44,0,0,0,.06-.26,2.29,2.29,0,0,0,.07-.28c0-.09,0-.19.09-.28s.06-.19.08-.3.07-.2.11-.31a3.43,3.43,0,0,1,.12-.33l0-.16c0-.06.05-.12.08-.19s0-.12.07-.19a1.54,1.54,0,0,0,.08-.19c0-.07.06-.15.08-.22s.06-.14.1-.21.06-.15.09-.24.06-.14.1-.22.07-.17.1-.24l.11-.25a1.92,1.92,0,0,1,.12-.25c0-.09.08-.19.13-.28a2.44,2.44,0,0,0,.14-.28l.16-.29.18-.32s0-.11.09-.17.06-.11.08-.17a1.11,1.11,0,0,0,.11-.16c0-.06.07-.13.11-.18a2,2,0,0,1,.12-.19,1.74,1.74,0,0,1,.11-.18c0-.07.09-.13.12-.19l.13-.2.15-.19a.86.86,0,0,1,.13-.2l.14-.21a1,1,0,0,0,.15-.21c0-.07.11-.14.15-.21l.16-.21.17-.22a1.46,1.46,0,0,0,.16-.21l.18-.21A1.2,1.2,0,0,1,112,9l.16-.21.18-.2.19-.21a1.9,1.9,0,0,1,.19-.21,1.62,1.62,0,0,1,.18-.2l.19-.19c.06-.06.11-.12.18-.18l.18-.19c0-.06.13-.1.17-.17l.18-.16.17-.16a.61.61,0,0,0,.16-.16l.17-.14a1.09,1.09,0,0,1,.17-.13.51.51,0,0,1,.16-.13.83.83,0,0,1,.14-.13.67.67,0,0,0,.16-.12L115,6c.11-.06.2-.13.29-.19l.26-.18.26-.15a1.67,1.67,0,0,1,.23-.12l.2-.1a1.64,1.64,0,0,1,.34-.11.87.87,0,0,1,.25,0,.24.24,0,0,1,.1.06.67.67,0,0,1,.14-.09l.26-.18a2.26,2.26,0,0,1,.26-.14,1,1,0,0,1,.23-.13,1.24,1.24,0,0,1,.2-.1,2.87,2.87,0,0,1,.34-.12,1.29,1.29,0,0,1,.25,0,.17.17,0,0,1,.13.1.39.39,0,0,1,0,.22.56.56,0,0,1-.07.16.85.85,0,0,1-.11.21c0,.07-.09.16-.15.25l-.21.3-.12.17L118,6l-.15.19a2.43,2.43,0,0,1-.14.2l-.15.21a2.49,2.49,0,0,1-.17.24,2.49,2.49,0,0,0-.17.24c0,.07-.11.15-.17.25l-.17.25-.18.26-.19.27c-.06.08-.1.18-.16.27a2.94,2.94,0,0,1-.17.26c-.06.1-.12.18-.17.28s-.1.16-.15.26-.09.18-.14.26a1.49,1.49,0,0,0-.13.25,1.19,1.19,0,0,0-.13.25c0,.08-.09.16-.13.25a1.63,1.63,0,0,0-.11.23c0,.08-.06.16-.1.23a2.18,2.18,0,0,0-.09.23c0,.07-.06.14-.1.21a.8.8,0,0,1-.07.2,1.18,1.18,0,0,1-.07.2,1.39,1.39,0,0,0-.06.19.62.62,0,0,1-.07.19,1.05,1.05,0,0,1-.05.19c0,.12-.06.23-.08.33s0,.21-.06.31l0,.29c0,.08,0,.16,0,.26v.46a.69.69,0,0,0,0,.2,1.15,1.15,0,0,0,0,.19c0,.13,0,.24.06.36s.06.2.09.3.06.17.11.26a.78.78,0,0,0,.12.22.5.5,0,0,0,.13.19.75.75,0,0,0,.13.18.92.92,0,0,0,.14.14.83.83,0,0,0,.16.12,1.11,1.11,0,0,0,.16.11,1.55,1.55,0,0,0,.32.14,5.42,5.42,0,0,0,.67.14h.3l.29,0h.28l.25,0,.24,0,.24,0a6.81,6.81,0,0,1,1.14.31A6.51,6.51,0,0,1,121.44,18a5.94,5.94,0,0,1,1.45,1.9,5.49,5.49,0,0,1,.53,2.38,6.09,6.09,0,0,1-.58,2.73,6.6,6.6,0,0,1-1.59,2.1,6.92,6.92,0,0,1-2.35,1.35c-.18.07-.36.11-.53.16a6.37,6.37,0,0,1-1.25.56,8.44,8.44,0,0,1-2.6.46h-.89l-.3,0a2.66,2.66,0,0,0-.28,0l-.27,0-.29,0a2.44,2.44,0,0,0-.26-.06,2.61,2.61,0,0,1-.27-.06l-.26-.08-.26-.09a2.38,2.38,0,0,1-.32-.12l-.31-.13a2.1,2.1,0,0,1-.3-.15l-.23-.12,0,0-.29-.17-.26-.18a2.93,2.93,0,0,1-.26-.19l-.25-.21-.23-.22-.22-.22-.2-.24a2.52,2.52,0,0,1-.21-.25c0-.08-.11-.18-.17-.26s0,0,0,0a2.07,2.07,0,0,0-.15-.25l-.17-.29c0-.1-.09-.19-.14-.29l-.13-.31c0-.11-.08-.22-.12-.32s-.07-.22-.09-.33a3,3,0,0,1-.09-.35,3.59,3.59,0,0,1-.08-.35,1.62,1.62,0,0,0,0-.19c0-.06,0-.12,0-.18a1.36,1.36,0,0,1,0-.2,1.18,1.18,0,0,1,0-.21,1.36,1.36,0,0,1,0-.2l0-.21a.71.71,0,0,0,0-.2,1.77,1.77,0,0,0,0-.22Z" transform="translate(-1.3 -1.29)"/><path class="cls-2" d="M131.35,121.45H59.71L15.94,77.67l0,0L11.46,73.2h0l.3-.27.18-.16h0l.48-.43.11-.09.38-.35h0l5.25-4.65.25-.22,11.39-10.1h0l2.34-2.09,8.48-7.53h0l.67-.6.77-.69.11-.09.4-.36,3-2.66,2.46-2.18,1.33-1.18L61.92,52l2.58,2.59,7.91,7.9,1.85,1.85Z" transform="translate(-1.3 -1.29)"/><path class="cls-3" d="M273.8,121.45H102.57L59.09,78h12.3l2.87-13.61L76,56.28H94.1l2.27-10.4H94.11l.48-2.21H78.67l2.41-11.3h19.75L105.48,37c-.07.33-.16.71-.24,1.15s-.15.73-.22,1.1c-.19.91-.41,1.9-.64,3-.33,1.55-.67,3.16-1,4.87s-.71,3.33-1,4.86-.62,2.9-.85,4.09-.43,2-.54,2.44c-.15.74-.31,1.5-.45,2.29s-.26,1.58-.37,2.34-.19,1.5-.26,2.22-.09,1.34-.09,1.91a11.57,11.57,0,0,0,.57,3.72,7.52,7.52,0,0,0,1.78,3,6.56,6.56,0,0,0,1.29,1,7.36,7.36,0,0,0,.63.75,8.35,8.35,0,0,0,3.07,1.91,13.89,13.89,0,0,0,4.48.68l1.42,0h23.42l2.34-9.51.38-1.54.23-.92.22-.93c.42-1.72.81-3.42,1.06-4.71a30,30,0,0,1,1.55-5,16.33,16.33,0,0,1,2.36-4.13,11.22,11.22,0,0,1,3.26-2.79,8.19,8.19,0,0,1,4.13-1,9.06,9.06,0,0,1,2.36.35,11,11,0,0,1,2.1.77h.07L159,37.16l4,4-.41.38c-.26.26-.51.52-.74.78a24.82,24.82,0,0,0-4.86,8.1,28.2,28.2,0,0,0-1.69,9.73,21.09,21.09,0,0,0,1,6.42,13.92,13.92,0,0,0,3.07,5.25,11.79,11.79,0,0,0,1.53,1.39l.26.31a15,15,0,0,0,5.34,3.57,20.42,20.42,0,0,0,7.78,1.33,32.21,32.21,0,0,0,4.2-.27,31.39,31.39,0,0,0,3.88-.75,30.59,30.59,0,0,0,3.38-1.06,21.89,21.89,0,0,0,2.76-1.21l1.93-9.22A25.53,25.53,0,0,1,188,67.1l.6-2.88a26.89,26.89,0,0,1-3.14,1.5A34.78,34.78,0,0,1,182,66.9a28.5,28.5,0,0,1-3.38.74,20.27,20.27,0,0,1-3.06.26,11,11,0,0,1-3.92-.61,8.08,8.08,0,0,1-1.38-.69,5.43,5.43,0,0,1-.68-1.39,7.86,7.86,0,0,1-.39-2.43v-.37a1.35,1.35,0,0,1,.07-.4,68.22,68.22,0,0,0,12.66-1.2,26,26,0,0,0,8.15-2.94,11.51,11.51,0,0,0,4.38-4.46,12.25,12.25,0,0,0,1.3-5.67v-.11a11,11,0,0,0-.82-4.12,9.71,9.71,0,0,0-1.31-2.27l11.21,11.22-.73,3.5-4,18.79c.44.28.9.55,1.39.8l-.11.49-.09.47c.41.25.84.5,1.28.72v0c.75.38,1.53.74,2.38,1.08a37.49,37.49,0,0,0,4.24,1.36,37,37,0,0,0,4.53.87,37.88,37.88,0,0,0,4.6.29,30.48,30.48,0,0,0,9.32-1.31l.13,0a26.66,26.66,0,0,0,2.93-1.15Z" transform="translate(-1.3 -1.29)"/><polygon class="cls-3" points="79.78 31.07 77.37 42.37 93.29 42.37 92.81 44.59 95.07 44.59 92.8 54.98 74.67 54.98 72.96 63.07 70.09 76.68 57.79 76.68 55.58 74.46 61.06 59.26 61.07 59.24 63.2 53.31 73.13 25.78 93.97 21.51 99.41 20.89 101.71 20.63 99.53 31.07 79.78 31.07"/><path class="cls-3" d="M159,37.16l-2.48,11.71h-.07a11,11,0,0,0-2.1-.77,9.06,9.06,0,0,0-2.36-.35,8.19,8.19,0,0,0-4.13,1,11.22,11.22,0,0,0-3.26,2.79,16.33,16.33,0,0,0-2.36,4.13,30,30,0,0,0-1.55,5c-.25,1.29-.64,3-1.06,4.71l-.22.93-.23.92-.38,1.54-2.34,9.51H113l-1.42,0a13.89,13.89,0,0,1-4.48-.68A8.35,8.35,0,0,1,104,75.72a7.36,7.36,0,0,1-.63-.75,6.56,6.56,0,0,1-1.29-1,7.52,7.52,0,0,1-1.78-3,11.57,11.57,0,0,1-.57-3.72c0-.57,0-1.21.09-1.91s.16-1.45.26-2.22.23-1.54.37-2.34.3-1.55.45-2.29c.11-.44.28-1.26.54-2.44s.52-2.54.85-4.09.67-3.15,1-4.86.71-3.32,1-4.87c.23-1.08.45-2.07.64-3,.07-.37.15-.74.22-1.1s.17-.82.24-1.15c.13-.58.22-1,.28-1.29h11l.88.87-.24.91L110,66l.94,8.23h14l9-14.69,1.89-11.4,9.27-.72,3.55-.27.83-1.2,6.59-9.41.93-1.32L158.79,37h0Z" transform="translate(-1.3 -1.29)"/><path class="cls-3" d="M195.73,47.63v.11a12.25,12.25,0,0,1-1.3,5.67,11.51,11.51,0,0,1-4.38,4.46,26,26,0,0,1-8.15,2.94A68.22,68.22,0,0,1,169.24,62a1.35,1.35,0,0,0-.07.4v.37a7.86,7.86,0,0,0,.39,2.43,5.43,5.43,0,0,0,.68,1.39,8.08,8.08,0,0,0,1.38.69,11,11,0,0,0,3.92.61,20.27,20.27,0,0,0,3.06-.26A28.5,28.5,0,0,0,182,66.9a34.78,34.78,0,0,0,3.43-1.18,26.89,26.89,0,0,0,3.14-1.5L188,67.1a25.53,25.53,0,0,0,2.4-1.19l-1.93,9.22a21.89,21.89,0,0,1-2.76,1.21,30.59,30.59,0,0,1-3.38,1.06,31.39,31.39,0,0,1-3.88.75,32.21,32.21,0,0,1-4.2.27,20.42,20.42,0,0,1-7.78-1.33,15,15,0,0,1-5.34-3.57l-.26-.31a11.79,11.79,0,0,1-1.53-1.39,13.92,13.92,0,0,1-3.07-5.25,21.09,21.09,0,0,1-1-6.42,28.2,28.2,0,0,1,1.69-9.73,24.82,24.82,0,0,1,4.86-8.1c.23-.26.48-.52.74-.78l.41-.38,1.74,1.75,2.9,2.89,7.85-2.49c.22-.08.44-.15.67-.21l14.32-4.55.36-.12.32.32.76.76,1.73,1.73a9.71,9.71,0,0,1,1.31,2.27A11,11,0,0,1,195.73,47.63Z" transform="translate(-1.3 -1.29)"/><path class="cls-3" d="M230.7,78.35a26.66,26.66,0,0,1-2.93,1.15l-.06,0h-.06l-1,.31a31.34,31.34,0,0,1-8.3,1c-.79,0-1.58,0-2.37-.08s-1.48-.12-2.23-.22l-1.16-.16a34.11,34.11,0,0,1-3.37-.7c-.73-.19-1.45-.4-2.16-.62s-1.4-.47-2.08-.74-1.37-.58-2-.9l-.38-.19h0c-.22-.11-.44-.23-.65-.36s-.43-.24-.63-.37h0l.1-.47.1-.49c-.48-.25-.93-.51-1.36-.78l0,0,.7-3.28L204.07,56l.38-1.75.37-1.75,1.28,1.29,9,9L216.39,64l-.74,3.5-.52,2.39c.25.07.52.14.81.2a13.06,13.06,0,0,0,1.92.26c.22,0,.44,0,.67,0h.37a9.24,9.24,0,0,0,3.3-.58l1.58,1.59,2.08,2.08,3.26,3.26Z" transform="translate(-1.3 -1.29)"/><path class="cls-2" d="M511.3,121.45H246.77l-44.2-44.2v0L201.37,76l-1.28-1.29,1.56,0,13.22-.45,11-.75,5.46-.38,4.4-15.88-1.5-14.4L239,40.5l.65-.32c.07.08.16.15.24.25l12.21,12.21c-.07.29-.13.6-.2.9-.4,1.92-.76,3.55-1,4.86a.42.42,0,0,0,0,.12c-.26,1.25-.42,2-.5,2.36-.15.74-.3,1.5-.45,2.29s-.27,1.58-.36,2.34-.19,1.51-.27,2.22-.09,1.33-.09,1.91a11.67,11.67,0,0,0,.57,3.73,7.07,7.07,0,0,0,.87,1.79.29.29,0,0,0,0,.09,7.31,7.31,0,0,0,1.77,2.93,8.27,8.27,0,0,0,3.07,1.91,12.61,12.61,0,0,0,4.47.69c.74,0,1.46,0,2.21-.09s1.46-.17,2.15-.29,1.34-.23,2-.36,1.15-.27,1.62-.4c.33-1.55.67-3.11,1-4.62s.64-3.08,1-4.64a8.08,8.08,0,0,1-1.39.45c.18-.76.34-1.55.51-2.33a10.69,10.69,0,0,1-3.95.78,4,4,0,0,1-2.15-.58l-.05,0V68.5a14.34,14.34,0,0,1,.35-2.94c.24-1.14.45-2.16.66-3.07l8.88-41.74h-1.3l.41-1.89,18.07,18.08-.79.2-.65.18a22.83,22.83,0,0,0-6.07,2.87,20.42,20.42,0,0,0-4.57,4.26,25.23,25.23,0,0,0-3.16,5.22,26.84,26.84,0,0,0-1.8,5.77,30.54,30.54,0,0,0-.59,5.88A20.61,20.61,0,0,0,273.3,68a14.35,14.35,0,0,0,3.21,5.36.43.43,0,0,0,.09.1c0,.09.11.16.17.26a13.68,13.68,0,0,0,1.37,1.69A15.07,15.07,0,0,0,283.59,79a21.14,21.14,0,0,0,7.76,1.29,25.62,25.62,0,0,0,7.87-1.1,22.2,22.2,0,0,0,6.11-2.94,20.48,20.48,0,0,0,4.5-4.36,26.05,26.05,0,0,0,3-5.29,28.78,28.78,0,0,0,1.72-5.73,31.59,31.59,0,0,0,.55-5.71,23.38,23.38,0,0,0-.19-3,18.54,18.54,0,0,0-1-4c-.15-.38-.3-.76-.48-1.13a13.82,13.82,0,0,0-2.73-4,12.79,12.79,0,0,0-1.27-1.66l10.8,10.8c-.14.41-.27.84-.4,1.27-.23.76-.4,1.52-.56,2.3s-.22,1.31-.32,1.95a30.84,30.84,0,0,0-.26,3.92,20.89,20.89,0,0,0,1.06,6.72,14.51,14.51,0,0,0,2.49,4.56,13.16,13.16,0,0,0,1.9,2.51A14.82,14.82,0,0,0,329.64,79a21,21,0,0,0,7.75,1.29,25.78,25.78,0,0,0,7.88-1.1,22.28,22.28,0,0,0,6.1-2.94,19.8,19.8,0,0,0,4.49-4.36,25.19,25.19,0,0,0,3-5.29,28.81,28.81,0,0,0,1.73-5.73,32.49,32.49,0,0,0,.54-5.71,22.14,22.14,0,0,0-.31-3.72,18.09,18.09,0,0,0-.84-3.22,15.94,15.94,0,0,0-1.55-3.09c-.28-.4-.56-.79-.87-1.16a12.86,12.86,0,0,0-1.39-2L368,53.78l-.14.64-4.2,19.37-.9,4.18h1.77l-.17.77-.12.57h12.51l4.21-19.78a16.09,16.09,0,0,1,1.61-4.3,19.1,19.1,0,0,1,2.61-3.77,14.21,14.21,0,0,1,3.17-2.68,6.22,6.22,0,0,1,3.21-1,4.21,4.21,0,0,1,1,.1l.92.52a5,5,0,0,1,.41,2.15,13.5,13.5,0,0,1-.24,2c-.16.88-.31,1.74-.48,2.58L388.29,78h1.77l-.29,1.34h12.47l4.1-19.78A16.12,16.12,0,0,1,408,55.19a19.14,19.14,0,0,1,2.66-3.75,14.69,14.69,0,0,1,3.18-2.66,6.17,6.17,0,0,1,3.17-1,4.69,4.69,0,0,1,1.81.31,5,5,0,0,1,.54,2.46,12.05,12.05,0,0,1-.23,2c-.16.88-.32,1.74-.47,2.58l-1.51,7L413.74,78h1.76l-.29,1.34H427.6l1.47-6.94,3.42-16.2c.11-.47.21-1,.34-1.71s.26-1.34.38-2.05.22-1.38.3-2a13.44,13.44,0,0,0,.12-1.55,12.15,12.15,0,0,0-1.71-6.77Z" transform="translate(-1.3 -1.29)"/><path class="cls-2" d="M249.75,73.37a11.67,11.67,0,0,1-.57-3.73c0-.58,0-1.21.09-1.91s.16-1.45.27-2.22.22-1.54.36-2.34.3-1.55.45-2.29c.08-.32.24-1.11.5-2.36a.42.42,0,0,1,0-.12c.27-1.31.63-2.94,1-4.86.07-.3.13-.61.2-.9l4.72,4.72,14.24-36.61.74-1.89-.41,1.89h1.3l-8.88,41.74c-.21.91-.42,1.93-.66,3.07a14.34,14.34,0,0,0-.35,2.94v.17l.05,0a4,4,0,0,0,2.15.58A10.69,10.69,0,0,0,269,68.5c-.17.78-.33,1.57-.51,2.33a8.08,8.08,0,0,0,1.39-.45c-.33,1.56-.67,3.11-1,4.64s-.65,3.07-1,4.62c-.47.13-1,.26-1.62.4s-1.27.26-2,.36-1.41.22-2.15.29-1.47.09-2.21.09a12.61,12.61,0,0,1-4.47-.69,8.27,8.27,0,0,1-3.07-1.91,7.31,7.31,0,0,1-1.77-2.93.29.29,0,0,1,0-.09A7.07,7.07,0,0,1,249.75,73.37Z" transform="translate(-1.3 -1.29)"/><path class="cls-2" d="M315.12,55.15a31.59,31.59,0,0,1-.55,5.71,28.78,28.78,0,0,1-1.72,5.73,26.05,26.05,0,0,1-3,5.29,20.48,20.48,0,0,1-4.5,4.36,22.2,22.2,0,0,1-6.11,2.94,25.62,25.62,0,0,1-7.87,1.1A21.14,21.14,0,0,1,283.59,79a15.07,15.07,0,0,1-5.45-3.55,13.68,13.68,0,0,1-1.37-1.69c-.06-.1-.12-.17-.17-.26a.43.43,0,0,1-.09-.1A14.35,14.35,0,0,1,273.3,68a20.61,20.61,0,0,1-1.05-6.71,30.54,30.54,0,0,1,.59-5.88,26.84,26.84,0,0,1,1.8-5.77,25.23,25.23,0,0,1,3.16-5.22,20.42,20.42,0,0,1,4.57-4.26,22.83,22.83,0,0,1,6.07-2.87l.65-.18.79-.2,2,2,1.85,1.86-14.14,10s1.5,17.2,1.5,18,10.55,7.77,10.55,7.77l16.59-6.72.75-20.37-.46-8.3-.05-.8v0l.15.16.88.87,0,0a12.79,12.79,0,0,1,1.27,1.66,13.82,13.82,0,0,1,2.73,4c.18.37.33.75.48,1.13a18.54,18.54,0,0,1,1,4A23.38,23.38,0,0,1,315.12,55.15Z" transform="translate(-1.3 -1.29)"/><path class="cls-2" d="M361.16,55.15a32.49,32.49,0,0,1-.54,5.71,28.81,28.81,0,0,1-1.73,5.73,25.19,25.19,0,0,1-3,5.29,19.8,19.8,0,0,1-4.49,4.36,22.28,22.28,0,0,1-6.1,2.94,25.78,25.78,0,0,1-7.88,1.1A21,21,0,0,1,329.64,79a14.82,14.82,0,0,1-5.45-3.55,13.16,13.16,0,0,1-1.9-2.51,14.51,14.51,0,0,1-2.49-4.56,20.89,20.89,0,0,1-1.06-6.72,30.84,30.84,0,0,1,.26-3.92c.1-.64.2-1.3.32-1.95s.33-1.54.56-2.3c.13-.43.26-.86.4-1.27l1.32,1.32.68.66,7.76,20,10.5.75,13.61-6.1-.76-21,1.15-6.57.13-.7,0,0L356.2,42a12.86,12.86,0,0,1,1.39,2c.31.37.59.76.87,1.16A15.94,15.94,0,0,1,360,48.21a18.09,18.09,0,0,1,.84,3.22A22.14,22.14,0,0,1,361.16,55.15Z" transform="translate(-1.3 -1.29)"/><path class="cls-2" d="M388.32,48.78a14.21,14.21,0,0,0-3.17,2.68,19.1,19.1,0,0,0-2.61,3.77,16.09,16.09,0,0,0-1.61,4.3l-4.21,19.78H364.21l.12-.57.17-.77h-1.77l.9-4.18,4.2-19.37.14-.64,4.36,4.35,10.42-6.88L390,46.43l2.51,1.44a4.21,4.21,0,0,0-1-.1A6.22,6.22,0,0,0,388.32,48.78Z" transform="translate(-1.3 -1.29)"/><path class="cls-2" d="M433.63,48.83a13.44,13.44,0,0,1-.12,1.55c-.08.65-.18,1.33-.3,2s-.25,1.39-.38,2.05-.23,1.24-.34,1.71l-3.42,16.2-1.47,6.94H415.21L415.5,78h-1.76l3.37-15.79,1.51-7c.15-.84.31-1.7.47-2.58a12.05,12.05,0,0,0,.23-2,5,5,0,0,0-.54-2.46,4.69,4.69,0,0,0-1.81-.31,6.17,6.17,0,0,0-3.17,1,14.69,14.69,0,0,0-3.18,2.66A19.14,19.14,0,0,0,408,55.19a16.12,16.12,0,0,0-1.62,4.34l-4.1,19.78H389.77l.29-1.34h-1.77l4.87-22.82c.17-.84.32-1.7.48-2.58a13.5,13.5,0,0,0,.24-2,5,5,0,0,0-.41-2.15l1,.59,7.1,4.06,9.47-4.73,3.57-1.8,6.55-3.27,7.18-4.1.41-.22.93.95,2.2,2.19A12.15,12.15,0,0,1,433.63,48.83Z" transform="translate(-1.3 -1.29)"/><path class="cls-3" d="M121.11,20.57a6.21,6.21,0,0,0-1.44-1.9,6.91,6.91,0,0,0-2.17-1.24,8.44,8.44,0,0,0-1.15-.31,1.14,1.14,0,0,1-.24-.05l-.24,0a1.29,1.29,0,0,1-.25,0h-.28l-.28,0h-.3a2.79,2.79,0,0,1-.33-.06,1.5,1.5,0,0,1-.35-.09,1.21,1.21,0,0,1-.33-.15.49.49,0,0,1-.15-.1,1.53,1.53,0,0,1-.16-.11l-.14-.15-.1-.1v0a0,0,0,0,1,0,0l0,0A.91.91,0,0,1,113,16a1.23,1.23,0,0,1-.11-.23c0-.08-.07-.18-.11-.26a.19.19,0,0,0,0-.07h0a.71.71,0,0,0-.07-.22c0-.12,0-.22-.06-.35s0-.12,0-.19a.71.71,0,0,1,0-.21V14c0-.09,0-.18,0-.26a1.69,1.69,0,0,1,0-.3,1.6,1.6,0,0,1,0-.29,3.18,3.18,0,0,1,.08-.33,1.06,1.06,0,0,0,.06-.19,1.39,1.39,0,0,0,.06-.19c0-.06,0-.12.06-.19a1,1,0,0,0,.07-.21.8.8,0,0,0,.07-.2c0-.07.06-.14.1-.21s.05-.14.08-.23a2.26,2.26,0,0,0,.11-.22,2.35,2.35,0,0,0,.11-.24l.13-.25a2,2,0,0,1,.13-.25,2,2,0,0,1,.13-.25c0-.08.09-.17.14-.26a2.43,2.43,0,0,0,.15-.26c0-.09.11-.18.17-.27a2.33,2.33,0,0,1,.17-.26,1.56,1.56,0,0,1,.16-.28c.06-.09.13-.17.19-.27l.18-.26.17-.25.17-.25.17-.24c.06-.07.11-.15.17-.23s.09-.13.15-.22a2.43,2.43,0,0,0,.14-.2l.15-.19.13-.18.12-.16.21-.3c.06-.09.11-.19.15-.26a.81.81,0,0,0,.11-.2.77.77,0,0,0,.07-.17.4.4,0,0,0,0-.22s0,0,0,0a.24.24,0,0,0-.1-.06.87.87,0,0,0-.25,0,1.64,1.64,0,0,0-.34.11l-.2.1a1.67,1.67,0,0,0-.23.12l-.26.15-.26.18c-.09.06-.18.13-.29.19l-.15.12a.67.67,0,0,1-.16.12.83.83,0,0,0-.14.13.51.51,0,0,0-.16.13,1.09,1.09,0,0,0-.17.13l-.17.14a.61.61,0,0,1-.16.16l-.17.16-.18.16c0,.07-.12.11-.17.17l-.18.19c-.07.06-.12.12-.18.18l-.19.19a1.62,1.62,0,0,0-.18.2,1.9,1.9,0,0,0-.19.21l-.19.21-.18.2L112,9a1.2,1.2,0,0,0-.17.21l-.18.21a1.46,1.46,0,0,1-.16.21l-.17.22-.16.21c0,.07-.1.14-.15.21a1,1,0,0,1-.15.21c0,.07-.1.14-.14.21a.86.86,0,0,0-.13.2l-.15.19-.13.2c0,.06-.08.12-.12.19a1.74,1.74,0,0,0-.11.18,2,2,0,0,0-.12.19c0,.05-.07.12-.11.18a1.11,1.11,0,0,1-.11.16c0,.06-.06.12-.08.17s-.06.12-.09.17l-.18.32-.16.29a2.44,2.44,0,0,1-.14.28c0,.09-.09.19-.13.28a1.92,1.92,0,0,0-.12.25,2.72,2.72,0,0,1-.11.25c0,.07-.07.15-.1.24s-.06.15-.1.22-.07.16-.09.24-.06.14-.1.21-.06.15-.08.22a1.54,1.54,0,0,1-.08.19c0,.07,0,.13-.07.19s0,.13-.08.19l0,.16a3.43,3.43,0,0,0-.12.33c0,.11-.07.22-.11.31s-.06.21-.08.3-.06.19-.09.28a2.29,2.29,0,0,1-.07.28,2.44,2.44,0,0,1-.06.26c0,.08,0,.16-.06.26s0,.17,0,.25a.93.93,0,0,0,0,.24,1.87,1.87,0,0,0,0,.25,1.85,1.85,0,0,0,0,.23,2.4,2.4,0,0,0,0,.24c0,.07,0,.15,0,.23a.91.91,0,0,0,0,.23l0,.23c0,.07,0,.14,0,.22a2.08,2.08,0,0,0,0,.23c0,.07,0,.14,0,.22a1.7,1.7,0,0,0,0,.22,1.48,1.48,0,0,0,0,.21.9.9,0,0,0,0,.23,1.41,1.41,0,0,0,0,.21v.21a1.41,1.41,0,0,0,0,.21,1.48,1.48,0,0,0,0,.21v.4a1.77,1.77,0,0,1,0,.22.71.71,0,0,1,0,.2l0,.21a1.36,1.36,0,0,0,0,.2,1.18,1.18,0,0,0,0,.21,1.36,1.36,0,0,0,0,.2c0,.06,0,.12,0,.18a1.62,1.62,0,0,1,0,.19,3.59,3.59,0,0,0,.08.35,3,3,0,0,0,.09.35c0,.11.06.22.09.33s.07.21.12.32l.13.31c0,.1.1.19.14.29l.17.29a2.07,2.07,0,0,1,.15.25s0,0,0,0,.12.18.17.26a2.52,2.52,0,0,0,.21.25l.2.24.22.22.23.22.25.21a2.93,2.93,0,0,0,.26.19l.26.18.29.17,0,0,.23.12a2.1,2.1,0,0,0,.3.15l.31.13a2.38,2.38,0,0,0,.32.12l.26.09.26.08a2.61,2.61,0,0,0,.27.06,2.44,2.44,0,0,1,.26.06l.29,0,.27,0a2.66,2.66,0,0,1,.28,0l.3,0h.89a8.44,8.44,0,0,0,2.6-.46,6.37,6.37,0,0,0,1.25-.56,6.23,6.23,0,0,0,1.1-.78,6.71,6.71,0,0,0,1.59-2.1,6.29,6.29,0,0,0,.58-2.73A5.5,5.5,0,0,0,121.11,20.57Z" transform="translate(-1.3 -1.29)"/><path class="cls-3" d="M101.23,19.71l-.46,2.22-.06.26-1.66,8H79.3L76.42,43.67H94.59l-.48,2.21-1.79,8.18H74.19l-1.78,8.45-2.8,13.24H56.87L61.92,52l6.35-29.86.06-.27a3,3,0,0,1,2.86-2.18Z" transform="translate(-1.3 -1.29)"/><path class="cls-4" d="M122.89,19.85a5.94,5.94,0,0,0-1.45-1.9,6.51,6.51,0,0,0-2.17-1.24,6.81,6.81,0,0,0-1.14-.31l-.24,0-.24,0-.25,0h-.28l-.29,0h-.3a5.42,5.42,0,0,1-.67-.14,1.55,1.55,0,0,1-.32-.14,1.11,1.11,0,0,1-.16-.11.83.83,0,0,1-.16-.12.92.92,0,0,1-.14-.14.75.75,0,0,1-.13-.18.5.5,0,0,1-.13-.19.78.78,0,0,1-.12-.22c0-.09-.07-.18-.11-.26s-.06-.19-.09-.3,0-.23-.06-.36a1.15,1.15,0,0,1,0-.19.69.69,0,0,1,0-.2v-.46c0-.1,0-.18,0-.26l0-.29c0-.1,0-.2.06-.31s0-.21.08-.33a1.05,1.05,0,0,0,.05-.19.62.62,0,0,0,.07-.19,1.39,1.39,0,0,1,.06-.19,1.18,1.18,0,0,0,.07-.2.8.8,0,0,0,.07-.2c0-.07.06-.14.1-.21a2.18,2.18,0,0,1,.09-.23c0-.07.06-.15.1-.23a1.63,1.63,0,0,1,.11-.23c0-.09.09-.17.13-.25a1.19,1.19,0,0,1,.13-.25,1.49,1.49,0,0,1,.13-.25c.05-.08.09-.18.14-.26S116,9,116,8.9s.11-.18.17-.28a2.94,2.94,0,0,0,.17-.26c.06-.09.1-.19.16-.27l.19-.27.18-.26.17-.25c.06-.1.12-.18.17-.25a2.49,2.49,0,0,1,.17-.24,2.49,2.49,0,0,0,.17-.24l.15-.21a2.43,2.43,0,0,0,.14-.2L118,6l.13-.18.12-.17.21-.3c.06-.09.11-.18.15-.25a.85.85,0,0,0,.11-.21.56.56,0,0,0,.07-.16.39.39,0,0,0,0-.22.17.17,0,0,0-.13-.1,1.29,1.29,0,0,0-.25,0,2.87,2.87,0,0,0-.34.12,1.24,1.24,0,0,0-.2.1,1,1,0,0,0-.23.13,2.26,2.26,0,0,0-.26.14l-.26.18a.67.67,0,0,0-.14.09l-.15.11a1,1,0,0,1-.15.1l-.14.12-.17.13-.15.13L116,5.9l-.17.14a.77.77,0,0,1-.16.15l-.17.17a.81.81,0,0,0-.16.16,1.08,1.08,0,0,0-.19.17l-.18.19-.19.18-.18.19-.18.2-.2.2-.18.21c-.06.06-.12.14-.18.21l-.16.21a1.63,1.63,0,0,0-.17.2l-.18.22c0,.07-.11.14-.16.21l-.17.21a1.7,1.7,0,0,0-.15.22l-.16.21c-.06.07-.09.14-.15.2a1.64,1.64,0,0,0-.14.22.69.69,0,0,0-.13.2c-.06.06-.1.13-.15.19l-.13.2-.12.19-.13.18-.1.19-.11.17a1,1,0,0,0-.09.17.62.62,0,0,0-.1.17c0,.06-.06.12-.09.16l-.18.32c0,.11-.11.2-.16.3a2.29,2.29,0,0,1-.14.27l-.14.29c0,.07-.07.16-.11.25s-.07.16-.11.25a1.15,1.15,0,0,0-.1.23,1.23,1.23,0,0,1-.11.23c0,.08-.06.15-.08.24s-.06.14-.1.21-.06.14-.08.21a1.54,1.54,0,0,0-.08.19c0,.07,0,.13-.07.19s0,.13-.08.19a.61.61,0,0,1-.07.17c0,.12-.07.22-.1.33s-.07.21-.11.31-.06.2-.08.3-.06.19-.09.28a1.76,1.76,0,0,1-.07.27,2,2,0,0,1-.06.26c0,.09,0,.17-.06.27s0,.16,0,.25a1.06,1.06,0,0,0,0,.23c0,.09,0,.17-.05.25l0,.24a1.72,1.72,0,0,0,0,.24c0,.07,0,.15,0,.22a2,2,0,0,0,0,.24,1.64,1.64,0,0,1,0,.22c0,.08,0,.16,0,.23a1.77,1.77,0,0,0,0,.21c0,.09,0,.16,0,.24a1.48,1.48,0,0,0,0,.21,1.7,1.7,0,0,0,0,.22.82.82,0,0,0,0,.22,1.62,1.62,0,0,0,0,.22V21a1.27,1.27,0,0,0,0,.2,1.7,1.7,0,0,0,0,.22v.4a1.55,1.55,0,0,1,0,.21.68.68,0,0,1,0,.2l0,.22a1.36,1.36,0,0,0,0,.2,1.2,1.2,0,0,0,0,.2,1.36,1.36,0,0,0,0,.2c0,.06,0,.12,0,.18a1.62,1.62,0,0,1,0,.19c0,.13,0,.24.07.37s.06.22.1.33a2.62,2.62,0,0,0,.09.33,3,3,0,0,0,.12.32c0,.1.08.21.13.31s.1.19.14.3l.17.28.18.28c0,.08.12.18.17.26l.21.25c.06.08.13.15.2.23a2.39,2.39,0,0,0,.22.23l.23.21.25.22.25.19.27.18a2.52,2.52,0,0,0,.29.16l.28.16.3.15.31.13.32.12c.08,0,.16.06.26.08l.26.09.26,0,.27.06a1.47,1.47,0,0,0,.29.05l.27,0,.28,0a2.77,2.77,0,0,0,.3,0h.89a8.28,8.28,0,0,0,2.07-.3c.17-.05.35-.09.53-.16a6.92,6.92,0,0,0,2.35-1.35,6.6,6.6,0,0,0,1.59-2.1,6.09,6.09,0,0,0,.58-2.73A5.49,5.49,0,0,0,122.89,19.85Z" transform="translate(-1.3 -1.29)"/><path class="cls-3" d="M157.05,35.25l-.3,1.39-2.2,10.45h-.08a10.55,10.55,0,0,0-2.1-.77A9,9,0,0,0,150,46h-.48a8,8,0,0,0-3.66,1,7.82,7.82,0,0,0-.72.45,11.34,11.34,0,0,0-2.52,2.34,16.4,16.4,0,0,0-2.37,4.13,28.55,28.55,0,0,0-1.54,5c-.25,1.29-.64,3-1.07,4.71l-.23.93-.22.92-.37,1.54-2.34,9.51H111.07c-.44,0-.93,0-1.43,0a13.93,13.93,0,0,1-4.48-.68,8.86,8.86,0,0,1-1.77-.88,6.56,6.56,0,0,1-1.29-1,7.52,7.52,0,0,1-1.78-3,11.57,11.57,0,0,1-.57-3.72c0-.57,0-1.21.09-1.91s.16-1.45.26-2.22.23-1.54.37-2.34.3-1.55.45-2.29c.11-.44.28-1.26.54-2.44s.52-2.54.85-4.09.67-3.15,1-4.86.71-3.32,1-4.87c.23-1.08.45-2.07.64-3,.07-.37.15-.74.22-1.1s.17-.82.24-1.15c.13-.58.22-1,.28-1.29h12.52l-.38,1.78-4.39,20.73c-.21.91-.44,1.93-.66,3.06a14.6,14.6,0,0,0-.36,3,2.24,2.24,0,0,0,.94,2.08,3,3,0,0,0,1.06.43c.28.06.62.1,1.09.15,1.92.2,2.88.3,3.36.31,1.47,0,2.88-.06,4.12-.13h.09c.42,0,1-.1,1.31-.43a2,2,0,0,0,.31-.59,3,3,0,0,0,.16-.72c0-.22.08-.45.1-.68.21-1.23,2.47-11.3,3.13-14.35a.17.17,0,0,1,0-.08c.18-.83.44-2.14.76-3.8.25-1.29.47-2.59.7-3.84s.42-2.5.59-3.66.3-2.24.4-3.2h12.24c-.06.57-.12,1.16-.19,1.78,0,.17,0,.38-.06.57q-.15,1.2-.27,2.31c-.1.75-.19,1.41-.28,2l-.21,1.41H142a29.91,29.91,0,0,1,2.53-4A18.91,18.91,0,0,1,147.09,37a9.33,9.33,0,0,1,6.21-2.28,10.07,10.07,0,0,1,2,.19C155.93,35.07,156.53,35.18,157.05,35.25Z" transform="translate(-1.3 -1.29)"/><path class="cls-3" d="M193.12,41.83a8.7,8.7,0,0,0-1.52-2.52c-.15-.19-.33-.38-.49-.56s-.22-.21-.32-.32l-.24-.22A12.63,12.63,0,0,0,186,35.69a20.86,20.86,0,0,0-6.71-.95A22.92,22.92,0,0,0,163,41.16l-.41.38c-.26.26-.51.52-.74.78a24.82,24.82,0,0,0-4.86,8.1,28.2,28.2,0,0,0-1.69,9.73,21.09,21.09,0,0,0,1,6.42,13.92,13.92,0,0,0,3.07,5.25,11.79,11.79,0,0,0,1.53,1.39,16.42,16.42,0,0,0,3.81,2.19,20.41,20.41,0,0,0,7.77,1.32,30.85,30.85,0,0,0,4.22-.27,35.1,35.1,0,0,0,3.85-.73,34,34,0,0,0,3.39-1.06,26.57,26.57,0,0,0,2.77-1.21L188,67.1l.6-2.88a26.89,26.89,0,0,1-3.14,1.5A34.78,34.78,0,0,1,182,66.9a28.5,28.5,0,0,1-3.38.74,20.27,20.27,0,0,1-3.06.26,11,11,0,0,1-3.92-.61,8.08,8.08,0,0,1-1.38-.69,6,6,0,0,1-1.13-.9,5.55,5.55,0,0,1-1.36-2.18,7.9,7.9,0,0,1-.39-2.42v-.37a1.81,1.81,0,0,1,.08-.42,67.59,67.59,0,0,0,12.67-1.19,26.09,26.09,0,0,0,8.15-2.95,11.51,11.51,0,0,0,4.38-4.46,12.11,12.11,0,0,0,1.05-3.07,13,13,0,0,0,.25-2.6A11.08,11.08,0,0,0,193.12,41.83ZM168.23,52.68a15.8,15.8,0,0,1,1.4-3.91,12.23,12.23,0,0,1,2.25-3.13,10.12,10.12,0,0,1,2.9-2.06,5.38,5.38,0,0,1,.66-.27c.22-.08.44-.15.67-.21a7.6,7.6,0,0,1,2-.25,4.36,4.36,0,0,1,3,.95,3.14,3.14,0,0,1,.82,1.09,3.33,3.33,0,0,1,.26,1.31c0,2.14-1.16,3.77-3.45,4.89a21.17,21.17,0,0,1-8.22,1.58C169.78,52.68,169,52.71,168.23,52.68Z" transform="translate(-1.3 -1.29)"/><path class="cls-5" d="M243.44,48.34a18.32,18.32,0,0,0-.63-2.78,16.49,16.49,0,0,0-1.19-2.78,11.44,11.44,0,0,0-1.32-1.9c-.13-.16-.27-.31-.4-.45s-.17-.17-.24-.25a10,10,0,0,0-3.17-2.12,12.35,12.35,0,0,0-4.86-.94,13.78,13.78,0,0,0-7.25,2,16,16,0,0,0-2.84,2.23c-.18.19-.37.37-.53.56a24.57,24.57,0,0,0-1.89,2.26h-.31c.13-.44.28-1,.43-1.63s.32-1.3.49-2,.34-1.42.51-2.12.31-1.33.41-1.87L224,20.62l.37-1.76H211.93l-7.12,33.6-.36,1.75L204.08,56,201.67,67.3l0,.15-.85,4-.7,3.28,0,0c.43.27.88.53,1.36.78h0a24.06,24.06,0,0,0,2.28,1l.29.11a36.76,36.76,0,0,0,8.49,2.11,35.72,35.72,0,0,0,4.59.3,30.46,30.46,0,0,0,8.9-1.18c.19-.06.37-.12.56-.16.89-.3,1.72-.63,2.53-1h0a22.48,22.48,0,0,0,9.38-7.65,28.5,28.5,0,0,0,3.11-5.85,29.55,29.55,0,0,0,1.61-5.92,32.67,32.67,0,0,0,.48-5.26A23.29,23.29,0,0,0,243.44,48.34Zm-23.87,2.24a11.5,11.5,0,0,1,2.93-2.9,6.09,6.09,0,0,1,3.5-1.1,4.52,4.52,0,0,1,4.06,1.86,5.68,5.68,0,0,1,.55,1,10.27,10.27,0,0,1,.71,4,20.83,20.83,0,0,1-.38,3.85,21.32,21.32,0,0,1-1.09,3.9,20.06,20.06,0,0,1-1.78,3.56,14.74,14.74,0,0,1-2.43,2.93,11.36,11.36,0,0,1-3.08,2,2.24,2.24,0,0,1-.36.14,9.24,9.24,0,0,1-3.3.58h-.37c-.23,0-.45,0-.67,0a13.06,13.06,0,0,1-1.92-.26c-.29-.06-.56-.12-.81-.19a8.09,8.09,0,0,1-1.44-.54l.67-3.15.74-3.5.66-3.12a28.52,28.52,0,0,1,1.52-4.88A20.65,20.65,0,0,1,219.57,50.58Z" transform="translate(-1.3 -1.29)"/><path class="cls-5" d="M259.3,18.86c-.07.35-.25,1.18-.52,2.5s-.63,2.93-1,4.85-.86,4.08-1.36,6.44-1,4.76-1.54,7.22-1.05,4.88-1.54,7.24q-.64,3-1.18,5.53c-.07.29-.13.6-.2.9-.4,1.92-.76,3.55-1,4.86a.42.42,0,0,0,0,.12c-.26,1.25-.42,2-.5,2.36-.15.74-.3,1.5-.45,2.29s-.27,1.58-.36,2.34-.19,1.51-.27,2.22-.09,1.33-.09,1.91a11.67,11.67,0,0,0,.57,3.73,7.07,7.07,0,0,0,.87,1.79,6.51,6.51,0,0,0,.9,1.15,8.3,8.3,0,0,0,3.07,1.91,12.84,12.84,0,0,0,4.47.69c.74,0,1.46,0,2.22-.11s1.45-.15,2.14-.27,1.34-.24,2-.37,1.15-.26,1.62-.39c.33-1.57.67-3.11,1-4.63.09-.44.19-.89.28-1.33s.13-.65.19-1c.18-.76.34-1.55.51-2.33a10.69,10.69,0,0,1-3.95.78,4,4,0,0,1-2.15-.58l-.05,0a2.27,2.27,0,0,1-.89-2,14.43,14.43,0,0,1,.35-2.95c.24-1.14.46-2.16.67-3.07l8.11-38.14.35-1.72.41-1.89Z" transform="translate(-1.3 -1.29)"/><path class="cls-5" d="M312.79,47.66a15.11,15.11,0,0,0-.46-1.49,15.3,15.3,0,0,0-1.58-3.1.61.61,0,0,0-.07-.1c-.18-.27-.37-.54-.57-.8s-.41-.51-.63-.76l0,0c-.15-.18-.32-.35-.49-.53s-.26-.22-.39-.34h0l-.14-.13a15,15,0,0,0-4.9-2.91,21.13,21.13,0,0,0-7.41-1.2,27.12,27.12,0,0,0-6.24.68l-.79.2-.65.18a22.83,22.83,0,0,0-6.07,2.87,20.42,20.42,0,0,0-4.57,4.26,25.23,25.23,0,0,0-3.16,5.22,26.84,26.84,0,0,0-1.8,5.77,30.54,30.54,0,0,0-.59,5.88A20.61,20.61,0,0,0,273.3,68a14.35,14.35,0,0,0,3.21,5.36.43.43,0,0,0,.09.1l.33.34A15.21,15.21,0,0,0,282,77a17.45,17.45,0,0,0,3.33.91.1.1,0,0,0,.08,0,28.36,28.36,0,0,0,12.23-.74,22.16,22.16,0,0,0,6.1-3,19.63,19.63,0,0,0,4.5-4.36,26.17,26.17,0,0,0,3-5.3,28.69,28.69,0,0,0,1.72-5.72,30.49,30.49,0,0,0,.53-5.21c0-.17,0-.33,0-.5A20.14,20.14,0,0,0,312.79,47.66Zm-27.41,8.11a18.59,18.59,0,0,1,2-5,12,12,0,0,1,3.27-3.64,7.24,7.24,0,0,1,4.39-1.41,5.41,5.41,0,0,1,2.54.57,5.59,5.59,0,0,1,1.86,1.56,6.44,6.44,0,0,1,.64,1,7.42,7.42,0,0,1,.51,1.35,11.12,11.12,0,0,1,.39,3,24,24,0,0,1-.66,5.58,17.66,17.66,0,0,1-2,5,11.36,11.36,0,0,1-3.23,3.57,7.49,7.49,0,0,1-4.47,1.37,5.38,5.38,0,0,1-3.48-1.15,5,5,0,0,1-.85-.81,8.33,8.33,0,0,1-1.66-5.51A22.41,22.41,0,0,1,285.38,55.77Z" transform="translate(-1.3 -1.29)"/><path class="cls-3" d="M314.93,52.19a18.54,18.54,0,0,0-1-4c-.15-.38-.3-.76-.48-1.13a13.82,13.82,0,0,0-2.73-4,.61.61,0,0,0-.07-.1l-.07-.08a13.59,13.59,0,0,0-2.13-1.72,15.41,15.41,0,0,0-3.32-1.67,21.31,21.31,0,0,0-7.4-1.2,27.41,27.41,0,0,0-5.92.6l-.81.18-.95.28A22.39,22.39,0,0,0,284,42.23a20.24,20.24,0,0,0-4.58,4.26,25.18,25.18,0,0,0-3.15,5.22,26.86,26.86,0,0,0-1.81,5.77,29.76,29.76,0,0,0-.59,5.88,20.61,20.61,0,0,0,1.06,6.71,14.64,14.64,0,0,0,1.66,3.42c0,.09.11.16.17.26a13.68,13.68,0,0,0,1.37,1.69A15.07,15.07,0,0,0,283.59,79a21.14,21.14,0,0,0,7.76,1.29,25.62,25.62,0,0,0,7.87-1.1,22.2,22.2,0,0,0,6.11-2.94,20.48,20.48,0,0,0,4.5-4.36,26.05,26.05,0,0,0,3-5.29,28.78,28.78,0,0,0,1.72-5.73,31.59,31.59,0,0,0,.55-5.71A23.38,23.38,0,0,0,314.93,52.19ZM301.11,49.9a7.23,7.23,0,0,1,1.15,2.38,11.17,11.17,0,0,1,.39,3A24.2,24.2,0,0,1,302,60.9a17.23,17.23,0,0,1-2,5,11.06,11.06,0,0,1-3.24,3.57,7.53,7.53,0,0,1-4.47,1.38,5.55,5.55,0,0,1-5.11-3.19,9.36,9.36,0,0,1-.87-4.28,22.94,22.94,0,0,1,.7-5.55,18.68,18.68,0,0,1,2-5,12.17,12.17,0,0,1,3.26-3.63,7.25,7.25,0,0,1,4.39-1.4,5.47,5.47,0,0,1,2.54.56,4.62,4.62,0,0,1,.87.56A5.63,5.63,0,0,1,301.11,49.9Z" transform="translate(-1.3 -1.29)"/><path class="cls-5" d="M359.94,52.29a19.52,19.52,0,0,0-1.12-5.78c-.16-.41-.33-.84-.52-1.23a11.9,11.9,0,0,0-.71-1.32,12.86,12.86,0,0,0-1.39-2c-.24-.27-.49-.54-.73-.79a9.84,9.84,0,0,0-.76-.7l0,0A14.89,14.89,0,0,0,350,37.8a21.4,21.4,0,0,0-7.41-1.2,26.09,26.09,0,0,0-7.67,1.06,22.32,22.32,0,0,0-6.08,2.88,20.15,20.15,0,0,0-4.57,4.25A24.76,24.76,0,0,0,321.14,50c-.31.73-.6,1.45-.86,2.2-.14.41-.27.84-.4,1.27-.23.76-.4,1.52-.56,2.3s-.22,1.31-.32,1.95a30.84,30.84,0,0,0-.26,3.92,20.89,20.89,0,0,0,1.06,6.72,14.51,14.51,0,0,0,2.49,4.56c.22.27.46.54.71.8a14.55,14.55,0,0,0,5.45,3.56,21.06,21.06,0,0,0,7.76,1.3,26.52,26.52,0,0,0,7.88-1.09,22.4,22.4,0,0,0,6.09-3,19,19,0,0,0,4.49-4.37,24.5,24.5,0,0,0,3-5.29,28.75,28.75,0,0,0,1.72-5.72,32.4,32.4,0,0,0,.54-5.71C360,53.06,360,52.67,359.94,52.29Zm-28.08,3.82a18.8,18.8,0,0,1,2-5,12,12,0,0,1,3.27-3.64,7.33,7.33,0,0,1,4.39-1.41,5.48,5.48,0,0,1,2.55.57A5.56,5.56,0,0,1,346,48.2a6.09,6.09,0,0,1,.69,1.13,8.75,8.75,0,0,1,.46,1.25,11.22,11.22,0,0,1,.39,3,24.12,24.12,0,0,1-.66,5.59,18.11,18.11,0,0,1-2,5,11.74,11.74,0,0,1-3.25,3.59,7.54,7.54,0,0,1-4.48,1.36,5.37,5.37,0,0,1-4-1.61l-.32-.35a8.31,8.31,0,0,1-1.66-5.52A23,23,0,0,1,331.86,56.11Z" transform="translate(-1.3 -1.29)"/><path class="cls-3" d="M360.85,51.43a18.09,18.09,0,0,0-.84-3.22,15.94,15.94,0,0,0-1.55-3.09c-.28-.4-.56-.79-.87-1.16a13.71,13.71,0,0,0-.95-1.07,14,14,0,0,0-2.1-1.7,15.31,15.31,0,0,0-3.33-1.69,21.4,21.4,0,0,0-7.41-1.2,26.11,26.11,0,0,0-7.68,1.06,22.68,22.68,0,0,0-6.07,2.87,20,20,0,0,0-4.57,4.26,24.8,24.8,0,0,0-3.16,5.22c-.26.59-.5,1.2-.72,1.82-.14.41-.29.83-.42,1.25a26.62,26.62,0,0,0-.67,2.7c-.12.63-.23,1.26-.31,1.87a30.58,30.58,0,0,0-.27,4A20.88,20.88,0,0,0,321,70.07a15.84,15.84,0,0,0,1.31,2.86,13.16,13.16,0,0,0,1.9,2.51A14.82,14.82,0,0,0,329.64,79a21,21,0,0,0,7.75,1.29,25.78,25.78,0,0,0,7.88-1.1,22.28,22.28,0,0,0,6.1-2.94,19.8,19.8,0,0,0,4.49-4.36,25.19,25.19,0,0,0,3-5.29,28.81,28.81,0,0,0,1.73-5.73,32.49,32.49,0,0,0,.54-5.71A22.14,22.14,0,0,0,360.85,51.43Zm-13.7-1.53a6.85,6.85,0,0,1,1.15,2.38,11.17,11.17,0,0,1,.39,3A24.74,24.74,0,0,1,348,60.9a18.45,18.45,0,0,1-1.81,4.67l-.16.31a11.34,11.34,0,0,1-3.26,3.57,6.41,6.41,0,0,1-1.4.78,7.68,7.68,0,0,1-3.07.6,5.41,5.41,0,0,1-4.32-2,6.5,6.5,0,0,1-.87-1.35,9.93,9.93,0,0,1-.79-4.16,22.94,22.94,0,0,1,.7-5.55,18.68,18.68,0,0,1,2-5,12,12,0,0,1,3.26-3.63,7.27,7.27,0,0,1,4.39-1.4,5.61,5.61,0,0,1,2.56.56,5.44,5.44,0,0,1,1.35,1A7.26,7.26,0,0,1,347.15,49.9Z" transform="translate(-1.3 -1.29)"/><path class="cls-5" d="M430.73,41.21a6.75,6.75,0,0,0-.69-1l0,0,0,0a1.46,1.46,0,0,0-.16-.19l-.21-.25a8.69,8.69,0,0,0-.83-.77,10.47,10.47,0,0,0-6.66-2,14.92,14.92,0,0,0-4.38.67,18.91,18.91,0,0,0-4.14,1.87,22.17,22.17,0,0,0-3.75,2.9,25.78,25.78,0,0,0-2.23,2.42,15.94,15.94,0,0,0-1,1.29,11,11,0,0,0-2.37-6.29c-.13-.14-.26-.29-.41-.44Q401.46,37,396.77,37a12.76,12.76,0,0,0-4,.67,18.43,18.43,0,0,0-3.85,1.81,23.07,23.07,0,0,0-3.59,2.74c-.45.43-.9.87-1.33,1.33-.64.68-1.24,1.39-1.81,2.13H382c.05-.24.12-.63.19-1.19s.17-1.21.26-1.93.18-1.5.28-2.29c0-.32.07-.64.1-1s.1-.89.15-1.32H370.82c-.08.65-.19,1.46-.33,2.4s-.31,2-.5,3.09-.39,2.27-.62,3.48-.47,2.42-.71,3.62L368,53.78l-.14.64-4.2,19.37-.9,4.18h12.5l4.22-19.77q.18-.78.42-1.56a16.45,16.45,0,0,1,1.19-2.75,20.15,20.15,0,0,1,1.69-2.64c.29-.39.6-.77.92-1.13a15.55,15.55,0,0,1,2.22-2,11.15,11.15,0,0,1,.95-.63,6.23,6.23,0,0,1,3.2-1,3.63,3.63,0,0,1,2.88,1.08,4,4,0,0,1,.41.58,1.17,1.17,0,0,1,.14.3,5,5,0,0,1,.41,2.15,13.5,13.5,0,0,1-.24,2c-.16.88-.31,1.74-.48,2.58L388.29,78h12.47l4.1-19.77a15.67,15.67,0,0,1,1.62-4.34,19,19,0,0,1,2.66-3.75,14.69,14.69,0,0,1,1.94-1.8c.17-.15.36-.28.54-.41s.47-.31.71-.45a6.63,6.63,0,0,1,2.32-.94,4,4,0,0,1,.83-.08,4.56,4.56,0,0,1,2,.38,2.76,2.76,0,0,1,.94.7,3.24,3.24,0,0,1,.4.57,5,5,0,0,1,.54,2.46,12.05,12.05,0,0,1-.23,2c-.16.88-.32,1.74-.47,2.58l-1.51,7L413.74,78h12.38l2.74-13L431,54.84c.1-.47.22-1,.35-1.71s.25-1.34.37-2.05.21-1.39.3-2,.12-1.17.12-1.56A12.55,12.55,0,0,0,430.73,41.21Z" transform="translate(-1.3 -1.29)"/><path class="cls-3" d="M431.92,42.06s0,0,0,0a8.06,8.06,0,0,0-.81-1,.66.66,0,0,0-.15-.14,6.65,6.65,0,0,0-1.12-.94l-.11-.07a8.12,8.12,0,0,0-1.34-.73,12.44,12.44,0,0,0-4.77-.84,14.92,14.92,0,0,0-4.38.67,19,19,0,0,0-4.14,1.88,23.05,23.05,0,0,0-3.75,2.89,28.24,28.24,0,0,0-3.24,3.71,14.71,14.71,0,0,0-.47-2.62,9.52,9.52,0,0,0-2.3-4.11,7.1,7.1,0,0,0-1.08-.89,10.64,10.64,0,0,0-6-1.53,12.71,12.71,0,0,0-4,.67,19,19,0,0,0-3.86,1.81,23.63,23.63,0,0,0-3.58,2.74A27.4,27.4,0,0,0,383.67,47h-.15c0-.24.12-.64.19-1.2s.16-1.2.25-1.93c0-.12,0-.23,0-.34.09-.63.16-1.27.24-1.94s.18-1.57.25-2.31H372.3c-.08.67-.2,1.46-.33,2.43s-.31,2-.5,3.07-.39,2.28-.61,3.49-.48,2.42-.72,3.6l-.72,3.36h0l-.14.63L364.5,78l-.17.77-.12.57h12.51l4.21-19.78a16.09,16.09,0,0,1,1.61-4.3,19.1,19.1,0,0,1,2.61-3.77,14.21,14.21,0,0,1,3.17-2.68,6.22,6.22,0,0,1,3.21-1,4.21,4.21,0,0,1,1,.1,2.81,2.81,0,0,1,.78.22,3,3,0,0,1,1.07.75s.08.09.11.14a4.51,4.51,0,0,1,.85,2.88,12.06,12.06,0,0,1-.24,2c-.15.89-.31,1.76-.47,2.59L390.06,78l-.29,1.34h12.47l4.1-19.78A16.12,16.12,0,0,1,408,55.19a19.14,19.14,0,0,1,2.66-3.75,14.69,14.69,0,0,1,3.18-2.66,6.17,6.17,0,0,1,3.17-1,4.69,4.69,0,0,1,1.81.31,2.9,2.9,0,0,1,1.08.76,4.44,4.44,0,0,1,.94,3,14,14,0,0,1-.22,2c-.17.89-.32,1.76-.49,2.59l-.35,1.64L415.5,78l-.29,1.34H427.6l1.47-6.94,3.42-16.2c.11-.47.21-1,.34-1.71s.26-1.34.38-2.05.22-1.38.3-2a13.44,13.44,0,0,0,.12-1.55A12.15,12.15,0,0,0,431.92,42.06Z" transform="translate(-1.3 -1.29)"/><path class="cls-6" d="M119.15,22.12c0,.05,0,.1.07.16l.06.16c0,.06,0,.12,0,.17s0,.12,0,.18l0,.18c0,.06,0,.13,0,.19a1.21,1.21,0,0,1,0,.19c0,.06,0,.13,0,.19l0,.19a1.29,1.29,0,0,1,0,.19,1.33,1.33,0,0,1,0,.19l-.07.19-.09.18a1.74,1.74,0,0,1-.11.18.88.88,0,0,1-.12.17,2.09,2.09,0,0,1-.14.17l-.15.16-.17.16-.18.14-.2.14-.2.13-.22.13-.22.11-.23.1a2.34,2.34,0,0,1-.24.09l-.25.09-.26.06a2,2,0,0,1-.26.06l-.27,0-.27,0h-.54l-.27,0-.27,0-.27-.06-.26-.07-.27-.09-.26-.12-.25-.14a1.84,1.84,0,0,1-.25-.17l-.24-.19-.24-.23-.12-.13a1.34,1.34,0,0,1-.11-.14l-.12-.15-.11-.16-.1-.17-.11-.18c0-.06-.06-.13-.1-.2l-.09-.21-.09-.22-.09-.25-.09-.26c0-.08,0-.18-.07-.27a2.64,2.64,0,0,1-.07-.3,2.84,2.84,0,0,1-.06-.31l-.06-.33c0-.11,0-.23,0-.35s0-.24,0-.36,0-.12,0-.18,0-.13,0-.19,0-.13,0-.19a1.34,1.34,0,0,0,0-.2c0-.06,0-.13,0-.19a1.27,1.27,0,0,0,0-.2V20a1.41,1.41,0,0,1,0-.2V19c0-.07,0-.14,0-.2a1.27,1.27,0,0,1,0-.2c0-.07,0-.13,0-.19s0-.13,0-.2,0-.12,0-.18l0-.19a.57.57,0,0,1,0-.18l0-.17,0-.17a.88.88,0,0,1,0-.15l.06-.15.06-.15c0-.05,0-.09.07-.14l.07-.13.08-.12.07-.12a.83.83,0,0,0,.08-.12l.09-.1.16-.2.16-.17.16-.13a.72.72,0,0,1,.15-.11l.14-.08.13,0a.3.3,0,0,1,.23,0,.46.46,0,0,1,.17.23,1.89,1.89,0,0,1,.06.18,1.6,1.6,0,0,1,0,.23,2.11,2.11,0,0,1,0,.26v.15c0,.05,0,.1,0,.15a1,1,0,0,1,0,.17c0,.05,0,.11,0,.16s0,.12,0,.18,0,.12,0,.18l0,.19,0,.18a1.36,1.36,0,0,1,0,.2c0,.06,0,.13,0,.19s0,.13,0,.2a1.41,1.41,0,0,1,0,.2v.4a1.27,1.27,0,0,1,0,.2c0,.07,0,.13,0,.2a1.36,1.36,0,0,1,0,.2l0,.19,0,.19a1.62,1.62,0,0,1,0,.19c0,.12,0,.24.08.35s.06.23.09.33a2.11,2.11,0,0,0,.1.3,1.69,1.69,0,0,0,.1.27c0,.09.07.17.1.24l.1.21.11.18a2.26,2.26,0,0,0,.19.28,1.88,1.88,0,0,0,.19.2.94.94,0,0,0,.18.12l.17.06.16,0,.16,0,.15,0,.14-.06.14-.08.15-.1.14-.1.14-.11.15-.12.14-.11.14-.11.29-.2.29-.17.29-.14a1.61,1.61,0,0,1,.29-.09,1.28,1.28,0,0,1,.27-.05h.27l.25.05.24.1a1.07,1.07,0,0,1,.22.15,1.19,1.19,0,0,1,.2.19l.09.11.09.13.08.13Z" transform="translate(-1.3 -1.29)"/><path class="cls-4" d="M78.67,43.67l-.47,2.21H96.37L94.1,56.28H76l-1.71,8.08L71.39,78H58.65l.08-.37.4-1.85,3.23-15.2h0l1.41-6.66,6.28-29.5,0-.27A3,3,0,0,1,73,21.93h30l-2.18,10.44H81.08Z" transform="translate(-1.3 -1.29)"/><path class="cls-4" d="M159,37l0,.13-2.48,11.71h-.07a11,11,0,0,0-2.1-.77,9.06,9.06,0,0,0-2.36-.35,8.19,8.19,0,0,0-4.13,1,11.22,11.22,0,0,0-3.26,2.79,16.33,16.33,0,0,0-2.36,4.13,30,30,0,0,0-1.55,5c-.25,1.29-.64,3-1.06,4.71l-.22.93-.23.92-.38,1.54-2.34,9.51H113l-1.42,0a13.89,13.89,0,0,1-4.48-.68A8.35,8.35,0,0,1,104,75.72a7.36,7.36,0,0,1-.63-.75,7.44,7.44,0,0,1-1.15-2.2,11.57,11.57,0,0,1-.56-3.72c0-.58,0-1.21.1-1.91s.14-1.45.25-2.22.22-1.54.38-2.34.29-1.55.43-2.29c.11-.44.29-1.26.54-2.44s.53-2.54.85-4.09.68-3.15,1-4.86.7-3.34,1-4.87.63-2.89.86-4.08c.08-.32.13-.62.19-.89l0-.14c.14-.64.25-1.12.32-1.41h12.5L115.43,60c-.21.91-.42,1.93-.66,3.07a14.43,14.43,0,0,0-.36,2.94,3.4,3.4,0,0,0,.08.73,1.92,1.92,0,0,0,.86,1.35,4.5,4.5,0,0,0,2.15.58c1.93.2,2.89.3,3.36.3,1.47,0,2.89,0,4.14-.13h.07a2.11,2.11,0,0,0,1.32-.43,2.54,2.54,0,0,0,.32-.59,4.2,4.2,0,0,0,.14-.72l.12-.68c.2-1.23,2.47-11.3,3.11-14.35a.54.54,0,0,1,0-.08c.18-.85.45-2.15.76-3.8.25-1.29.49-2.59.71-3.84s.42-2.48.58-3.66.31-2.24.42-3.2h12.23c-.08.73-.16,1.5-.26,2.3v0c-.08.79-.18,1.57-.27,2.32s-.19,1.4-.28,2-.16,1.07-.21,1.41h.16a23.58,23.58,0,0,1,5.1-6.79,9.27,9.27,0,0,1,6.19-2.29c.31,0,.61,0,.9,0l.63.07.47.08c.58.12,1.09.22,1.57.29h0Z" transform="translate(-1.3 -1.29)"/><path class="cls-4" d="M194.91,43.51a9.71,9.71,0,0,0-1.31-2.27,12.15,12.15,0,0,0-1.26-1.34l-.47-.39-.27-.2a11.22,11.22,0,0,0-1.17-.76,15,15,0,0,0-2.62-1.17,21.34,21.34,0,0,0-6.73-.94,23.42,23.42,0,0,0-9.91,2.05,23,23,0,0,0-6.48,4.42l-.6.59c-.18.18-.34.34-.5.53a24.51,24.51,0,0,0-4.84,8.08A27.83,27.83,0,0,0,157,61.84a20.7,20.7,0,0,0,1,6.42,14,14,0,0,0,2.8,4.95l.26.31a15,15,0,0,0,5.34,3.57,20.42,20.42,0,0,0,7.78,1.33,32.21,32.21,0,0,0,4.2-.27,31.39,31.39,0,0,0,3.88-.75,30.59,30.59,0,0,0,3.38-1.06,21.89,21.89,0,0,0,2.76-1.21l1.93-9.22A25.53,25.53,0,0,1,188,67.1l-.75.32c-1.14.45-2.28.84-3.43,1.18a26.44,26.44,0,0,1-3.37.73,19.09,19.09,0,0,1-3.07.25,11.32,11.32,0,0,1-3.92-.59,7.21,7.21,0,0,1-2.51-1.59,5,5,0,0,1-.66-.8,5.43,5.43,0,0,1-.68-1.39,7.86,7.86,0,0,1-.39-2.43v-.37a1.35,1.35,0,0,1,.07-.4,68.22,68.22,0,0,0,12.66-1.2,26,26,0,0,0,8.15-2.94,11.51,11.51,0,0,0,4.38-4.46,12.25,12.25,0,0,0,1.3-5.67v-.11A11,11,0,0,0,194.91,43.51Zm-14.4,9.27q-3.45,1.69-10.49,1.6a16.7,16.7,0,0,1,.49-1.71,15.43,15.43,0,0,1,.91-2.22,12.6,12.6,0,0,1,2.25-3.12,10.23,10.23,0,0,1,2.9-2,7.58,7.58,0,0,1,3.3-.75,5.33,5.33,0,0,1,2,.36,3.17,3.17,0,0,1,1,.6A3.05,3.05,0,0,1,184,47.9Q184,51.1,180.51,52.78Z" transform="translate(-1.3 -1.29)"/><path class="cls-3" d="M244,47.31a13.42,13.42,0,0,0-2.37-4.53c0-.06-.09-.1-.13-.16A9.8,9.8,0,0,0,239,40.5a8.44,8.44,0,0,0-1.33-.7,12.42,12.42,0,0,0-4.86-.93,14.33,14.33,0,0,0-3.91.51,13.13,13.13,0,0,0-3.34,1.44,15.26,15.26,0,0,0-2.84,2.23,26.59,26.59,0,0,0-2.42,2.81H220c.13-.44.27-1,.43-1.63s.32-1.29.48-2c0-.12.06-.24.1-.37.13-.58.27-1.15.41-1.74s.31-1.33.42-1.88l3.74-17.62H213.12l-7,33.13-.74,3.5-3.71,17.46-.17.84-.11.49-.09.47c.2.13.42.25.63.37l.65.35h0l.19.09.12.06.07,0,.61.29a.8.8,0,0,0,.16.08l.49.22h0l.72.3c.68.27,1.37.51,2.08.74s1.43.43,2.16.62l1.11.27,1.12.23,1.14.2,1.16.17,1.12.12.56,0,.55,0,.58,0,.34,0c.48,0,1,0,1.45,0l1.15,0,.66,0h.23l.7,0c.36,0,.71,0,1.06-.09l.89-.1.1,0,.46-.06.17,0c.24,0,.47-.07.7-.12h.08l.59-.12c.23,0,.45-.09.67-.15s.56-.13.84-.21.68-.19,1-.3h.07l.06,0a26.66,26.66,0,0,0,2.93-1.15,23.12,23.12,0,0,0,4.09-2.43,22.16,22.16,0,0,0,4.91-5.06A27.75,27.75,0,0,0,242.81,65a29.86,29.86,0,0,0,1.61-5.92,32.48,32.48,0,0,0,.48-5.26A21.43,21.43,0,0,0,244,47.31Zm-12.74,2.87a8.86,8.86,0,0,1,1.26,5,21,21,0,0,1-.38,3.88A21.7,21.7,0,0,1,231,63a18.79,18.79,0,0,1-1.78,3.56,14.24,14.24,0,0,1-2.44,2.93,11,11,0,0,1-3,2h0a9.06,9.06,0,0,1-3.48.73h-.2a13.91,13.91,0,0,1-2.95-.3,9.46,9.46,0,0,1-2.25-.72l.26-1.21h0l.52-2.39.74-3.5.56-2.66a28.62,28.62,0,0,1,1.52-4.89,20.35,20.35,0,0,1,2.29-4.16,12.06,12.06,0,0,1,2.93-2.91,6.18,6.18,0,0,1,3.5-1.09,4.94,4.94,0,0,1,3.42,1.11A4.54,4.54,0,0,1,231.25,50.18Z" transform="translate(-1.3 -1.29)"/><path class="cls-3" d="M268,71a11.12,11.12,0,0,1-2.05.2,4,4,0,0,1-2.16-.58,2.21,2.21,0,0,1-.93-1.91V68.5a14.34,14.34,0,0,1,.35-2.94c.24-1.14.45-2.16.66-3.07l8.88-41.74H260.19c-.08.33-.26,1.16-.53,2.48s-.62,2.93-1,4.87-.87,4.07-1.36,6.43-1,4.76-1.54,7.22-1.06,4.87-1.54,7.23c-.36,1.69-.69,3.25-1,4.71h0c-.12.6-.25,1.16-.37,1.71-.39,1.84-.73,3.38-1,4.67,0,.07,0,.13,0,.2-.28,1.32-.45,2.15-.53,2.49-.16.72-.32,1.48-.45,2.28s-.27,1.58-.38,2.35-.19,1.49-.25,2.2-.09,1.35-.09,1.92a11.48,11.48,0,0,0,.55,3.64.29.29,0,0,0,0,.09,7.31,7.31,0,0,0,1.77,2.93,8.27,8.27,0,0,0,3.07,1.91,12.61,12.61,0,0,0,4.47.69c.74,0,1.46,0,2.21-.09s1.46-.17,2.15-.29,1.34-.23,2-.36,1.15-.27,1.62-.4c.33-1.55.67-3.11,1-4.62s.64-3.08,1-4.64a8.08,8.08,0,0,1-1.39.45Z" transform="translate(-1.3 -1.29)"/><path class="cls-3" d="M50,53.08c0,.74,0,1.45-.06,2.12s-.11,1.28-.17,1.87-.14,1.17-.22,1.71l0,.22c-.08.47-.16.93-.26,1.36s-.13.59-.19.89-.09.4-.14.59c-.12.47-.25.93-.38,1.37-.25.88-.52,1.71-.8,2.49s-.55,1.52-.84,2.22-.56,1.38-.88,2a20.12,20.12,0,0,1-5,6.44c-.41.36-.83.72-1.27,1l-.07.06a20,20,0,0,1-4.3,2.35l-.12,0c-.22.1-.45.18-.68.26s-.43.15-.65.21c-.64.21-1.26.36-1.91.51H32a20,20,0,0,1-20.24-8c-.33-.46-.64-.94-.94-1.43h0a22.59,22.59,0,0,1-1.68-3.62c0-.12-.08-.22-.1-.34a19.68,19.68,0,0,1-.68-9.91,20.23,20.23,0,0,1,1.38-4.46,19.81,19.81,0,0,1,4.33-6.21,20.91,20.91,0,0,1,3.05-2.46,21.19,21.19,0,0,1,4.33-2.11c.24-.08.46-.16.7-.22l.06,0c.6-.19,1.22-.34,1.83-.47a19.47,19.47,0,0,1,2.48-.35c.57,0,1.12-.06,1.68-.06.75,0,1.49,0,2.2,0A17.43,17.43,0,0,0,32.32,41l.13,0a.26.26,0,0,0,.12,0l.16-.06a3.4,3.4,0,0,0,.63-.32.38.38,0,0,0,.11-.08,4.44,4.44,0,0,0,.85-.7,5.71,5.71,0,0,0,.78-1.34,8.79,8.79,0,0,0,.58-2c.08-.42.13-.88.18-1.37s.06-1,.06-1.64,0-1.26-.07-2-.11-1.55-.2-2.45c0-.46-.1-.93-.13-1.42s-.1-1-.14-1.54-.08-1.09-.1-1.66,0-1.15,0-1.76,0-1.2,0-1.81.07-1.22.13-1.84.14-1.22.24-1.82.2-1.17.33-1.73.27-1.08.41-1.57.29-.93.44-1.36a16.87,16.87,0,0,1,.92-2.1c.59-1.09,1.09-1.65,1.46-1.66.19,0,.34.15.45.47a5.15,5.15,0,0,1,.22,1.46c0,.67,0,1.54,0,2.62,0,.55,0,1.12,0,1.73s0,1.23.11,1.88.12,1.32.22,2,.23,1.39.38,2.07.32,1.37.51,2,.39,1.31.62,1.95.46,1.21.69,1.78.47,1.12.7,1.65.46,1,.69,1.52.42.94.62,1.41.42.9.61,1.33l.55,1.28c.35.84.68,1.65,1,2.45s.57,1.56.82,2.31.46,1.42.65,2.11h0c.21.68.38,1.33.54,2s.28,1.23.41,1.81.23,1.16.32,1.7.19,1.09.26,1.6.15,1,.19,1.49.1.92.12,1.36C50,51.51,50,52.32,50,53.08Z" transform="translate(-1.3 -1.29)"/><path class="cls-4" d="M51.55,52.54c0,.76,0,1.46-.07,2.13s-.1,1.28-.16,1.88-.14,1.16-.24,1.71-.17,1.07-.28,1.58-.21,1-.33,1.47-.25.93-.38,1.38c-.26.87-.52,1.71-.81,2.48-.17.47-.33.93-.51,1.39l-.32.83c-.27.71-.57,1.38-.89,2a20,20,0,0,1-7.13,8.1,19.37,19.37,0,0,1-4.16,2,.35.35,0,0,1-.14.06l-.7.23-.12,0a19.62,19.62,0,0,1-10.21.36,20.06,20.06,0,0,1-12.19-8.37,19.75,19.75,0,0,1-2.27-4.55,20,20,0,0,1,4-20A19.16,19.16,0,0,1,17,45.17a19.83,19.83,0,0,1,5.17-3l.06,0,.76-.28c.34-.12.7-.24,1-.33a19.55,19.55,0,0,1,4-.74c.55,0,1.12-.06,1.68-.06H32a12.84,12.84,0,0,0,1.39-.15l.19,0,.42-.07a4.9,4.9,0,0,0,1.87-1.22,6.06,6.06,0,0,0,.78-1.33,8.74,8.74,0,0,0,.58-2c.07-.42.13-.87.18-1.37s.06-1,.06-1.64,0-1.27-.07-2-.11-1.54-.21-2.45c0-.46-.09-.93-.14-1.42s-.08-1-.13-1.54-.07-1.09-.09-1.66,0-1.16,0-1.75,0-1.21,0-1.81.07-1.24.13-1.84.14-1.23.23-1.83.21-1.16.34-1.72.26-1.08.4-1.57.3-.95.45-1.37a14.91,14.91,0,0,1,.92-2.09,6.63,6.63,0,0,1,.39-.67c.42-.65.78-1,1.06-1s.61.6.68,1.93c0,.66,0,1.54,0,2.62,0,.54,0,1.12,0,1.72s0,1.24.11,1.88.11,1.33.22,2,.23,1.37.37,2.06.32,1.36.51,2,.4,1.3.63,1.93.45,1.21.69,1.8.47,1.11.7,1.64.46,1,.67,1.51.44.95.64,1.41.41.91.6,1.34.38.86.55,1.27c.36.85.69,1.65,1,2.46s.57,1.57.82,2.3c.17.5.32,1,.46,1.47.07.23.13.44.19.66.2.67.38,1.33.54,2s.28,1.24.4,1.82.24,1.16.33,1.71.19,1.08.26,1.59.13,1,.19,1.48.09.94.12,1.37C51.51,51,51.55,51.78,51.55,52.54Z" transform="translate(-1.3 -1.29)"/><path class="cls-3" d="M46.47,68.61s0,0,0,.06A20.11,20.11,0,0,1,26.85,80.46a12.86,12.86,0,0,1-1.75-.21l-.81-.13L24,80.05a17.7,17.7,0,0,1-2.16-.6,19.69,19.69,0,0,1-2.45-1,21.43,21.43,0,0,1-2.15-1.23,1.27,1.27,0,0,1-.22-.13,23.33,23.33,0,0,1-2.34-1.75,29.27,29.27,0,0,1-2.32-2.19,4.61,4.61,0,0,1-.37-.4c-.28-.27-.54-.56-.79-.85l-.34-.41h0c-.26-.32-.54-.65-.81-1s-.34-.42-.51-.65-.44-.58-.66-.89c-.38-.53-.77-1.1-1.15-1.71S6.89,66,6.53,65.36,5.78,64,5.42,63.29s-.7-1.46-1-2.23-.62-1.54-.9-2.34S3,57.1,2.73,56.24c-.12-.42-.23-.86-.33-1.31s-.21-.92-.3-1.39-.18-1-.26-1.49-.16-1-.23-1.59-.12-1.11-.16-1.7S1.36,47.57,1.34,47s0-1.26,0-1.93,0-1.38.05-2.11.09-1.52.16-2.34.14-1.65.25-2.54c.06-.44.11-.89.19-1.34s.14-.93.21-1.4.15-1,.25-1.45.16-1,.26-1.5.18-1,.27-1.55.18-1.07.26-1.63.17-1.12.24-1.7.16-1.18.23-1.8.13-1.22.17-1.84S3.94,22.58,4,22s0-1.23.06-1.84,0-1.18,0-1.74,0-1.11,0-1.62,0-1,0-1.41a10.94,10.94,0,0,1,.11-2c.16-.95.52-1.18,1.08-.7a2.79,2.79,0,0,1,.46.52c.15.2.32.45.49.73a19.72,19.72,0,0,1,1.08,2.27c.19.46.38.95.55,1.48s.36,1.08.53,1.66.33,1.17.47,1.76.3,1.2.43,1.8.25,1.2.35,1.78.22,1.17.31,1.72.19,1.08.28,1.61.17,1,.26,1.5.15,1,.23,1.39l.25,1.25c.16.79.34,1.52.51,2.18s.37,1.27.57,1.83a5.86,5.86,0,0,0,.28.67c.11.31.23.61.36.89s.23.42.35.62.25.42.38.62a8,8,0,0,0,.74,1,7.27,7.27,0,0,0,1.58,1.34,5.59,5.59,0,0,0,1.58.67,2.92,2.92,0,0,0,.5.09.25.25,0,0,0,.12,0h0a5.12,5.12,0,0,0,.87,0,9.15,9.15,0,0,0,1.42-.23c.47-.12.92-.26,1.36-.4s.87-.29,1.31-.41L24,40.78l.21-.05a20,20,0,0,1,7.78,0h0l.75.16c.39.1.79.21,1.18.33s1,.33,1.55.53a20,20,0,0,1,4.48,2.46,12.28,12.28,0,0,1,1.29,1c.3.25.6.52.88.79a19.52,19.52,0,0,1,3.94,5.35A21.65,21.65,0,0,1,47.1,53.8,20,20,0,0,1,46.47,68.61Z" transform="translate(-1.3 -1.29)"/><path class="cls-4" d="M48.77,66.56A20.06,20.06,0,0,1,37.33,79.29q-.57.24-1.17.45l-.82.26h-.05c-.44.13-.87.25-1.31.35a20.14,20.14,0,0,1-5.71.46,21.65,21.65,0,0,1-2.58-.33A17,17,0,0,1,24,80.05c-.25-.06-.51-.15-.76-.23a21.43,21.43,0,0,1-2.45-1,22.84,22.84,0,0,1-2.37-1.36A22.58,22.58,0,0,1,16,75.7a29.09,29.09,0,0,1-2.32-2.18c-.38-.4-.78-.82-1.16-1.27l0,0c-.25-.29-.5-.58-.74-.89s-.27-.32-.4-.49c-.39-.5-.78-1-1.16-1.55s-.78-1.11-1.16-1.7A.35.35,0,0,1,9,67.52c-.27-.42-.54-.85-.79-1.29-.1-.16-.21-.34-.3-.52-.38-.65-.75-1.34-1.11-2.06s-.7-1.46-1-2.22-.63-1.54-.9-2.35-.53-1.61-.77-2.48Q4,56,3.8,55.28c-.11-.45-.2-.91-.3-1.39s-.18-1-.26-1.48-.16-1-.21-1.59-.13-1.11-.18-1.7-.07-1.19-.1-1.8,0-1.27,0-1.93,0-1.39,0-2.13.08-1.52.15-2.32.15-1.67.26-2.54c.05-.44.1-.89.18-1.36s.14-.92.21-1.4.17-1,.25-1.44.16-1,.26-1.49l.27-1.55c.09-.54.18-1.07.26-1.63s.17-1.12.25-1.71S5,26.64,5.07,26s.13-1.23.17-1.85.1-1.23.14-1.86,0-1.22,0-1.83,0-1.19,0-1.76,0-1.1,0-1.6,0-1,0-1.41a11.18,11.18,0,0,1,.11-2,2.13,2.13,0,0,1,.14-.53c.2-.48.52-.54.94-.17a5.54,5.54,0,0,1,1,1.26,19.64,19.64,0,0,1,1.09,2.27c.18.46.37,1,.54,1.48s.36,1.09.53,1.66.33,1.17.48,1.77.29,1.18.43,1.79.24,1.21.34,1.79.22,1.15.31,1.72.19,1.08.29,1.6.16,1,.25,1.51.15.94.23,1.38.17.85.25,1.26c.17.79.34,1.51.51,2.18l.07.25c.16.56.33,1.08.5,1.58,0,.07.05.13.07.19.19.48.38.93.59,1.37a10.87,10.87,0,0,0,.71,1.22,7.37,7.37,0,0,0,.75,1,7.89,7.89,0,0,0,1.57,1.34,5,5,0,0,0,.69.35.27.27,0,0,0,.11,0h0a4.5,4.5,0,0,0,.76.25,5.26,5.26,0,0,0,1.52.14,9,9,0,0,0,1.41-.22c.47-.11.92-.25,1.36-.39s.71-.24,1.06-.35l.25-.07c.44-.12.88-.22,1.32-.31a20.23,20.23,0,0,1,4.76-.39,16.48,16.48,0,0,1,1.86.17l.39,0c.45.08.9.16,1.34.27s.73.16,1.08.27a19.87,19.87,0,0,1,6.39,3.11c.42.31.84.63,1.24,1A19.58,19.58,0,0,1,46,49.33a20.07,20.07,0,0,1,2.74,17.23Z" transform="translate(-1.3 -1.29)"/><path class="cls-6" d="M29.28,54A10.05,10.05,0,0,1,17.87,67.19c-.42-.09-.84-.2-1.25-.33a11,11,0,0,1-1.19-.49,9.46,9.46,0,0,1-1.15-.66,10.68,10.68,0,0,1-1.1-.84,12.74,12.74,0,0,1-1.06-1,13.75,13.75,0,0,1-1-1.27c-.17-.23-.34-.47-.5-.72s-.34-.53-.51-.81-.33-.57-.5-.87-.34-.63-.51-1-.33-.68-.5-1-.33-.72-.49-1.1-.33-.78-.48-1.2a11.09,11.09,0,0,1-.42-1.37c-.13-.49-.24-1-.34-1.62-.06-.29-.11-.6-.15-.92s-.1-.66-.14-1-.08-.73-.12-1.12S6.37,49,6.34,48.6s-.07-.86-.1-1.31-.06-.92-.07-1.4,0-1,0-1.54,0-1.09,0-1.66l0-.89c0-.31,0-.61,0-.92l.06-.94c0-.31,0-.63.07-.94s0-.64.09-1,.06-.62.1-.92.07-.61.11-.9l.06-.44c0-.14,0-.29.07-.43s.05-.29.07-.44l.09-.44c0-.15.05-.3.08-.45l.09-.46c0-.16.07-.31.1-.47l.09-.48.09-.46c0-.15.07-.3.1-.44s.07-.27.1-.4.06-.25.1-.37.12-.46.17-.64S8,30,8,29.83a1.42,1.42,0,0,1,.14-.3c.09-.15.18-.17.27-.08a1.1,1.1,0,0,1,.13.25,3.46,3.46,0,0,1,.12.45c0,.1,0,.21,0,.32s0,.25,0,.38l0,.43,0,.45,0,.48,0,.49c0,.16,0,.32,0,.49s0,.32,0,.47,0,.32,0,.47,0,.29,0,.44,0,.28.05.42,0,.28.05.42,0,.26.07.39,0,.27.07.4l.08.4c0,.13.05.26.08.4.1.54.21,1.08.33,1.61s.26,1,.39,1.53.27.94.41,1.36.29.83.44,1.21.31.71.47,1,.32.59.48.85a10.77,10.77,0,0,0,1,1.32,6.48,6.48,0,0,0,.93.9,4.07,4.07,0,0,0,.89.54,3.86,3.86,0,0,0,.86.27,4.49,4.49,0,0,0,.8.1c.49-.06,1-.14,1.4-.22a10.34,10.34,0,0,1,1.33-.18A10.07,10.07,0,0,1,29.28,54Z" transform="translate(-1.3 -1.29)"/><path class="cls-3" d="M47.8,61.42a20,20,0,0,1-1.33,7.19s0,0,0,.06a20,20,0,0,1-6.64,8.78l-.07.06a19.39,19.39,0,0,1-3.46,2.06,9.83,9.83,0,0,1-.93.43h-.05c-.21.1-.44.19-.66.27a.43.43,0,0,1-.18.06,20.14,20.14,0,0,1-18.51-2.67l0,0a19.73,19.73,0,0,1-4.44-4.45h0a20.12,20.12,0,0,1-2-3.36c-.08-.19-.18-.39-.26-.59a21.42,21.42,0,0,1-.87-2.48c0-.18-.09-.35-.12-.53a18.07,18.07,0,0,1-.42-2.12,23.94,23.94,0,0,1-.2-2.87,25,25,0,0,1,.14-3.09c0-.49.09-1,.18-1.5s.15-1.19.26-1.81.2-1.15.32-1.75.24-1.23.37-1.88.28-1.34.42-2.06.31-1.51.47-2.34.35-1.73.55-2.71l.37-1.59c0-.13.06-.26.1-.39h0c.09-.44.2-.89.32-1.36s.33-1.27.53-2,.37-1.29.61-2a1.19,1.19,0,0,1,.07-.23c.16-.54.35-1.08.55-1.65l.31-.84c.32-.89.68-1.83,1.07-2.83.2-.5.4-1,.61-1.52s.41-1,.63-1.6.41-1.1.62-1.67.41-1.15.61-1.74.39-1.18.58-1.79.37-1.18.55-1.79.34-1.2.49-1.8.3-1.19.43-1.78c.06-.3.13-.6.18-.88s.12-.57.17-.85.09-.57.13-.86.07-.57.08-.85,0-.6,0-.88,0-.59-.07-.89-.08-.61-.14-.9a7.58,7.58,0,0,0-.23-.91c-.08-.29-.18-.59-.28-.89s-.23-.58-.35-.87-.25-.57-.39-.86l-.41-.82L17,6.31c-.14-.25-.27-.49-.42-.71-.26-.45-.49-.87-.7-1.21s-.35-.68-.48-1a5.28,5.28,0,0,1-.29-.74c-.1-.41-.07-.7.12-.84a1,1,0,0,1,.86-.12l.27.05a6.46,6.46,0,0,1,1.13.44,9,9,0,0,1,.86.49c.32.21.64.43,1,.69s.71.56,1.08.89.76.69,1.14,1.07c.2.19.39.39.58.59s.38.42.57.65.37.43.56.66.35.46.52.7.34.47.5.71l.45.73c.29.48.55,1,.79,1.44.12.28.22.55.32.81s.19.53.27.81c.17.52.33,1,.46,1.59L27,15.61l.27,1.59c.12,1.11.24,2.21.32,3.33s.14,2.2.19,3.29.1,2.07.13,3,.08,1.88.13,2.73.11,1.61.18,2.34.17,1.39.26,2a19.14,19.14,0,0,0,.83,3A15,15,0,0,0,30.38,39a10.2,10.2,0,0,0,1.27,1.4,2.6,2.6,0,0,0,.32.26h0a1.62,1.62,0,0,0,.2.18.53.53,0,0,1,.14.12l.64.42c.89.56,1.75,1,2.56,1.43s1.59.79,2.33,1.23A23.64,23.64,0,0,1,40,45.53c.33.25.65.52,1,.79l.39.36A19.65,19.65,0,0,1,46,53.1,19.89,19.89,0,0,1,47.8,61.42Z" transform="translate(-1.3 -1.29)"/><path class="cls-4" d="M49.09,61v.24a20.06,20.06,0,0,1-8.66,16.28,18.91,18.91,0,0,1-3.1,1.76,18.15,18.15,0,0,1-2.7,1,.43.43,0,0,1-.18.06,18.66,18.66,0,0,1-2.38.53H32a20.91,20.91,0,0,1-3,.21,19.78,19.78,0,0,1-11.82-3.87,19.49,19.49,0,0,1-4.77-4.9c-.22-.32-.42-.65-.63-1a20.41,20.41,0,0,1-1.28-2.51,21.32,21.32,0,0,1-1.4-5.12,20.52,20.52,0,0,1-.2-2.87c0-.63,0-1.26.05-1.9,0-.39,0-.79.08-1.19.11-1.07.25-2.16.44-3.3l.24-1.3c0-.16.06-.31.08-.47.12-.59.25-1.22.38-1.87s.27-1.34.43-2.07.29-1.5.46-2.33l.51-2.48c0-.07,0-.15.05-.22.12-.52.24-1,.35-1.6s.28-1.14.43-1.77.33-1.27.52-2c0,0,0,0,0-.07.14-.51.31-1,.48-1.62l.17-.51c.26-.8.55-1.63.87-2.51s.68-1.83,1.08-2.82c.2-.49.4-1,.6-1.52s.42-1.06.62-1.6.43-1.11.63-1.68.41-1.14.61-1.73.4-1.19.59-1.78.36-1.2.54-1.8.33-1.2.49-1.79.3-1.2.43-1.8c.07-.29.13-.58.19-.87s.11-.57.16-.86.1-.57.13-.85.06-.57.09-.86,0-.59,0-.88,0-.59-.08-.89-.09-.6-.15-.9-.13-.59-.21-.9l-.29-.89c-.11-.28-.22-.58-.35-.86s-.25-.59-.38-.86-.28-.56-.42-.83-.28-.53-.43-.78-.27-.49-.4-.72c-.26-.45-.51-.86-.7-1.21s-.37-.67-.5-.94a4.37,4.37,0,0,1-.27-.75,1.4,1.4,0,0,1-.06-.51.46.46,0,0,1,.17-.33,1,1,0,0,1,.86-.12,5.43,5.43,0,0,1,1.39.49c.27.14.57.29.88.49s.64.43,1,.69.7.56,1.08.89.76.69,1.14,1.08c.19.19.38.38.57.59s.39.42.58.63.37.44.55.67l.53.7c.18.23.33.47.5.71s.3.48.45.72c.29.49.55,1,.8,1.46l.31.8c.09.27.19.53.27.8.18.54.32,1.06.45,1.59s.24,1,.33,1.57.19,1.06.27,1.59c.13,1.1.25,2.21.34,3.32s.14,2.21.19,3.3.08,2.07.13,3,.07,1.86.12,2.72.1,1.62.19,2.33.15,1.39.26,2a18.4,18.4,0,0,0,.83,3,13.6,13.6,0,0,0,1.1,2.06A10.2,10.2,0,0,0,32.94,40c.18.16.36.31.53.44l.08.06c.23.18.47.34.72.5l.72.44.47.26c.46.26.91.5,1.36.72.81.41,1.59.81,2.33,1.24.27.15.53.32.79.5.45.29.89.6,1.32.92l0,0c.32.25.64.52.94.78A20,20,0,0,1,49.09,61Z" transform="translate(-1.3 -1.29)"/><path class="cls-6" d="M45.87,54.78c0,.37-.07.73-.11,1.08s-.07.67-.11,1-.09.62-.13.91-.09.57-.14.84c-.09.55-.2,1.06-.31,1.54s-.25,1-.38,1.41q-.4,1.34-.87,2.49c-.31.76-.63,1.46-1,2.11s-.66,1.23-1,1.77-.69,1-1,1.5-.71.87-1.07,1.25-.72.73-1.09,1-.73.62-1.1.89-.74.52-1.12.75a15.14,15.14,0,0,1-2.26,1.1,11.93,11.93,0,0,1-2.26.63,11.44,11.44,0,0,1-2.26.19A10.77,10.77,0,0,1,27.45,75a10.61,10.61,0,0,1-2.08-.7,11.47,11.47,0,0,1-2-1.14,12.11,12.11,0,0,1-1.54-1.29,15.09,15.09,0,0,1-1.44-1.61,18.58,18.58,0,0,1-1.32-2A20.05,20.05,0,0,1,18,66c-.18-.41-.35-.85-.51-1.3A14.1,14.1,0,0,1,17,63.27c-.14-.51-.27-1-.39-1.59s-.23-1.15-.33-1.77-.18-1.29-.25-2-.11-1.42-.13-2.2,0-1.61,0-2.5c0-.44,0-.91.08-1.39s.07-1,.12-1.49.12-1.07.2-1.62.17-1.11.28-1.69.22-1.16.34-1.75l.21-.9c.07-.3.14-.6.22-.9l.24-.91c.08-.31.17-.62.26-.94s.18-.65.28-1,.19-.68.29-1,.21-.72.32-1.09.23-.76.35-1.16l.41-1.25c.15-.44.31-.9.48-1.37s.37-1,.57-1.52c.09-.27.2-.54.3-.82s.22-.56.33-.87.23-.61.35-.93.25-.67.38-1,.26-.73.39-1.13.26-.8.39-1.23.26-.87.38-1.33.23-.92.33-1.4.19-1,.26-1.44.13-.94.18-1.39.09-.84.14-1.22.08-.72.12-1c.09-.61.17-1.07.25-1.4.16-.57.32-.76.46-.59A1.34,1.34,0,0,1,25,18c.07.3.13.7.2,1.22,0,.26.07.57.1.93s.06.76.08,1.2.05.94.05,1.44,0,1,0,1.54-.06,1.05-.11,1.57-.11,1-.18,1.51-.13,1-.2,1.42-.13.89-.2,1.31l-.26,1.49c-.07.47-.14.91-.2,1.32s-.12.81-.16,1.19S24,34.86,24,35.2s-.07.68-.09,1-.05.62-.06.9c0,.58,0,1.12,0,1.63s0,1,.05,1.44.07.89.1,1.3.08.8.13,1.17.09.74.14,1.08.12.68.18,1,.13.63.2.93c.14.6.3,1.16.46,1.69s.35,1,.54,1.46.38.87.58,1.26A13.09,13.09,0,0,0,27.53,52a9.83,9.83,0,0,0,1.39,1.36,8.27,8.27,0,0,0,1.42.89,10.18,10.18,0,0,0,1.41.54,5.8,5.8,0,0,0,1.44.07,7.3,7.3,0,0,0,1.44-.27A9.16,9.16,0,0,0,36,53.87a7.28,7.28,0,0,0,.7-.48,7.94,7.94,0,0,0,.72-.62c.23-.24.47-.5.71-.79s.48-.61.72-1,.47-.74.7-1.16.45-.91.67-1.44c.1-.27.21-.56.31-.85s.2-.62.3-1,.19-.68.28-1,.18-.76.27-1.17.17-.83.24-1.27.14-.89.2-1.35.08-.93.11-1.4,0-.95,0-1.4,0-.89-.05-1.31,0-.81-.07-1.18,0-.69,0-1,0-.54,0-.75c.06-.86.24-1.22.55-1.13.15,0,.34.24.57.59.12.17.24.38.38.62l.43.86c.16.36.33.78.5,1.25s.35,1,.52,1.55c.08.29.16.58.23.88s.15.62.21.94.13.64.18,1,.1.66.15,1,.08.69.11,1,.06.68.08,1,0,.66.07,1l.06.94q0,.47.06.9c0,.3,0,.58,0,.86,0,.56.05,1.1.06,1.6s0,1,0,1.45,0,.9,0,1.32,0,.84-.07,1.24S45.9,54.4,45.87,54.78Z" transform="translate(-1.3 -1.29)"/><text class="cls-7" transform="translate(449.98 75.61)">tk</text><text class="cls-8" transform="translate(451.04 76.93)">tk</text><circle class="cls-6" cx="440.22" cy="73.14" r="2.76"/><circle class="cls-4" cx="440.63" cy="73.84" r="2.76"/><path class="cls-3" d="M107.35,39.06l-2.34.22c.08-.39.16-.76.23-1.11l.24-1.16,1.9,1.91Z" transform="translate(-1.3 -1.29)"/></svg>